<svg width="24" height="24" viewBox="0 0 24 24" fill="none" xmlns="http://www.w3.org/2000/svg">
<path d="M9.0988 12.5172C9.00884 12.4228 8.96387 12.3148 8.96387 12.1889C8.96387 12.0675 9.00884 11.964 9.1033 11.8696C9.19325 11.7751 9.32369 11.7301 9.4901 11.7301C9.65652 11.7301 9.78696 11.7796 9.87691 11.8741C9.96687 11.9685 10.0118 12.0765 10.0118 12.1934C10.0118 12.3193 9.96687 12.4318 9.87241 12.5217C9.78246 12.6117 9.65202 12.6612 9.48561 12.6612C9.31919 12.6612 9.18875 12.6117 9.0988 12.5172Z" fill="#383838"/>
<path d="M11.8156 12.5172C11.7256 12.4228 11.6807 12.3148 11.6807 12.1889C11.6807 12.0675 11.7256 11.964 11.8201 11.8696C11.91 11.7751 12.0405 11.7301 12.2069 11.7301C12.3733 11.7301 12.5038 11.7796 12.5937 11.8741C12.6837 11.9685 12.7286 12.0765 12.7286 12.1934C12.7286 12.3193 12.6837 12.4318 12.5892 12.5217C12.4993 12.6117 12.3688 12.6612 12.2024 12.6612C12.036 12.6612 11.9056 12.6117 11.8156 12.5172Z" fill="#383838"/>
<path d="M14.5502 12.5172C14.4603 12.4228 14.4153 12.3148 14.4153 12.1889C14.4153 12.0675 14.4603 11.964 14.5547 11.8696C14.6447 11.7751 14.7751 11.7301 14.9415 11.7301C15.1079 11.7301 15.2384 11.7796 15.3283 11.8741C15.4183 11.9685 15.4633 12.0765 15.4633 12.1934C15.4633 12.3193 15.4183 12.4318 15.3238 12.5217C15.2339 12.6117 15.1034 12.6612 14.937 12.6612C14.7706 12.6612 14.6402 12.6117 14.5502 12.5172Z" fill="#383838"/>
</svg>
