<svg width="24" height="24" viewBox="0 0 24 24" fill="none" xmlns="http://www.w3.org/2000/svg">
<path d="M5.86064 8.70316H4.12451V12.4138H5.86064V8.70316Z" stroke="#383838" stroke-width="0.5" stroke-miterlimit="10"/>
<path d="M17.7707 7.35382H5.37938C4.68634 7.35382 4.12451 7.91565 4.12451 8.60869V14.136C4.12451 14.829 4.68634 15.3909 5.37938 15.3909H17.7707C18.4637 15.3909 19.0256 14.829 19.0256 14.136V8.60869C19.0256 7.91565 18.4637 7.35382 17.7707 7.35382Z" stroke="#383838" stroke-width="0.5" stroke-miterlimit="10"/>
<path d="M7.5159 16.1784C8.20398 16.1784 8.76177 15.6206 8.76177 14.9325C8.76177 14.2444 8.20398 13.6866 7.5159 13.6866C6.82782 13.6866 6.27002 14.2444 6.27002 14.9325C6.27002 15.6206 6.82782 16.1784 7.5159 16.1784Z" fill="#EDEDED" stroke="#383838" stroke-width="0.5" stroke-miterlimit="10"/>
<path d="M15.3282 16.1784C16.0162 16.1784 16.574 15.6206 16.574 14.9325C16.574 14.2444 16.0162 13.6866 15.3282 13.6866C14.6401 13.6866 14.0823 14.2444 14.0823 14.9325C14.0823 15.6206 14.6401 16.1784 15.3282 16.1784Z" fill="#EDEDED" stroke="#383838" stroke-width="0.5" stroke-miterlimit="10"/>
</svg>
