<svg width="24" height="24" viewBox="0 0 24 24" fill="none" xmlns="http://www.w3.org/2000/svg">
<path d="M11.934 12.4213C11.8799 12.3808 11.8528 12.3177 11.8528 12.2456V10.0325L11.3976 10.3029C11.366 10.3209 11.33 10.3299 11.2939 10.3299C11.2398 10.3299 11.1948 10.3119 11.1587 10.2758C11.1226 10.2398 11.1001 10.1947 11.1001 10.1496C11.1001 10.0865 11.1316 10.0415 11.1948 10.0054L11.9881 9.55467C12.0241 9.53665 12.0737 9.52312 12.1323 9.51862C12.2044 9.51862 12.2675 9.54115 12.3171 9.58172C12.3667 9.62679 12.3937 9.68539 12.3937 9.76652V12.2456C12.3937 12.3222 12.3667 12.3808 12.3126 12.4213C12.2585 12.4664 12.1954 12.4844 12.1188 12.4844C12.0512 12.4844 11.9881 12.4619 11.934 12.4213Z" fill="#383838"/>
<path d="M13.8686 12.4439C13.7333 12.3853 13.6207 12.3087 13.535 12.214C13.4494 12.1193 13.3773 12.0022 13.3187 11.8669C13.2601 11.7317 13.224 11.592 13.2015 11.4478C13.1789 11.3035 13.1699 11.1458 13.1699 10.979C13.1699 10.8122 13.1789 10.6545 13.2015 10.5102C13.224 10.366 13.2646 10.2263 13.3187 10.091C13.3773 9.95582 13.4494 9.84313 13.535 9.74848C13.6207 9.65382 13.7333 9.5772 13.8686 9.52311C14.0038 9.46451 14.1615 9.43747 14.3373 9.43747C14.5131 9.43747 14.6709 9.46451 14.8061 9.52311C14.9413 9.58171 15.054 9.65382 15.1396 9.74848C15.2253 9.84313 15.2974 9.95582 15.356 10.091C15.4146 10.2263 15.4506 10.366 15.4732 10.5102C15.4957 10.6545 15.5047 10.8122 15.5047 10.979C15.5047 11.1458 15.4957 11.3035 15.4732 11.4478C15.4506 11.592 15.4101 11.7317 15.356 11.8669C15.3019 12.0022 15.2298 12.1193 15.1396 12.214C15.054 12.3087 14.9413 12.3898 14.8061 12.4439C14.6709 12.5025 14.5131 12.5295 14.3373 12.5295C14.1615 12.5295 14.0038 12.5025 13.8686 12.4439ZM14.5402 12.0833C14.6033 12.0562 14.6528 12.0247 14.6934 11.9841C14.734 11.9436 14.77 11.894 14.8016 11.8309C14.8331 11.7678 14.8557 11.7092 14.8782 11.6416C14.8962 11.5785 14.9098 11.5063 14.9233 11.4252C14.9323 11.3441 14.9413 11.2675 14.9458 11.1998C14.9503 11.1322 14.9503 11.0556 14.9503 10.97C14.9503 10.8708 14.9458 10.7807 14.9413 10.6995C14.9368 10.6184 14.9278 10.5328 14.9098 10.4426C14.8917 10.3525 14.8737 10.2713 14.8422 10.2037C14.8151 10.1361 14.779 10.073 14.734 10.0189C14.6889 9.96032 14.6348 9.91976 14.5672 9.88821C14.4996 9.85665 14.423 9.84313 14.3328 9.84313C14.2562 9.84313 14.1886 9.85665 14.13 9.87919C14.0669 9.90173 14.0173 9.93328 13.9767 9.97385C13.9362 10.0144 13.9001 10.064 13.8686 10.1226C13.837 10.1812 13.8145 10.2443 13.7919 10.3029C13.7739 10.366 13.7604 10.4336 13.7469 10.5147C13.7378 10.5959 13.7288 10.668 13.7243 10.7401C13.7198 10.8122 13.7198 10.8888 13.7198 10.97C13.7198 11.0511 13.7198 11.1277 13.7243 11.1998C13.7288 11.272 13.7333 11.3441 13.7469 11.4252C13.7559 11.5063 13.7739 11.5785 13.7919 11.6416C13.81 11.7047 13.837 11.7678 13.8686 11.8264C13.9001 11.885 13.9362 11.9391 13.9767 11.9796C14.0173 12.0202 14.0714 12.0517 14.13 12.0788C14.1931 12.1013 14.2607 12.1148 14.3328 12.1148C14.4094 12.1193 14.4771 12.1058 14.5402 12.0833Z" fill="#383838"/>
<path d="M2.63119 12.7916L2.50076 13.8531C2.40631 14.6222 3.26538 15.2789 4.36283 15.2789H18.2564C19.2864 15.2789 20.123 14.6941 20.123 13.9655V8.94601C20.123 8.22187 19.2864 7.63266 18.2564 7.63266H7.08847C6.20691 7.63266 5.44679 8.06444 5.26238 8.66714L4.58322 10.8576C4.46628 11.2354 4.11545 11.5592 3.6252 11.7391C3.05848 11.9505 2.68517 12.3463 2.63119 12.7916Z" stroke="#383838" stroke-width="0.5" stroke-miterlimit="10"/>
<path d="M6.00442 16.4393C6.6925 16.4393 7.2503 15.8815 7.2503 15.1934C7.2503 14.5053 6.6925 13.9475 6.00442 13.9475C5.31634 13.9475 4.75854 14.5053 4.75854 15.1934C4.75854 15.8815 5.31634 16.4393 6.00442 16.4393Z" fill="#EDEDED" stroke="#383838" stroke-width="0.5" stroke-miterlimit="10"/>
<path d="M14.6311 16.4393C15.3192 16.4393 15.877 15.8815 15.877 15.1934C15.877 14.5053 15.3192 13.9475 14.6311 13.9475C13.9431 13.9475 13.3853 14.5053 13.3853 15.1934C13.3853 15.8815 13.9431 16.4393 14.6311 16.4393Z" fill="#EDEDED" stroke="#383838" stroke-width="0.5" stroke-miterlimit="10"/>
<path d="M7.96112 7.63266L7.88916 15.2789" stroke="#383838" stroke-width="0.5" stroke-miterlimit="10"/>
<path d="M17.721 16.4393C18.4091 16.4393 18.9669 15.8815 18.9669 15.1934C18.9669 14.5053 18.4091 13.9475 17.721 13.9475C17.0329 13.9475 16.4751 14.5053 16.4751 15.1934C16.4751 15.8815 17.0329 16.4393 17.721 16.4393Z" fill="#EDEDED" stroke="#383838" stroke-width="0.5" stroke-miterlimit="10"/>
</svg>
