<svg width="24" height="24" viewBox="0 0 24 24" fill="none" xmlns="http://www.w3.org/2000/svg">
<g clip-path="url(#clip0)">
<path d="M12.4721 14.2601C12.3912 14.1994 12.3507 14.1185 12.3507 14.0105V13.4168H10.4886C10.374 13.4168 10.2863 13.3763 10.2188 13.2954C10.1513 13.2144 10.1108 13.1267 10.1108 13.0255C10.1108 13.0053 10.1108 12.985 10.1176 12.9648C10.1176 12.9446 10.1243 12.9243 10.1311 12.9041C10.1378 12.8838 10.1513 12.8703 10.1581 12.8501L11.8919 10.2661C11.9796 10.1312 12.0808 10.0368 12.1888 9.98279C12.2967 9.92207 12.4249 9.89508 12.5666 9.89508C12.7285 9.89508 12.8702 9.93556 12.9781 10.0233C13.0861 10.111 13.1401 10.2392 13.1401 10.4146V12.8771H13.5651C13.6595 12.8771 13.727 12.9041 13.7742 12.958C13.8215 13.012 13.8485 13.0727 13.8485 13.147C13.8485 13.2212 13.8215 13.2819 13.7742 13.3359C13.727 13.3898 13.6528 13.4168 13.5651 13.4168H13.1401V14.0105C13.1401 14.1185 13.0996 14.1994 13.0254 14.2601C12.9444 14.3209 12.8567 14.3479 12.7555 14.3479C12.6476 14.3479 12.5531 14.3209 12.4721 14.2601ZM12.3507 12.8771V10.6642L10.9069 12.8771H12.3507Z" fill="#383838"/>
<path d="M3.47241 13.6327V15.3328C3.47241 16.1289 4.11334 16.7699 4.90944 16.7699H19.381C20.2445 16.7699 20.9462 16.0682 20.9462 15.2046V15.1979V13.491C20.9462 12.7151 20.3457 12.0742 19.5699 12.027L17.7483 11.9123L16.8307 9.36206C16.5744 8.64692 15.893 8.16791 15.1306 8.16791H8.97766C8.3907 8.16791 7.86447 8.51199 7.62833 9.04497L6.50165 11.575L4.97016 11.8516C4.1066 12.0067 3.47241 12.7556 3.47241 13.6327Z" stroke="#383838" stroke-width="0.5" stroke-miterlimit="10"/>
<path d="M8.00605 17.7684C8.83324 17.7684 9.5038 17.0978 9.5038 16.2706C9.5038 15.4434 8.83324 14.7729 8.00605 14.7729C7.17887 14.7729 6.5083 15.4434 6.5083 16.2706C6.5083 17.0978 7.17887 17.7684 8.00605 17.7684Z" fill="#EDEDED" stroke="#383838" stroke-width="0.5" stroke-miterlimit="10"/>
<path d="M16.7497 17.7684C17.5769 17.7684 18.2475 17.0978 18.2475 16.2706C18.2475 15.4434 17.5769 14.7729 16.7497 14.7729C15.9225 14.7729 15.252 15.4434 15.252 16.2706C15.252 17.0978 15.9225 17.7684 16.7497 17.7684Z" fill="#EDEDED" stroke="#383838" stroke-width="0.5" stroke-miterlimit="10"/>
</g>
<defs>
<clipPath id="clip0">
<rect width="24" height="24" fill="white"/>
</clipPath>
</defs>
</svg>
