<svg width="24" height="24" viewBox="0 0 24 24" fill="none" xmlns="http://www.w3.org/2000/svg">
<path d="M5.19951 13.2864L5.15903 14.1184C5.12755 14.7166 5.39292 15.2339 5.73025 15.2339H10.5878V10.2774C10.5878 9.71063 10.3314 9.25186 10.0121 9.25186H7.87117C7.60131 9.25186 7.0211 9.73762 6.96263 10.2099L6.6163 11.7031C6.58032 12.0045 5.65379 12.3238 5.50536 12.4633C5.32995 12.6297 5.21301 12.9355 5.19951 13.2864Z" stroke="#383838" stroke-width="0.5" stroke-miterlimit="10"/>
<path d="M7.67337 16.3943C8.36145 16.3943 8.91924 15.8365 8.91924 15.1484C8.91924 14.4604 8.36145 13.9026 7.67337 13.9026C6.98529 13.9026 6.42749 14.4604 6.42749 15.1484C6.42749 15.8365 6.98529 16.3943 7.67337 16.3943Z" fill="#EDEDED" stroke="#383838" stroke-width="0.5" stroke-miterlimit="10"/>
<path d="M17.7438 15.2339H10.5879V8.98198C10.5891 8.61178 10.737 8.25714 10.9992 7.99579C11.2614 7.73443 11.6165 7.58768 11.9867 7.58768H17.7438C18.1132 7.58886 18.4672 7.73614 18.7284 7.99737C18.9896 8.2586 19.1369 8.61255 19.1381 8.98198V13.7541C19.1381 14.5187 18.5084 15.1484 17.7438 15.2339Z" stroke="#383838" stroke-width="0.5" stroke-miterlimit="10"/>
<path d="M15.895 16.3943C16.5831 16.3943 17.1409 15.8365 17.1409 15.1484C17.1409 14.4604 16.5831 13.9026 15.895 13.9026C15.207 13.9026 14.6492 14.4604 14.6492 15.1484C14.6492 15.8365 15.207 16.3943 15.895 16.3943Z" fill="#EDEDED" stroke="#383838" stroke-width="0.5" stroke-miterlimit="10"/>
<path d="M10.5879 12.6747H19.1381" stroke="#383838" stroke-width="0.5" stroke-miterlimit="10"/>
</svg>
