<svg width="24" height="24" viewBox="0 0 24 24" fill="none" xmlns="http://www.w3.org/2000/svg">
<path d="M13.3503 12.9633C13.2066 12.9172 13.0862 12.8584 12.9888 12.7787C12.8915 12.7032 12.8127 12.6066 12.7525 12.4975C12.6876 12.3884 12.6459 12.2709 12.6181 12.1492C12.5903 12.0275 12.5764 11.8974 12.5764 11.7547C12.5764 11.6288 12.5811 11.5113 12.595 11.4022C12.6042 11.2931 12.6274 11.1839 12.6552 11.0706C12.683 10.9615 12.7201 10.8608 12.7664 10.7685C12.8127 10.6803 12.873 10.5964 12.9425 10.5167C13.0166 10.4369 13.1001 10.3698 13.1974 10.3152C13.2947 10.2607 13.4059 10.2187 13.5403 10.1893C13.6747 10.1599 13.8183 10.1432 13.9805 10.1432C14.2307 10.1432 14.4717 10.1893 14.7034 10.2816C14.7683 10.3068 14.8007 10.3572 14.8007 10.4243C14.8007 10.4579 14.7915 10.4915 14.7776 10.5251C14.759 10.5586 14.7359 10.588 14.7034 10.609C14.671 10.63 14.6385 10.6426 14.6015 10.6426C14.5829 10.6426 14.5644 10.6384 14.5459 10.6342C14.3327 10.5586 14.1381 10.5209 13.9666 10.5209C13.8322 10.5209 13.7164 10.5376 13.6191 10.5712C13.5217 10.6048 13.443 10.651 13.3874 10.7097C13.3318 10.7685 13.2854 10.8398 13.2483 10.9321C13.2159 11.0245 13.1927 11.1126 13.1788 11.2091C13.1696 11.3015 13.1603 11.4106 13.1603 11.5365C13.202 11.4483 13.2947 11.377 13.4383 11.3182C13.582 11.2595 13.7442 11.2301 13.9249 11.2301C14.24 11.2301 14.4995 11.3098 14.6988 11.4735C14.898 11.6372 15 11.847 15 12.1072C15 12.38 14.8934 12.5982 14.6849 12.7703C14.4763 12.9382 14.1937 13.0263 13.8415 13.0263C13.6608 13.0305 13.4939 13.0095 13.3503 12.9633ZM13.3688 11.7211C13.253 11.8218 13.1974 11.9603 13.1974 12.1366C13.1974 12.2961 13.253 12.422 13.3642 12.5143C13.4754 12.6108 13.6283 12.657 13.8183 12.657C14.0222 12.657 14.1798 12.6108 14.291 12.5185C14.4022 12.4262 14.4578 12.2961 14.4578 12.124C14.4578 11.9561 14.4068 11.8218 14.3095 11.7211C14.2122 11.6204 14.0639 11.57 13.8647 11.57C13.6469 11.57 13.4847 11.6204 13.3688 11.7211Z" fill="#383838"/>
<path d="M4.11904 13.1589L4.0066 14.2204C3.92114 14.9895 4.67676 15.6462 5.63928 15.6462H17.8462C18.7547 15.6462 19.4879 15.0615 19.4879 14.3328V9.31334C19.4879 8.58921 18.7547 8 17.8462 8H8.03658C7.26297 8 6.5973 8.43178 6.43089 9.03448L5.83268 11.2249C5.72924 11.6027 5.42339 11.9265 4.99161 12.1064C4.49685 12.3178 4.16852 12.7136 4.11904 13.1589Z" stroke="#383838" stroke-width="0.5" stroke-miterlimit="10"/>
<path d="M7.51053 16.8066C8.1986 16.8066 8.7564 16.2488 8.7564 15.5607C8.7564 14.8726 8.1986 14.3148 7.51053 14.3148C6.82245 14.3148 6.26465 14.8726 6.26465 15.5607C6.26465 16.2488 6.82245 16.8066 7.51053 16.8066Z" fill="#EDEDED" stroke="#383838" stroke-width="0.5" stroke-miterlimit="10"/>
<path d="M16.677 16.8066C17.3651 16.8066 17.9229 16.2488 17.9229 15.5607C17.9229 14.8726 17.3651 14.3148 16.677 14.3148C15.989 14.3148 15.4312 14.8726 15.4312 15.5607C15.4312 16.2488 15.989 16.8066 16.677 16.8066Z" fill="#EDEDED" stroke="#383838" stroke-width="0.5" stroke-miterlimit="10"/>
<path d="M9.46712 8L9.39966 15.6462" stroke="#383838" stroke-width="0.5" stroke-miterlimit="10"/>
</svg>
