<svg width="24" height="24" viewBox="0 0 24 24" fill="none" xmlns="http://www.w3.org/2000/svg">
<path d="M5.32686 11.9479V14.0521H4.99515V11.9479C4.99515 11.2292 4.61466 10.8333 3.92198 10.8333C3.24881 10.8333 2.85856 11.1875 2.84881 11.8333H3.76588V12.0729H3.4049C3.12198 12.2396 2.99515 12.5104 2.99515 12.9375V14.0521H2.66344V13.0104C2.66344 12.5729 2.80003 12.25 3.05368 12.0625H2.52686V11.9583C2.52686 11.0417 3.03417 10.5417 3.94149 10.5417C4.83905 10.5417 5.32686 11.0521 5.32686 11.9479Z" stroke="#383838" stroke-width="0.2" stroke-linecap="round" stroke-linejoin="round"/>
<path d="M7.70232 14.1837C7.33123 14.1837 7.04194 14.0793 6.83445 13.8706C6.63095 13.6575 6.5292 13.3593 6.5292 12.9759V12.0428C6.5292 11.7744 6.5671 11.5529 6.64292 11.3782C6.72272 11.1993 6.84642 11.0566 7.01401 10.95H6.30176V10.6689H7.43299V10.8734C7.05391 11.0395 6.86437 11.4166 6.86437 12.0045V12.9631C6.86437 13.2656 6.93621 13.4956 7.07986 13.6533C7.2235 13.8109 7.43299 13.8897 7.70831 13.8897C7.97566 13.8897 8.17916 13.813 8.31882 13.6597C8.45848 13.502 8.52831 13.2741 8.52831 12.9759V10.6689H8.86349V12.9759C8.86349 13.3551 8.76174 13.6511 8.55824 13.8642C8.35473 14.0772 8.06943 14.1837 7.70232 14.1837Z" fill="#383838"/>
<path d="M3.94832 10.5008C4.39124 10.5008 4.7324 10.6243 4.97181 10.8714C5.21123 11.1143 5.33094 11.4615 5.33094 11.9131V14.0156H4.99576V11.9131C4.99576 11.551 4.90199 11.2741 4.71445 11.0823C4.5309 10.8906 4.26754 10.7948 3.92438 10.7948C3.58521 10.7948 3.32185 10.8821 3.13431 11.0568C2.94677 11.2272 2.851 11.4722 2.84701 11.7917H3.76876V12.0282H3.40964C3.26599 12.1091 3.16224 12.2199 3.0984 12.3605C3.03456 12.5011 3.00263 12.68 3.00263 12.8973V14.0156H2.66745V12.974C2.66745 12.7567 2.69937 12.5692 2.76321 12.4116C2.83105 12.2497 2.92881 12.1219 3.0565 12.0282H2.52979V11.9195C2.52979 11.4594 2.65149 11.1079 2.89489 10.8651C3.1383 10.6222 3.48944 10.5008 3.94832 10.5008Z" fill="#383838"/>
<path d="M6.52688 12.9063V11.9688C6.52688 11.4271 6.67322 11.0938 7.01469 10.875H6.30249V10.5938H7.4342V10.8021C7.05371 10.9688 6.86834 11.3438 6.86834 11.9375V12.8958C6.86834 13.5 7.16103 13.8229 7.71713 13.8229C8.25371 13.8229 8.53664 13.5 8.53664 12.9063V10.6042H8.86835V12.9063C8.86835 13.6667 8.43908 14.1146 7.70737 14.1146C6.95615 14.1146 6.52688 13.6771 6.52688 12.9063Z" stroke="#383838" stroke-width="0.2" stroke-linecap="round" stroke-linejoin="round"/>
<path d="M12.5462 13.9688C12.4877 13.9167 12.4584 13.8438 12.4584 13.75V11.0104L11.9706 11.3437C11.9316 11.3646 11.9023 11.375 11.8633 11.375C11.8048 11.375 11.756 11.3542 11.717 11.3021C11.678 11.2604 11.6584 11.2083 11.6584 11.1458C11.6584 11.0729 11.6877 11.0104 11.756 10.9687L12.6145 10.4167C12.6536 10.3958 12.7023 10.375 12.7706 10.375C12.8487 10.375 12.917 10.4062 12.9658 10.4583C13.0243 10.5104 13.0536 10.5938 13.0536 10.6875V13.7604C13.0536 13.8542 13.0243 13.9271 12.9658 13.9792C12.9072 14.0312 12.8389 14.0625 12.7609 14.0625C12.6731 14.0521 12.6048 14.0208 12.5462 13.9688Z" fill="#383838"/>
<path d="M15.9803 11.9583C15.8925 12.1458 15.7462 12.3333 15.5413 12.5208L14.4877 13.5833H15.873C15.9413 13.5833 15.9901 13.6042 16.0194 13.6562C16.0584 13.6979 16.0682 13.7604 16.0682 13.8229C16.0682 13.8854 16.0486 13.9375 16.0194 13.9896C15.9803 14.0417 15.9316 14.0625 15.873 14.0625H14.1852C14.0877 14.0625 13.9999 14.0312 13.9413 13.9687C13.8828 13.9062 13.8535 13.8333 13.8535 13.75C13.8535 13.6458 13.8925 13.5521 13.9803 13.4583L15.2291 12.125C15.4535 11.8854 15.5706 11.6562 15.5706 11.4479C15.5706 11.2708 15.5121 11.125 15.4047 11.0104C15.2877 10.8958 15.1511 10.8437 14.9852 10.8437C14.8877 10.8437 14.7999 10.8542 14.7121 10.875C14.6242 10.8958 14.5657 10.9167 14.5267 10.9271C14.4877 10.9479 14.4389 10.9792 14.3608 11.0208C14.2828 11.0729 14.234 11.0937 14.2242 11.1042C14.2047 11.1146 14.1755 11.125 14.156 11.125C14.0974 11.125 14.0486 11.0937 13.9999 11.0417C13.9511 10.9896 13.9218 10.9271 13.9218 10.8646C13.9218 10.8542 13.9218 10.8333 13.9218 10.8229C13.9218 10.8125 13.9316 10.7917 13.9316 10.7812C13.9413 10.7708 13.9413 10.75 13.9511 10.7396C13.9608 10.7292 13.9706 10.7187 13.9803 10.7083C13.9901 10.6979 14.0096 10.6875 14.0194 10.6771C14.1755 10.5729 14.3413 10.5 14.4877 10.4375C14.6438 10.3854 14.8194 10.3542 15.0242 10.3542C15.1511 10.3542 15.2682 10.375 15.3852 10.4062C15.5023 10.4375 15.5999 10.4896 15.6877 10.5521C15.7755 10.6146 15.8535 10.6875 15.9121 10.7812C15.9803 10.8646 16.0291 10.9687 16.0584 11.0729C16.0877 11.1771 16.1072 11.2917 16.1072 11.4062C16.1169 11.5937 16.0682 11.7812 15.9803 11.9583Z" fill="#383838"/>
<path d="M16.7806 13.8958C16.6928 13.8542 16.6538 13.7813 16.6538 13.6979C16.6538 13.625 16.6733 13.5625 16.7221 13.5104C16.7708 13.4479 16.8196 13.4271 16.8782 13.4271C16.8977 13.4271 16.9172 13.4271 16.9367 13.4375C17.1708 13.5521 17.3855 13.6042 17.5806 13.6042C17.7855 13.6042 17.9416 13.5625 18.0586 13.4688C18.1757 13.375 18.2342 13.2396 18.2342 13.0521C18.2342 12.8438 18.166 12.6771 18.0196 12.5521C17.8733 12.4271 17.6977 12.3646 17.4733 12.3646H17.2782C17.2196 12.3646 17.1708 12.3438 17.1416 12.3021C17.1123 12.2604 17.0928 12.2083 17.0928 12.1458C17.0928 12.0833 17.1123 12.0313 17.1416 11.9896C17.1708 11.9479 17.2196 11.9271 17.2782 11.9271H17.4635C17.6684 11.9271 17.844 11.875 17.9708 11.7813C18.0977 11.6771 18.166 11.5417 18.166 11.3438C18.166 11.1667 18.1074 11.0313 17.9903 10.9479C17.8733 10.8542 17.7367 10.8125 17.5708 10.8125C17.3074 10.8125 17.083 10.8646 16.8977 10.9688C16.8782 10.9792 16.8586 10.9896 16.8294 10.9896C16.7708 10.9896 16.7221 10.9583 16.6733 10.8958C16.6245 10.8333 16.605 10.7708 16.605 10.7083C16.605 10.6354 16.6342 10.5833 16.683 10.5417C16.7708 10.4792 16.9074 10.4167 17.0733 10.375C17.2391 10.3333 17.4147 10.3021 17.5903 10.3021C17.805 10.3021 18.0001 10.3438 18.166 10.4167C18.3416 10.4896 18.4782 10.6042 18.5855 10.7604C18.6928 10.9167 18.7416 11.0938 18.7416 11.3125C18.7416 11.6979 18.5562 11.9688 18.1952 12.1354C18.4001 12.1979 18.5562 12.3125 18.6538 12.4792C18.7611 12.6458 18.8099 12.8438 18.8099 13.0938C18.8099 13.2708 18.7806 13.4271 18.7123 13.5625C18.644 13.6979 18.5562 13.8125 18.4489 13.8958C18.3416 13.9792 18.2147 14.0417 18.0684 14.0833C17.9221 14.125 17.7757 14.1458 17.6099 14.1458C17.3269 14.1042 17.0342 14.0417 16.7806 13.8958Z" fill="#383838"/>
<path d="M20.9756 13.9896C20.9171 13.9375 20.8878 13.875 20.8878 13.7812V13.2917H19.5512C19.4732 13.2917 19.4049 13.2604 19.3561 13.1979C19.3073 13.1354 19.2781 13.0625 19.2781 12.9792C19.2781 12.9583 19.2781 12.9479 19.2781 12.9271C19.2781 12.9063 19.2878 12.8958 19.2878 12.875C19.2976 12.8646 19.2976 12.8438 19.3073 12.8333L20.5561 10.6875C20.6244 10.5729 20.6927 10.5 20.7708 10.4479C20.8488 10.3958 20.9366 10.375 21.0439 10.375C21.161 10.375 21.2586 10.4063 21.3366 10.4792C21.4147 10.5521 21.4537 10.6562 21.4537 10.8021V12.8437H21.7561C21.8244 12.8437 21.8732 12.8646 21.9122 12.9062C21.9512 12.9479 21.9708 13 21.9708 13.0625C21.9708 13.125 21.9512 13.1771 21.9122 13.2188C21.8732 13.2604 21.8244 13.2812 21.7561 13.2812H21.4439V13.7708C21.4439 13.8542 21.4147 13.9271 21.3561 13.9792C21.2976 14.0312 21.2391 14.0521 21.161 14.0521C21.1025 14.0625 21.0342 14.0312 20.9756 13.9896ZM20.8878 12.8437V11.0104L19.8537 12.8437H20.8878Z" fill="#383838"/>
</svg>
