<svg width="24" height="24" viewBox="0 0 24 24" fill="none" xmlns="http://www.w3.org/2000/svg">
<path d="M5.89192 7.25937H18.1123C19.1468 7.25937 19.9879 8.10045 19.9879 9.13493V14.8696C19.9879 15.9041 19.1468 16.7451 18.1123 16.7451H5.89192C4.85744 16.7451 4.01636 15.9041 4.01636 14.8696V9.13493C4.01636 8.10045 4.85744 7.25937 5.89192 7.25937Z" stroke="#383838" stroke-width="0.5" stroke-miterlimit="10"/>
<g clip-path="url(#clip0)">
<path d="M9.21492 14.7535L9.08388 14.2005C9.075 14.1635 9.05205 14.145 9.01503 14.145H8.92842V14.0584H9.01725C9.07352 14.0584 9.11276 14.0695 9.13497 14.0917C9.15718 14.1124 9.17272 14.142 9.18161 14.1805L9.2971 14.6669H9.33486C9.3852 14.6669 9.43406 14.6543 9.48144 14.6292C9.52882 14.604 9.57102 14.567 9.60804 14.5181C9.64653 14.4693 9.67689 14.4086 9.6991 14.336C9.72279 14.2634 9.73464 14.179 9.73464 14.0828C9.73464 13.9229 9.69762 13.8 9.62359 13.7141C9.55103 13.6268 9.44517 13.5831 9.30598 13.5831C9.20974 13.5831 9.1283 13.5972 9.06167 13.6253C8.99505 13.6534 8.93286 13.6867 8.87511 13.7252L8.8418 13.6497C8.89658 13.6068 8.96321 13.5698 9.04169 13.5387C9.12164 13.5076 9.21048 13.492 9.3082 13.492C9.3926 13.492 9.46738 13.5061 9.53253 13.5342C9.59916 13.5624 9.65468 13.6023 9.6991 13.6542C9.745 13.706 9.77979 13.7682 9.80348 13.8407C9.82718 13.9133 9.83902 13.9932 9.83902 14.0806C9.83902 14.1783 9.82569 14.2686 9.79904 14.3515C9.77387 14.4345 9.7376 14.5055 9.69022 14.5648C9.64431 14.624 9.58953 14.6706 9.52586 14.7047C9.46219 14.7373 9.3926 14.7535 9.31709 14.7535H9.21492ZM9.53308 13.3232C9.47978 13.3232 9.43684 13.3114 9.40426 13.2877C9.37169 13.2625 9.3554 13.2233 9.3554 13.17V13.09H9.45534V13.1544C9.45534 13.184 9.46201 13.2055 9.47533 13.2188C9.48866 13.2307 9.51235 13.2366 9.54641 13.2366H10.0994V13.3232H9.53308ZM10.3837 14.7535L9.99505 13.5098H10.095L10.4615 14.6625H10.4881C10.5459 14.6625 10.6014 14.6492 10.6547 14.6225C10.708 14.5944 10.7546 14.5551 10.7946 14.5048C10.8361 14.453 10.8686 14.3908 10.8923 14.3182C10.9175 14.2442 10.9301 14.162 10.9301 14.0717C10.9301 13.9873 10.9212 13.9148 10.9034 13.854C10.8871 13.7919 10.8635 13.7408 10.8324 13.7008C10.8027 13.6608 10.7679 13.6312 10.728 13.612C10.6895 13.5927 10.648 13.5831 10.6036 13.5831C10.5725 13.5831 10.5459 13.586 10.5236 13.592C10.5014 13.5964 10.4807 13.6023 10.4615 13.6097L10.4459 13.5253C10.4652 13.5165 10.4896 13.5091 10.5192 13.5031C10.5503 13.4957 10.5799 13.492 10.608 13.492C10.6702 13.492 10.7272 13.5046 10.7791 13.5298C10.8324 13.5535 10.8775 13.5897 10.9145 13.6386C10.953 13.686 10.9826 13.746 11.0034 13.8185C11.0241 13.8911 11.0345 13.9755 11.0345 14.0717C11.0345 14.1813 11.0204 14.2783 10.9923 14.3627C10.9641 14.447 10.9249 14.5181 10.8746 14.5759C10.8257 14.6336 10.7672 14.678 10.6991 14.7091C10.6325 14.7387 10.5607 14.7535 10.4837 14.7535H10.3837ZM12.2271 14.7535L12.0694 14.1872C12.0443 14.1058 12.0095 14.0451 11.965 14.0051C11.9221 13.9651 11.8584 13.9429 11.774 13.9384L11.4564 14.2027V14.7535H11.3521V13.5098H11.4564V14.085L12.1427 13.5098H12.2915L11.8607 13.8674C11.9451 13.8822 12.0117 13.9148 12.0605 13.9651C12.1094 14.014 12.1464 14.0843 12.1716 14.1761L12.3337 14.7535H12.2271ZM12.5454 14.5892C12.5868 14.6144 12.6379 14.6358 12.6986 14.6536C12.7593 14.6714 12.8259 14.6803 12.8985 14.6803C13.0332 14.6803 13.1369 14.6373 13.2094 14.5514C13.282 14.4641 13.3183 14.3227 13.3183 14.1272C13.3183 13.951 13.2842 13.8163 13.2161 13.723C13.148 13.6297 13.0429 13.5831 12.9007 13.5831C12.8267 13.5831 12.7578 13.5942 12.6942 13.6164C12.632 13.6371 12.5794 13.6608 12.5365 13.6875L12.5121 13.6053C12.555 13.5786 12.6113 13.5535 12.6808 13.5298C12.7504 13.5046 12.8245 13.492 12.9029 13.492C12.9859 13.492 13.0592 13.5068 13.1228 13.5364C13.188 13.5661 13.2428 13.6083 13.2872 13.663C13.3316 13.7178 13.3649 13.7845 13.3871 13.8629C13.4108 13.9414 13.4226 14.0295 13.4226 14.1272C13.4226 14.3434 13.3782 14.5048 13.2894 14.6114C13.202 14.718 13.0754 14.7713 12.9096 14.7713C12.8208 14.7713 12.7438 14.7617 12.6786 14.7424C12.615 14.7232 12.5617 14.701 12.5187 14.6758L12.5454 14.5892ZM13.1162 13.3232C13.0629 13.3232 13.0199 13.3114 12.9873 13.2877C12.9548 13.2625 12.9385 13.2233 12.9385 13.17V13.09H13.0384V13.1544C13.0384 13.184 13.0451 13.2055 13.0584 13.2188C13.0717 13.2307 13.0954 13.2366 13.1295 13.2366H13.6825V13.3232H13.1162ZM14.6064 14.7535V13.9917C14.6064 13.8689 14.5754 13.7704 14.5132 13.6964C14.451 13.6208 14.3562 13.5831 14.2289 13.5831C14.1504 13.5831 14.0816 13.5986 14.0223 13.6297C13.9646 13.6593 13.9164 13.7008 13.8779 13.7541C13.8409 13.8059 13.8128 13.8666 13.7936 13.9362C13.7758 14.0043 13.7669 14.0769 13.7669 14.1539C13.7669 14.2457 13.7773 14.3249 13.798 14.3915C13.8202 14.4567 13.8491 14.5107 13.8846 14.5537C13.9202 14.5966 13.9609 14.6284 14.0068 14.6492C14.0542 14.6699 14.1023 14.6803 14.1511 14.6803C14.1807 14.6803 14.2059 14.678 14.2267 14.6736C14.2489 14.6691 14.2703 14.6632 14.2911 14.6558L14.3088 14.7313C14.2629 14.755 14.2074 14.7669 14.1423 14.7669C14.083 14.7669 14.0245 14.755 13.9668 14.7313C13.9106 14.7076 13.8595 14.6714 13.8135 14.6225C13.7691 14.5722 13.7328 14.5085 13.7047 14.4315C13.6766 14.353 13.6625 14.2597 13.6625 14.1517C13.6625 14.0628 13.6744 13.9784 13.6981 13.8985C13.7232 13.8185 13.7595 13.7489 13.8069 13.6897C13.8543 13.629 13.9128 13.5809 13.9823 13.5453C14.0534 13.5098 14.1349 13.492 14.2267 13.492C14.3081 13.492 14.3792 13.5053 14.4398 13.532C14.5006 13.5587 14.5509 13.5949 14.5909 13.6408C14.6309 13.6852 14.6605 13.7386 14.6797 13.8007C14.7004 13.8614 14.7108 13.9259 14.7108 13.994V14.7535H14.6064Z" fill="#383838"/>
<path d="M9.21474 14.7535L9.17097 14.7639C9.17578 14.7842 9.19389 14.7985 9.21474 14.7985V14.7535ZM9.0837 14.2005L9.12746 14.1901L9.12743 14.19L9.0837 14.2005ZM8.92823 14.145H8.88325C8.88325 14.1698 8.90339 14.19 8.92823 14.19V14.145ZM8.92823 14.0584V14.0134C8.90339 14.0134 8.88325 14.0335 8.88325 14.0584H8.92823ZM9.13478 14.0917L9.10298 14.1235C9.10334 14.1239 9.10372 14.1242 9.10409 14.1246L9.13478 14.0917ZM9.18142 14.1805L9.1376 14.1906L9.13766 14.1909L9.18142 14.1805ZM9.29691 14.6669L9.25315 14.6773C9.25797 14.6976 9.27608 14.7119 9.29691 14.7119V14.6669ZM9.48125 14.6292L9.50236 14.6689L9.48125 14.6292ZM9.60785 14.5181L9.57252 14.4903C9.57235 14.4905 9.57217 14.4907 9.572 14.491L9.60785 14.5181ZM9.69891 14.336L9.65616 14.322C9.65607 14.3223 9.65599 14.3226 9.65591 14.3228L9.69891 14.336ZM9.6234 13.7141L9.5888 13.7429C9.58898 13.7431 9.58915 13.7433 9.58933 13.7435L9.6234 13.7141ZM9.06149 13.6253L9.07898 13.6667L9.06149 13.6253ZM8.87493 13.7252L8.83378 13.7434C8.83914 13.7555 8.84959 13.7647 8.86234 13.7684C8.87509 13.7721 8.88883 13.77 8.89988 13.7626L8.87493 13.7252ZM8.84161 13.6497L8.81387 13.6143C8.79768 13.627 8.79216 13.649 8.80046 13.6679L8.84161 13.6497ZM9.0415 13.5387L9.0252 13.4967L9.02493 13.4968L9.0415 13.5387ZM9.53234 13.5342L9.51451 13.5755L9.51484 13.5757L9.53234 13.5342ZM9.69891 13.6542L9.66476 13.6834C9.66492 13.6836 9.66508 13.6838 9.66524 13.684L9.69891 13.6542ZM9.79886 14.3515L9.75604 14.3378C9.75596 14.338 9.75589 14.3382 9.75582 14.3385L9.79886 14.3515ZM9.69003 14.5648L9.65491 14.5367C9.65476 14.5368 9.65462 14.537 9.65448 14.5372L9.69003 14.5648ZM9.52567 14.7047L9.54616 14.7447C9.5464 14.7446 9.54665 14.7445 9.54689 14.7443L9.52567 14.7047ZM9.2585 14.7432L9.12746 14.1901L9.03993 14.2109L9.17097 14.7639L9.2585 14.7432ZM9.12743 14.19C9.12135 14.1647 9.10926 14.141 9.08806 14.1239C9.06672 14.1067 9.04095 14.1 9.01485 14.1V14.19C9.02577 14.19 9.02998 14.1926 9.03159 14.1939C9.03333 14.1953 9.03716 14.1993 9.03996 14.211L9.12743 14.19ZM9.01485 14.1H8.92823V14.19H9.01485V14.1ZM8.97321 14.145V14.0584H8.88325V14.145H8.97321ZM8.92823 14.1033H9.01707V14.0134H8.92823V14.1033ZM9.01707 14.1033C9.07005 14.1033 9.0938 14.1143 9.10298 14.1235L9.16659 14.0599C9.13134 14.0246 9.07662 14.0134 9.01707 14.0134V14.1033ZM9.10409 14.1246C9.11805 14.1376 9.13013 14.1583 9.1376 14.1906L9.22525 14.1704C9.21495 14.1258 9.19594 14.0872 9.16547 14.0588L9.10409 14.1246ZM9.13766 14.1909L9.25315 14.6773L9.34067 14.6565L9.22518 14.1701L9.13766 14.1909ZM9.29691 14.7119H9.33467V14.6219H9.29691V14.7119ZM9.33467 14.7119C9.39285 14.7119 9.44892 14.6973 9.50236 14.6689L9.46016 14.5894C9.41883 14.6114 9.37717 14.6219 9.33467 14.6219V14.7119ZM9.50236 14.6689C9.55628 14.6402 9.60331 14.5986 9.6437 14.5453L9.572 14.491C9.53837 14.5354 9.501 14.5677 9.46016 14.5894L9.50236 14.6689ZM9.64318 14.546C9.68579 14.4919 9.71843 14.4259 9.74192 14.3492L9.65591 14.3228C9.63498 14.3912 9.60691 14.4466 9.57252 14.4903L9.64318 14.546ZM9.74167 14.35C9.76716 14.2719 9.77943 14.1826 9.77943 14.0828H9.68947C9.68947 14.1755 9.67805 14.255 9.65616 14.322L9.74167 14.35ZM9.77943 14.0828C9.77943 13.9165 9.74095 13.7816 9.65747 13.6847L9.58933 13.7435C9.65391 13.8184 9.68947 13.9293 9.68947 14.0828H9.77943ZM9.658 13.6854C9.57499 13.5854 9.45505 13.5381 9.3058 13.5381V13.6281C9.43491 13.6281 9.5267 13.6681 9.5888 13.7429L9.658 13.6854ZM9.3058 13.5381C9.20543 13.5381 9.11766 13.5527 9.04399 13.5838L9.07898 13.6667C9.13857 13.6416 9.21368 13.6281 9.3058 13.6281V13.5381ZM9.04399 13.5838C8.97487 13.613 8.91017 13.6477 8.84998 13.6878L8.89988 13.7626C8.95517 13.7258 9.01485 13.6938 9.07898 13.6667L9.04399 13.5838ZM8.91608 13.7071L8.88276 13.6316L8.80046 13.6679L8.83378 13.7434L8.91608 13.7071ZM8.86936 13.6851C8.92011 13.6453 8.98279 13.6103 9.05807 13.5805L9.02493 13.4968C8.94326 13.5292 8.87268 13.5682 8.81387 13.6143L8.86936 13.6851ZM9.0578 13.5806C9.13189 13.5518 9.2151 13.537 9.30802 13.537V13.447C9.20549 13.447 9.11102 13.4634 9.0252 13.4967L9.0578 13.5806ZM9.30802 13.537C9.38743 13.537 9.45595 13.5502 9.51451 13.5755L9.55017 13.4929C9.47843 13.4619 9.39741 13.447 9.30802 13.447V13.537ZM9.51484 13.5757C9.57545 13.6012 9.62515 13.6372 9.66476 13.6834L9.73306 13.6249C9.68384 13.5675 9.62249 13.5235 9.54983 13.4928L9.51484 13.5757ZM9.66524 13.684C9.70666 13.7307 9.73857 13.7874 9.76054 13.8547L9.84605 13.8268C9.82065 13.749 9.78297 13.6812 9.73258 13.6243L9.66524 13.684ZM9.76054 13.8547C9.78257 13.9221 9.79386 13.9973 9.79386 14.0806H9.88381C9.88381 13.9892 9.87141 13.9044 9.84605 13.8268L9.76054 13.8547ZM9.79386 14.0806C9.79386 14.1742 9.7811 14.2598 9.75604 14.3378L9.84168 14.3653C9.86992 14.2774 9.88381 14.1824 9.88381 14.0806H9.79386ZM9.75582 14.3385C9.73207 14.4167 9.69825 14.4825 9.65491 14.5367L9.72515 14.5929C9.77657 14.5286 9.8153 14.4522 9.8419 14.3646L9.75582 14.3385ZM9.65448 14.5372C9.6123 14.5916 9.56234 14.6341 9.50446 14.665L9.54689 14.7443C9.61635 14.7072 9.67595 14.6563 9.72558 14.5923L9.65448 14.5372ZM9.50519 14.6646C9.44822 14.6938 9.3857 14.7086 9.3169 14.7086V14.7985C9.39913 14.7985 9.4758 14.7807 9.54616 14.7447L9.50519 14.6646ZM9.3169 14.7086H9.21474V14.7985H9.3169V14.7086ZM9.40408 13.2877L9.37657 13.3233C9.37692 13.3235 9.37727 13.3238 9.37762 13.3241L9.40408 13.2877ZM9.35521 13.09V13.045C9.33037 13.045 9.31024 13.0652 9.31024 13.09H9.35521ZM9.45516 13.09H9.50014C9.50014 13.0652 9.48 13.045 9.45516 13.045V13.09ZM9.47515 13.2188L9.44334 13.2506C9.44397 13.2513 9.44461 13.2519 9.44527 13.2525L9.47515 13.2188ZM10.0992 13.2366H10.1442C10.1442 13.2118 10.1241 13.1916 10.0992 13.1916V13.2366ZM10.0992 13.3232V13.3682C10.1241 13.3682 10.1442 13.3481 10.1442 13.3232H10.0992ZM9.53289 13.2782C9.48604 13.2782 9.45327 13.2679 9.43053 13.2513L9.37762 13.3241C9.42003 13.3549 9.47314 13.3682 9.53289 13.3682V13.2782ZM9.43158 13.2521C9.41314 13.2378 9.40019 13.2138 9.40019 13.17H9.31024C9.31024 13.2327 9.32987 13.2872 9.37657 13.3233L9.43158 13.2521ZM9.40019 13.17V13.09H9.31024V13.17H9.40019ZM9.35521 13.135H9.45516V13.045H9.35521V13.135ZM9.41018 13.09V13.1544H9.50014V13.09H9.41018ZM9.41018 13.1544C9.41018 13.1894 9.41785 13.2251 9.44334 13.2506L9.50695 13.187C9.5058 13.1859 9.50014 13.1787 9.50014 13.1544H9.41018ZM9.44527 13.2525C9.47161 13.2759 9.50991 13.2816 9.54622 13.2816V13.1916C9.53154 13.1916 9.52101 13.1903 9.51382 13.1885C9.50654 13.1867 9.50464 13.1849 9.50503 13.1852L9.44527 13.2525ZM9.54622 13.2816H10.0992V13.1916H9.54622V13.2816ZM10.0543 13.2366V13.3232H10.1442V13.2366H10.0543ZM10.0992 13.2782H9.53289V13.3682H10.0992V13.2782ZM10.3835 14.7535L10.3406 14.767C10.3465 14.7857 10.3639 14.7985 10.3835 14.7985V14.7535ZM9.99486 13.5098V13.4648C9.98055 13.4648 9.9671 13.4716 9.95862 13.4831C9.95015 13.4947 9.94766 13.5095 9.95193 13.5232L9.99486 13.5098ZM10.0948 13.5098L10.1377 13.4962C10.1317 13.4775 10.1144 13.4648 10.0948 13.4648V13.5098ZM10.4613 14.6625L10.4184 14.6761C10.4243 14.6948 10.4417 14.7075 10.4613 14.7075V14.6625ZM10.6545 14.6225L10.6746 14.6627C10.6749 14.6626 10.6752 14.6624 10.6755 14.6623L10.6545 14.6225ZM10.7944 14.5048L10.7593 14.4767L10.7592 14.4768L10.7944 14.5048ZM10.8921 14.3182L10.8496 14.3037L10.8494 14.3043L10.8921 14.3182ZM10.9032 13.854L10.8597 13.8654C10.8598 13.8659 10.86 13.8663 10.8601 13.8667L10.9032 13.854ZM10.8322 13.7008L10.796 13.7276C10.7962 13.7278 10.7965 13.7281 10.7967 13.7284L10.8322 13.7008ZM10.7278 13.612L10.7077 13.6522C10.7079 13.6523 10.7081 13.6524 10.7083 13.6525L10.7278 13.612ZM10.5235 13.592L10.5323 13.6361C10.5332 13.6359 10.5341 13.6357 10.535 13.6354L10.5235 13.592ZM10.4613 13.6097L10.417 13.6179C10.4195 13.631 10.4276 13.6424 10.4393 13.649C10.451 13.6555 10.4649 13.6565 10.4774 13.6517L10.4613 13.6097ZM10.4457 13.5253L10.4269 13.4845C10.4082 13.4931 10.3978 13.5133 10.4015 13.5335L10.4457 13.5253ZM10.519 13.5031L10.5278 13.5472C10.5284 13.5471 10.5289 13.547 10.5294 13.5469L10.519 13.5031ZM10.7789 13.5298L10.7592 13.5702C10.7597 13.5705 10.7601 13.5707 10.7606 13.5709L10.7789 13.5298ZM10.9144 13.6386L10.8785 13.6658C10.8788 13.6662 10.8791 13.6666 10.8794 13.667L10.9144 13.6386ZM11.0032 13.8185L11.0464 13.8061L11.0032 13.8185ZM10.9921 14.3626L11.0348 14.3769L10.9921 14.3626ZM10.8744 14.5759L10.8405 14.5463C10.8403 14.5465 10.8402 14.5466 10.84 14.5468L10.8744 14.5759ZM10.6989 14.7091L10.7172 14.7502L10.7176 14.75L10.6989 14.7091ZM10.4265 14.7401L10.0378 13.4964L9.95193 13.5232L10.3406 14.767L10.4265 14.7401ZM9.99486 13.5548H10.0948V13.4648H9.99486V13.5548ZM10.0519 13.5234L10.4184 14.6761L10.5041 14.6489L10.1377 13.4962L10.0519 13.5234ZM10.4613 14.7075H10.4879V14.6175H10.4613V14.7075ZM10.4879 14.7075C10.5529 14.7075 10.6153 14.6924 10.6746 14.6627L10.6344 14.5823C10.5871 14.6059 10.5385 14.6175 10.4879 14.6175V14.7075ZM10.6755 14.6623C10.7347 14.631 10.786 14.5877 10.8296 14.5328L10.7592 14.4768C10.7228 14.5226 10.6809 14.5577 10.6335 14.5827L10.6755 14.6623ZM10.8295 14.5329C10.8748 14.4763 10.9098 14.4091 10.9349 14.3322L10.8494 14.3043C10.8271 14.3724 10.7969 14.4297 10.7593 14.4767L10.8295 14.5329ZM10.9347 14.3327C10.9617 14.2534 10.9749 14.1662 10.9749 14.0717H10.8849C10.8849 14.1578 10.8729 14.235 10.8496 14.3037L10.9347 14.3327ZM10.9749 14.0717C10.9749 13.9844 10.9657 13.9073 10.9464 13.8414L10.8601 13.8667C10.8763 13.9222 10.8849 13.9902 10.8849 14.0717H10.9749ZM10.9468 13.8426C10.9293 13.7761 10.9034 13.7191 10.8677 13.6732L10.7967 13.7284C10.8232 13.7625 10.8446 13.8076 10.8597 13.8654L10.9468 13.8426ZM10.8683 13.674C10.8349 13.6289 10.7946 13.5942 10.7473 13.5714L10.7083 13.6525C10.7409 13.6682 10.7702 13.6927 10.796 13.7276L10.8683 13.674ZM10.7479 13.5717C10.703 13.5493 10.6546 13.5381 10.6034 13.5381V13.6281C10.6411 13.6281 10.6756 13.6362 10.7077 13.6522L10.7479 13.5717ZM10.6034 13.5381C10.5697 13.5381 10.5389 13.5413 10.5119 13.5485L10.535 13.6354C10.5524 13.6308 10.575 13.6281 10.6034 13.6281V13.5381ZM10.5146 13.5479C10.4902 13.5528 10.467 13.5593 10.4451 13.5677L10.4774 13.6517C10.4941 13.6453 10.5123 13.6401 10.5323 13.6361L10.5146 13.5479ZM10.5055 13.6016L10.49 13.5172L10.4015 13.5335L10.417 13.6179L10.5055 13.6016ZM10.4646 13.5662C10.4796 13.5592 10.5004 13.5527 10.5278 13.5472L10.5102 13.459C10.4785 13.4654 10.4504 13.4737 10.4269 13.4845L10.4646 13.5662ZM10.5294 13.5469C10.5576 13.5402 10.5837 13.537 10.6079 13.537V13.447C10.5758 13.447 10.5426 13.4513 10.5086 13.4594L10.5294 13.5469ZM10.6079 13.537C10.6638 13.537 10.714 13.5483 10.7592 13.5702L10.7985 13.4893C10.7401 13.4609 10.6763 13.447 10.6079 13.447V13.537ZM10.7606 13.5709C10.8066 13.5913 10.8458 13.6226 10.8785 13.6658L10.9502 13.6114C10.9088 13.5568 10.8577 13.5156 10.7971 13.4887L10.7606 13.5709ZM10.8794 13.667C10.9133 13.7087 10.9405 13.7628 10.9599 13.8309L11.0464 13.8061C11.0244 13.7291 10.9924 13.6633 10.9493 13.6102L10.8794 13.667ZM10.9599 13.8309C10.9793 13.8985 10.9893 13.9785 10.9893 14.0717H11.0793C11.0793 13.9724 11.0686 13.8836 11.0464 13.8061L10.9599 13.8309ZM10.9893 14.0717C10.9893 14.1775 10.9757 14.2695 10.9494 14.3484L11.0348 14.3769C11.0647 14.287 11.0793 14.185 11.0793 14.0717H10.9893ZM10.9494 14.3484C10.9229 14.4281 10.8863 14.4937 10.8405 14.5463L10.9083 14.6054C10.9631 14.5425 11.005 14.466 11.0348 14.3769L10.9494 14.3484ZM10.84 14.5468C10.7954 14.5995 10.7423 14.6399 10.6802 14.6682L10.7176 14.75C10.7918 14.7162 10.8556 14.6677 10.9087 14.6049L10.84 14.5468ZM10.6806 14.668C10.6201 14.6949 10.5545 14.7086 10.4835 14.7086V14.7985C10.5664 14.7985 10.6445 14.7825 10.7172 14.7502L10.6806 14.668ZM10.4835 14.7086H10.3835V14.7985H10.4835V14.7086ZM12.2269 14.7535L12.1836 14.7656C12.189 14.7851 12.2067 14.7985 12.2269 14.7985V14.7535ZM12.0692 14.1872L12.1126 14.1751C12.1125 14.1747 12.1123 14.1743 12.1122 14.1739L12.0692 14.1872ZM11.9649 14.0051L11.9342 14.038C11.9344 14.0382 11.9346 14.0383 11.9348 14.0385L11.9649 14.0051ZM11.7739 13.9384L11.7762 13.8935C11.7649 13.8929 11.7538 13.8966 11.7451 13.9039L11.7739 13.9384ZM11.4563 14.2027L11.4275 14.1682C11.4172 14.1767 11.4113 14.1894 11.4113 14.2027H11.4563ZM11.4563 14.7535V14.7985C11.4811 14.7985 11.5012 14.7784 11.5012 14.7535H11.4563ZM11.3519 14.7535H11.3069C11.3069 14.7784 11.327 14.7985 11.3519 14.7985V14.7535ZM11.3519 13.5098V13.4648C11.327 13.4648 11.3069 13.4849 11.3069 13.5098H11.3519ZM11.4563 13.5098H11.5012C11.5012 13.4849 11.4811 13.4648 11.4563 13.4648V13.5098ZM11.4563 14.085H11.4113C11.4113 14.1025 11.4214 14.1184 11.4372 14.1258C11.4531 14.1332 11.4718 14.1307 11.4851 14.1195L11.4563 14.085ZM12.1425 13.5098V13.4648C12.132 13.4648 12.1217 13.4685 12.1136 13.4753L12.1425 13.5098ZM12.2913 13.5098L12.3201 13.5444C12.3347 13.5323 12.3401 13.5123 12.3337 13.4945C12.3272 13.4767 12.3103 13.4648 12.2913 13.4648V13.5098ZM11.8605 13.8674L11.8317 13.8328C11.8183 13.844 11.8125 13.862 11.817 13.8789C11.8215 13.8959 11.8354 13.9086 11.8527 13.9117L11.8605 13.8674ZM12.0604 13.9651L12.0281 13.9964C12.0282 13.9966 12.0284 13.9967 12.0286 13.9969L12.0604 13.9651ZM12.1714 14.1761L12.128 14.188L12.1281 14.1882L12.1714 14.1761ZM12.3335 14.7535V14.7985C12.3476 14.7985 12.3609 14.7919 12.3694 14.7807C12.3779 14.7695 12.3807 14.7549 12.3768 14.7414L12.3335 14.7535ZM12.2703 14.7415L12.1126 14.1751L12.0259 14.1993L12.1836 14.7656L12.2703 14.7415ZM12.1122 14.1739C12.0856 14.0878 12.0474 14.0189 11.9949 13.9716L11.9348 14.0385C11.9711 14.0712 12.0025 14.1237 12.0263 14.2005L12.1122 14.1739ZM11.9955 13.9721C11.9421 13.9224 11.8666 13.8983 11.7762 13.8935L11.7715 13.9834C11.8499 13.9875 11.9018 14.0078 11.9342 14.038L11.9955 13.9721ZM11.7451 13.9039L11.4275 14.1682L11.485 14.2373L11.8026 13.973L11.7451 13.9039ZM11.4113 14.2027V14.7535H11.5012V14.2027H11.4113ZM11.4563 14.7086H11.3519V14.7985H11.4563V14.7086ZM11.3968 14.7535V13.5098H11.3069V14.7535H11.3968ZM11.3519 13.5548H11.4563V13.4648H11.3519V13.5548ZM11.4113 13.5098V14.085H11.5012V13.5098H11.4113ZM11.4851 14.1195L12.1714 13.5443L12.1136 13.4753L11.4274 14.0506L11.4851 14.1195ZM12.1425 13.5548H12.2913V13.4648H12.1425V13.5548ZM12.2626 13.4752L11.8317 13.8328L11.8892 13.902L12.3201 13.5444L12.2626 13.4752ZM11.8527 13.9117C11.9299 13.9252 11.9872 13.9543 12.0281 13.9964L12.0926 13.9338C12.0358 13.8752 11.9599 13.8391 11.8682 13.8231L11.8527 13.9117ZM12.0286 13.9969C12.0702 14.0385 12.1042 14.101 12.128 14.188L12.2148 14.1642C12.1883 14.0676 12.1482 13.9894 12.0922 13.9333L12.0286 13.9969ZM12.1281 14.1882L12.2902 14.7657L12.3768 14.7414L12.2147 14.1639L12.1281 14.1882ZM12.3335 14.7086H12.2269V14.7985H12.3335V14.7086ZM12.5452 14.5892L12.5685 14.5507C12.5567 14.5435 12.5422 14.5422 12.5292 14.5471C12.5162 14.5521 12.5063 14.5627 12.5022 14.576L12.5452 14.5892ZM12.6984 14.6536L12.6858 14.6968L12.6984 14.6536ZM13.2093 14.5514L13.2436 14.5805L13.2439 14.5802L13.2093 14.5514ZM12.694 13.6164L12.7082 13.6591L12.7088 13.6589L12.694 13.6164ZM12.5363 13.6875L12.4932 13.7003C12.4972 13.7137 12.5072 13.7245 12.5203 13.7295C12.5334 13.7345 12.5481 13.7331 12.56 13.7257L12.5363 13.6875ZM12.5119 13.6053L12.4881 13.5671C12.4709 13.5778 12.463 13.5987 12.4688 13.6181L12.5119 13.6053ZM12.6807 13.5298L12.6952 13.5724C12.6954 13.5723 12.6957 13.5722 12.696 13.5721L12.6807 13.5298ZM13.1226 13.5364L13.1037 13.5772L13.104 13.5774L13.1226 13.5364ZM13.287 13.663L13.3219 13.6347L13.287 13.663ZM13.3869 13.8629L13.3437 13.8752C13.3437 13.8754 13.3438 13.8757 13.3439 13.8759L13.3869 13.8629ZM13.2892 14.6114L13.2547 14.5826L13.2544 14.5829L13.2892 14.6114ZM12.6784 14.7424L12.6654 14.7855L12.6657 14.7856L12.6784 14.7424ZM12.5185 14.6758L12.4755 14.6626C12.4694 14.6825 12.4778 14.7041 12.4958 14.7146L12.5185 14.6758ZM12.5218 14.6276C12.5675 14.6553 12.6224 14.6782 12.6858 14.6968L12.7111 14.6104C12.653 14.5934 12.6058 14.5734 12.5685 14.5507L12.5218 14.6276ZM12.6858 14.6968C12.7512 14.7159 12.8221 14.7252 12.8983 14.7252V14.6353C12.8294 14.6353 12.7671 14.6268 12.7111 14.6104L12.6858 14.6968ZM12.8983 14.7252C13.0434 14.7252 13.1608 14.6785 13.2436 14.5805L13.1749 14.5224C13.1126 14.5961 13.0227 14.6353 12.8983 14.6353V14.7252ZM13.2439 14.5802C13.3265 14.4807 13.3631 14.3263 13.3631 14.1272H13.2731C13.2731 14.319 13.2371 14.4475 13.1747 14.5227L13.2439 14.5802ZM13.3631 14.1272C13.3631 13.9462 13.3282 13.8006 13.2522 13.6965L13.1796 13.7495C13.2398 13.832 13.2731 13.9558 13.2731 14.1272H13.3631ZM13.2522 13.6965C13.1737 13.5889 13.0533 13.5381 12.9005 13.5381V13.6281C13.032 13.6281 13.1219 13.6705 13.1796 13.7495L13.2522 13.6965ZM12.9005 13.5381C12.822 13.5381 12.748 13.5499 12.6792 13.5739L12.7088 13.6589C12.7673 13.6385 12.8311 13.6281 12.9005 13.6281V13.5381ZM12.6798 13.5737C12.6152 13.5953 12.5592 13.6203 12.5126 13.6492L12.56 13.7257C12.5992 13.7013 12.6484 13.679 12.7082 13.6591L12.6798 13.5737ZM12.5794 13.6746L12.555 13.5925L12.4688 13.6181L12.4932 13.7003L12.5794 13.6746ZM12.5356 13.6435C12.5746 13.6193 12.6275 13.5954 12.6952 13.5724L12.6662 13.4872C12.5947 13.5115 12.535 13.538 12.4881 13.5671L12.5356 13.6435ZM12.696 13.5721C12.7604 13.5488 12.8292 13.537 12.9028 13.537V13.447C12.8194 13.447 12.7401 13.4604 12.6654 13.4875L12.696 13.5721ZM12.9028 13.537C12.9803 13.537 13.0469 13.5508 13.1037 13.5772L13.1416 13.4957C13.071 13.4628 12.9911 13.447 12.9028 13.447V13.537ZM13.104 13.5774C13.1629 13.6042 13.2121 13.6421 13.2521 13.6914L13.3219 13.6347C13.273 13.5744 13.2126 13.5279 13.1412 13.4955L13.104 13.5774ZM13.2521 13.6914C13.2921 13.7407 13.3229 13.8017 13.3437 13.8752L13.4302 13.8507C13.4066 13.7672 13.3707 13.6949 13.3219 13.6347L13.2521 13.6914ZM13.3439 13.8759C13.3661 13.9495 13.3775 14.0331 13.3775 14.1272H13.4674C13.4674 14.0259 13.4552 13.9333 13.43 13.8499L13.3439 13.8759ZM13.3775 14.1272C13.3775 14.3384 13.3339 14.4875 13.2547 14.5826L13.3238 14.6402C13.4222 14.5221 13.4674 14.3484 13.4674 14.1272H13.3775ZM13.2544 14.5829C13.1774 14.6769 13.0648 14.7263 12.9094 14.7263V14.8163C13.0857 14.8163 13.2263 14.7591 13.324 14.6399L13.2544 14.5829ZM12.9094 14.7263C12.8236 14.7263 12.7512 14.717 12.6912 14.6993L12.6657 14.7856C12.736 14.8063 12.8175 14.8163 12.9094 14.8163V14.7263ZM12.6915 14.6994C12.6301 14.6808 12.5803 14.6599 12.5413 14.637L12.4958 14.7146C12.5426 14.7421 12.5994 14.7655 12.6654 14.7855L12.6915 14.6994ZM12.5615 14.689L12.5882 14.6024L12.5022 14.576L12.4755 14.6626L12.5615 14.689ZM12.9872 13.2877L12.9597 13.3233C12.96 13.3235 12.9603 13.3238 12.9607 13.3241L12.9872 13.2877ZM12.9383 13.09V13.045C12.9135 13.045 12.8933 13.0652 12.8933 13.09H12.9383ZM13.0382 13.09H13.0832C13.0832 13.0652 13.0631 13.045 13.0382 13.045V13.09ZM13.0582 13.2188L13.0264 13.2506C13.027 13.2513 13.0277 13.2519 13.0283 13.2525L13.0582 13.2188ZM13.6823 13.2366H13.7273C13.7273 13.2118 13.7072 13.1916 13.6823 13.1916V13.2366ZM13.6823 13.3232V13.3682C13.7072 13.3682 13.7273 13.3481 13.7273 13.3232H13.6823ZM13.116 13.2782C13.0691 13.2782 13.0364 13.2679 13.0136 13.2513L12.9607 13.3241C13.0031 13.3549 13.0562 13.3682 13.116 13.3682V13.2782ZM13.0147 13.2521C12.9962 13.2378 12.9833 13.2138 12.9833 13.17H12.8933C12.8933 13.2327 12.9129 13.2872 12.9597 13.3233L13.0147 13.2521ZM12.9833 13.17V13.09H12.8933V13.17H12.9833ZM12.9383 13.135H13.0382V13.045H12.9383V13.135ZM12.9933 13.09V13.1544H13.0832V13.09H12.9933ZM12.9933 13.1544C12.9933 13.1894 13.0009 13.2251 13.0264 13.2506L13.09 13.187C13.0889 13.1859 13.0832 13.1787 13.0832 13.1544H12.9933ZM13.0283 13.2525C13.0547 13.2759 13.093 13.2816 13.1293 13.2816V13.1916C13.1146 13.1916 13.1041 13.1903 13.0969 13.1885C13.0896 13.1867 13.0877 13.1849 13.0881 13.1852L13.0283 13.2525ZM13.1293 13.2816H13.6823V13.1916H13.1293V13.2816ZM13.6374 13.2366V13.3232H13.7273V13.2366H13.6374ZM13.6823 13.2782H13.116V13.3682H13.6823V13.2782ZM14.6063 14.7535H14.5613C14.5613 14.7784 14.5814 14.7985 14.6063 14.7985V14.7535ZM14.513 13.6963L14.4783 13.7249L14.4785 13.7253L14.513 13.6963ZM14.0221 13.6297L14.0426 13.6697L14.0431 13.6695L14.0221 13.6297ZM13.8778 13.7541L13.8413 13.7278L13.8412 13.728L13.8778 13.7541ZM13.7934 13.9362L13.75 13.9242C13.75 13.9244 13.7499 13.9247 13.7498 13.9249L13.7934 13.9362ZM13.7978 14.3915L13.7549 14.4049C13.755 14.4053 13.7551 14.4056 13.7552 14.406L13.7978 14.3915ZM13.8844 14.5537L13.9191 14.525L13.8844 14.5537ZM14.0066 14.6492L13.9881 14.6901L13.9886 14.6904L14.0066 14.6492ZM14.2265 14.6736L14.2177 14.6295L14.217 14.6296L14.2265 14.6736ZM14.2909 14.6558L14.3346 14.6455C14.3317 14.6331 14.3236 14.6224 14.3124 14.6163C14.3011 14.6102 14.2878 14.6092 14.2758 14.6135L14.2909 14.6558ZM14.3086 14.7313L14.3293 14.7713C14.3476 14.7618 14.3571 14.7411 14.3524 14.721L14.3086 14.7313ZM13.9666 14.7313L13.9491 14.7728L13.9495 14.7729L13.9666 14.7313ZM13.8134 14.6225L13.7796 14.6523C13.7799 14.6526 13.7802 14.653 13.7806 14.6533L13.8134 14.6225ZM13.7046 14.4315L13.6622 14.4467L13.6623 14.4469L13.7046 14.4315ZM13.6979 13.8985L13.655 13.885C13.6549 13.8852 13.6548 13.8854 13.6548 13.8857L13.6979 13.8985ZM13.8067 13.6897L13.8418 13.7178L13.8421 13.7174L13.8067 13.6897ZM13.9822 13.5453L13.962 13.5051L13.9617 13.5053L13.9822 13.5453ZM14.5907 13.6408L14.5568 13.6704C14.557 13.6706 14.5571 13.6707 14.5573 13.6709L14.5907 13.6408ZM14.6795 13.8007L14.6366 13.814C14.6367 13.8144 14.6368 13.8149 14.637 13.8153L14.6795 13.8007ZM14.7107 14.7535V14.7985C14.7355 14.7985 14.7556 14.7784 14.7556 14.7535H14.7107ZM14.6512 14.7535V13.9917H14.5613V14.7535H14.6512ZM14.6512 13.9917C14.6512 13.8612 14.6181 13.7516 14.5474 13.6674L14.4785 13.7253C14.5322 13.7892 14.5613 13.8765 14.5613 13.9917H14.6512ZM14.5477 13.6678C14.4745 13.5789 14.3651 13.5381 14.2287 13.5381V13.6281C14.347 13.6281 14.427 13.6628 14.4783 13.7249L14.5477 13.6678ZM14.2287 13.5381C14.1442 13.5381 14.0679 13.5549 14.0012 13.5899L14.0431 13.6695C14.0948 13.6424 14.1562 13.6281 14.2287 13.6281V13.5381ZM14.0016 13.5897C13.9374 13.6226 13.8839 13.6688 13.8413 13.7278L13.9142 13.7804C13.9486 13.7328 13.9913 13.6961 14.0426 13.6697L14.0016 13.5897ZM13.8412 13.728C13.8007 13.7846 13.7705 13.8502 13.75 13.9242L13.8367 13.9482C13.8548 13.883 13.8808 13.8272 13.9144 13.7802L13.8412 13.728ZM13.7498 13.9249C13.731 13.997 13.7217 14.0734 13.7217 14.1539H13.8117C13.8117 14.0804 13.8202 14.0116 13.8369 13.9476L13.7498 13.9249ZM13.7217 14.1539C13.7217 14.2489 13.7324 14.3328 13.7549 14.4049L13.8407 14.3782C13.8217 14.317 13.8117 14.2425 13.8117 14.1539H13.7217ZM13.7552 14.406C13.7788 14.4752 13.8101 14.5343 13.8498 14.5823L13.9191 14.525C13.8877 14.4871 13.8613 14.4382 13.8404 14.377L13.7552 14.406ZM13.8498 14.5823C13.8892 14.63 13.9353 14.6663 13.9881 14.6901L14.0251 14.6082C13.9861 14.5905 13.9507 14.5632 13.9191 14.525L13.8498 14.5823ZM13.9886 14.6904C14.0413 14.7134 14.0955 14.7252 14.151 14.7252V14.6353C14.1087 14.6353 14.0667 14.6263 14.0246 14.6079L13.9886 14.6904ZM14.151 14.7252C14.1826 14.7252 14.2111 14.7229 14.2359 14.7176L14.217 14.6296C14.2003 14.6332 14.1785 14.6353 14.151 14.6353V14.7252ZM14.2353 14.7177C14.2596 14.7128 14.2831 14.7063 14.306 14.6982L14.2758 14.6135C14.2571 14.6201 14.2378 14.6255 14.2177 14.6295L14.2353 14.7177ZM14.2471 14.6661L14.2649 14.7416L14.3524 14.721L14.3346 14.6455L14.2471 14.6661ZM14.288 14.6914C14.2499 14.711 14.2019 14.7219 14.1421 14.7219V14.8118C14.2126 14.8118 14.2755 14.799 14.3293 14.7713L14.288 14.6914ZM14.1421 14.7219C14.089 14.7219 14.0363 14.7113 13.9837 14.6897L13.9495 14.7729C14.0124 14.7987 14.0767 14.8118 14.1421 14.8118V14.7219ZM13.9841 14.6899C13.9342 14.6689 13.8882 14.6364 13.8461 14.5917L13.7806 14.6533C13.8304 14.7063 13.8865 14.7464 13.9491 14.7728L13.9841 14.6899ZM13.8471 14.5927C13.8071 14.5474 13.7734 14.4889 13.7468 14.4161L13.6623 14.4469C13.6919 14.5281 13.7308 14.5969 13.7796 14.6523L13.8471 14.5927ZM13.7469 14.4163C13.7209 14.3439 13.7073 14.256 13.7073 14.1517H13.6173C13.6173 14.2635 13.6319 14.3621 13.6622 14.4467L13.7469 14.4163ZM13.7073 14.1517C13.7073 14.0669 13.7186 13.9868 13.741 13.9112L13.6548 13.8857C13.6298 13.97 13.6173 14.0588 13.6173 14.1517H13.7073ZM13.7408 13.912C13.7645 13.8368 13.7982 13.7722 13.8418 13.7178L13.7716 13.6616C13.7204 13.7256 13.6817 13.8003 13.655 13.885L13.7408 13.912ZM13.8421 13.7174C13.8855 13.6619 13.9388 13.618 14.0026 13.5854L13.9617 13.5053C13.8864 13.5437 13.8227 13.5961 13.7713 13.662L13.8421 13.7174ZM14.0023 13.5856C14.0662 13.5536 14.1406 13.537 14.2265 13.537V13.447C14.1288 13.447 14.0403 13.466 13.962 13.5051L14.0023 13.5856ZM14.2265 13.537C14.3031 13.537 14.3677 13.5495 14.4216 13.5732L14.4577 13.4908C14.3902 13.4612 14.3127 13.447 14.2265 13.447V13.537ZM14.4216 13.5732C14.4768 13.5974 14.5216 13.6299 14.5568 13.6704L14.6246 13.6113C14.5799 13.56 14.524 13.5199 14.4577 13.4908L14.4216 13.5732ZM14.5573 13.6709C14.5925 13.7101 14.6191 13.7575 14.6366 13.814L14.7225 13.7874C14.7015 13.7196 14.6689 13.6604 14.6242 13.6107L14.5573 13.6709ZM14.637 13.8153C14.656 13.871 14.6657 13.9305 14.6657 13.994H14.7556C14.7556 13.9212 14.7445 13.8519 14.7221 13.7862L14.637 13.8153ZM14.6657 13.994V14.7535H14.7556V13.994H14.6657ZM14.7107 14.7086H14.6063V14.7985H14.7107V14.7086Z" fill="#383838"/>
</g>
<g clip-path="url(#clip1)">
<path d="M8.77523 10.6372V11.5457H8.62231V10.6372C8.62231 10.3269 8.4469 10.1559 8.12755 10.1559C7.81721 10.1559 7.6373 10.3089 7.6328 10.5877H8.05559V10.6912H7.88917C7.75874 10.7631 7.70027 10.8801 7.70027 11.0645V11.5457H7.54734V11.096C7.54734 10.9071 7.61031 10.7676 7.72725 10.6867H7.48438V10.6417C7.48438 10.2459 7.71826 10.03 8.13655 10.03C8.55034 10.03 8.77523 10.2504 8.77523 10.6372Z" stroke="#383838" stroke-width="0.1" stroke-linecap="round" stroke-linejoin="round"/>
<path d="M9.8703 11.6026C9.69922 11.6026 9.56585 11.5575 9.47019 11.4674C9.37637 11.3754 9.32947 11.2466 9.32947 11.0811V10.6782C9.32947 10.5623 9.34694 10.4666 9.38189 10.3912C9.41868 10.314 9.47571 10.2523 9.55297 10.2063H9.22461V10.0849H9.74613V10.1732C9.57137 10.245 9.48399 10.4078 9.48399 10.6616V11.0755C9.48399 11.2062 9.5171 11.3055 9.58333 11.3736C9.64955 11.4416 9.74613 11.4757 9.87306 11.4757C9.99631 11.4757 10.0901 11.4425 10.1545 11.3763C10.2189 11.3083 10.2511 11.2098 10.2511 11.0811V10.0849H10.4056V11.0811C10.4056 11.2448 10.3587 11.3726 10.2649 11.4646C10.1711 11.5566 10.0395 11.6026 9.8703 11.6026Z" fill="#383838"/>
<path d="M8.13957 10.0124C8.34376 10.0124 8.50104 10.0657 8.61142 10.1724C8.72179 10.2773 8.77698 10.4272 8.77698 10.6222V11.53H8.62246V10.6222C8.62246 10.4658 8.57923 10.3462 8.49277 10.2635C8.40815 10.1807 8.28673 10.1393 8.12853 10.1393C7.97217 10.1393 7.85075 10.177 7.76429 10.2524C7.67783 10.326 7.63368 10.4318 7.63184 10.5698H8.05679V10.6719H7.89123C7.825 10.7068 7.77717 10.7546 7.74774 10.8153C7.7183 10.876 7.70359 10.9533 7.70359 11.0471V11.53H7.54906V11.0802C7.54906 10.9864 7.56378 10.9055 7.59321 10.8374C7.62448 10.7675 7.66955 10.7123 7.72842 10.6719H7.4856V10.6249C7.4856 10.4263 7.5417 10.2745 7.65392 10.1696C7.76613 10.0648 7.92802 10.0124 8.13957 10.0124Z" fill="#383838"/>
<path d="M9.3283 11.051V10.6462C9.3283 10.4123 9.39577 10.2684 9.55319 10.1739H9.22485V10.0525H9.74659V10.1424C9.57118 10.2144 9.48572 10.3763 9.48572 10.6327V11.0465C9.48572 11.3074 9.62065 11.4468 9.87703 11.4468C10.1244 11.4468 10.2548 11.3074 10.2548 11.051V10.057H10.4078V11.051C10.4078 11.3793 10.2099 11.5727 9.87253 11.5727C9.5262 11.5727 9.3283 11.3838 9.3283 11.051Z" stroke="#383838" stroke-width="0.1" stroke-linecap="round" stroke-linejoin="round"/>
<path d="M12.1036 11.5098C12.0766 11.4873 12.0632 11.4558 12.0632 11.4153V10.2324L11.8383 10.3763C11.8203 10.3853 11.8068 10.3898 11.7888 10.3898C11.7618 10.3898 11.7393 10.3808 11.7213 10.3583C11.7033 10.3403 11.6943 10.3179 11.6943 10.2909C11.6943 10.2594 11.7078 10.2324 11.7393 10.2144L12.1351 9.97603C12.1531 9.96703 12.1756 9.95804 12.2071 9.95804C12.2431 9.95804 12.2745 9.97153 12.297 9.99402C12.324 10.0165 12.3375 10.0525 12.3375 10.093V11.4198C12.3375 11.4603 12.324 11.4918 12.297 11.5143C12.27 11.5367 12.2386 11.5502 12.2026 11.5502C12.1621 11.5457 12.1306 11.5323 12.1036 11.5098Z" fill="#383838"/>
<path d="M13.6868 10.6417C13.6463 10.7226 13.5789 10.8036 13.4844 10.8846L12.9987 11.3433H13.6373C13.6688 11.3433 13.6913 11.3523 13.7048 11.3748C13.7228 11.3928 13.7273 11.4198 13.7273 11.4468C13.7273 11.4738 13.7183 11.4963 13.7048 11.5188C13.6868 11.5412 13.6643 11.5502 13.6373 11.5502H12.8592C12.8142 11.5502 12.7738 11.5367 12.7468 11.5098C12.7198 11.4828 12.7063 11.4513 12.7063 11.4153C12.7063 11.3703 12.7243 11.3298 12.7648 11.2894L13.3405 10.7137C13.4439 10.6102 13.4979 10.5113 13.4979 10.4213C13.4979 10.3448 13.4709 10.2819 13.4214 10.2324C13.3675 10.1829 13.3045 10.1604 13.228 10.1604C13.1831 10.1604 13.1426 10.1649 13.1021 10.1739C13.0616 10.1829 13.0346 10.1919 13.0166 10.1964C12.9987 10.2054 12.9762 10.2189 12.9402 10.2369C12.9042 10.2594 12.8817 10.2684 12.8772 10.2729C12.8682 10.2774 12.8547 10.2819 12.8457 10.2819C12.8187 10.2819 12.7963 10.2684 12.7738 10.2459C12.7513 10.2234 12.7378 10.1964 12.7378 10.1694C12.7378 10.1649 12.7378 10.1559 12.7378 10.1514C12.7378 10.1469 12.7423 10.1379 12.7423 10.1334C12.7468 10.1289 12.7468 10.12 12.7513 10.1155C12.7558 10.111 12.7603 10.1065 12.7648 10.102C12.7693 10.0975 12.7783 10.093 12.7828 10.0885C12.8547 10.0435 12.9312 10.012 12.9987 9.98502C13.0706 9.96253 13.1516 9.94904 13.246 9.94904C13.3045 9.94904 13.3585 9.95803 13.4124 9.97152C13.4664 9.98502 13.5114 10.0075 13.5519 10.0345C13.5924 10.0615 13.6283 10.093 13.6553 10.1334C13.6868 10.1694 13.7093 10.2144 13.7228 10.2594C13.7363 10.3044 13.7453 10.3538 13.7453 10.4033C13.7498 10.4843 13.7273 10.5652 13.6868 10.6417Z" fill="#383838"/>
<path d="M14.0556 11.4783C14.0151 11.4603 13.9971 11.4288 13.9971 11.3928C13.9971 11.3613 14.0061 11.3343 14.0286 11.3119C14.0511 11.2849 14.0736 11.2759 14.1005 11.2759C14.1095 11.2759 14.1185 11.2759 14.1275 11.2804C14.2355 11.3298 14.3344 11.3523 14.4244 11.3523C14.5188 11.3523 14.5908 11.3343 14.6448 11.2939C14.6987 11.2534 14.7257 11.1949 14.7257 11.114C14.7257 11.024 14.6942 10.952 14.6268 10.8981C14.5593 10.8441 14.4784 10.8171 14.3749 10.8171H14.285C14.258 10.8171 14.2355 10.8081 14.222 10.7901C14.2085 10.7721 14.1995 10.7496 14.1995 10.7226C14.1995 10.6957 14.2085 10.6732 14.222 10.6552C14.2355 10.6372 14.258 10.6282 14.285 10.6282H14.3704C14.4649 10.6282 14.5458 10.6057 14.6043 10.5652C14.6628 10.5202 14.6942 10.4618 14.6942 10.3763C14.6942 10.2999 14.6673 10.2414 14.6133 10.2054C14.5593 10.1649 14.4963 10.1469 14.4199 10.1469C14.2984 10.1469 14.195 10.1694 14.1095 10.2144C14.1005 10.2189 14.0916 10.2234 14.0781 10.2234C14.0511 10.2234 14.0286 10.2099 14.0061 10.1829C13.9836 10.1559 13.9746 10.1289 13.9746 10.102C13.9746 10.0705 13.9881 10.048 14.0106 10.03C14.0511 10.003 14.114 9.97602 14.1905 9.95803C14.267 9.94004 14.3479 9.92654 14.4289 9.92654C14.5278 9.92654 14.6178 9.94454 14.6942 9.97602C14.7752 10.0075 14.8382 10.057 14.8877 10.1244C14.9371 10.1919 14.9596 10.2684 14.9596 10.3628C14.9596 10.5292 14.8742 10.6462 14.7077 10.7181C14.8022 10.7451 14.8742 10.7946 14.9191 10.8666C14.9686 10.9385 14.9911 11.024 14.9911 11.1319C14.9911 11.2084 14.9776 11.2759 14.9461 11.3343C14.9146 11.3928 14.8742 11.4423 14.8247 11.4783C14.7752 11.5143 14.7167 11.5412 14.6493 11.5592C14.5818 11.5772 14.5143 11.5862 14.4379 11.5862C14.3074 11.5682 14.1725 11.5412 14.0556 11.4783Z" fill="#383838"/>
<path d="M15.9894 11.5188C15.9624 11.4963 15.9489 11.4693 15.9489 11.4288V11.2174H15.3327C15.2967 11.2174 15.2653 11.2039 15.2428 11.1769C15.2203 11.1499 15.2068 11.1185 15.2068 11.0825C15.2068 11.0735 15.2068 11.069 15.2068 11.06C15.2068 11.051 15.2113 11.0465 15.2113 11.0375C15.2158 11.033 15.2158 11.024 15.2203 11.0195L15.796 10.093C15.8275 10.0435 15.859 10.012 15.8949 9.98952C15.9309 9.96703 15.9714 9.95804 16.0209 9.95804C16.0749 9.95804 16.1198 9.97153 16.1558 10.003C16.1918 10.0345 16.2098 10.0795 16.2098 10.1424V11.024H16.3492C16.3807 11.024 16.4032 11.033 16.4212 11.051C16.4392 11.069 16.4482 11.0915 16.4482 11.1185C16.4482 11.1454 16.4392 11.1679 16.4212 11.1859C16.4032 11.2039 16.3807 11.2129 16.3492 11.2129H16.2053V11.4243C16.2053 11.4603 16.1918 11.4918 16.1648 11.5143C16.1378 11.5368 16.1108 11.5457 16.0749 11.5457C16.0479 11.5502 16.0164 11.5368 15.9894 11.5188ZM15.9489 11.024V10.2324L15.4722 11.024H15.9489Z" fill="#383838"/>
</g>
<path d="M7.21939 8.19513H6.04866C5.40208 8.19513 4.87793 8.71928 4.87793 9.36586V10.5366" stroke="#212121" stroke-width="0.2"/>
<path d="M16.6829 15.8049H17.8536C18.5002 15.8049 19.0243 15.2807 19.0243 14.6341V13.4634" stroke="#212121" stroke-width="0.2"/>
<path d="M19.0243 10.5366V9.36586C19.0243 8.71928 18.5002 8.19513 17.8536 8.19513H16.6829" stroke="#212121" stroke-width="0.2"/>
<path d="M4.87793 13.4634V14.6341C4.87793 15.2807 5.40208 15.8049 6.04866 15.8049H7.21939" stroke="#212121" stroke-width="0.2"/>
<defs>
<clipPath id="clip0">
<rect width="6.16192" height="3.55322" fill="white" transform="translate(8.77051 12.2789)"/>
</clipPath>
<clipPath id="clip1">
<rect width="9.22039" height="4.31784" fill="white" transform="translate(7.24146 8.50076)"/>
</clipPath>
</defs>
</svg>
