<svg width="20" height="6" viewBox="0 0 20 6" fill="none" xmlns="http://www.w3.org/2000/svg">
<path d="M1.60707 5.66102L1.46501 5.69313C1.48061 5.75591 1.53941 5.80026 1.60707 5.80026V5.66102ZM1.18175 3.94897L1.3238 3.91687L1.3237 3.91648L1.18175 3.94897ZM0.677137 3.77708H0.531151C0.531151 3.85398 0.596512 3.91632 0.677137 3.91632V3.77708ZM0.677137 3.50892V3.36968C0.596512 3.36968 0.531151 3.43203 0.531151 3.50892H0.677137ZM1.34755 3.61205L1.24432 3.71053C1.24551 3.71165 1.24672 3.71277 1.24794 3.71385L1.34755 3.61205ZM1.49894 3.88708L1.35669 3.9184L1.3569 3.91926L1.49894 3.88708ZM1.87379 5.39287L1.73175 5.42503C1.74738 5.48779 1.80616 5.53211 1.87379 5.53211V5.39287ZM2.47211 5.27598L2.54061 5.39894L2.47211 5.27598ZM2.88302 4.93219L2.76835 4.84602C2.76778 4.84671 2.76721 4.84741 2.76665 4.84812L2.88302 4.93219ZM3.17858 4.36838L3.03981 4.32516C3.03952 4.32598 3.03925 4.3268 3.03899 4.32763L3.17858 4.36838ZM2.93349 2.44319L2.82118 2.53215C2.82175 2.53282 2.82232 2.53346 2.8229 2.53411L2.93349 2.44319ZM1.10966 2.16816L1.16645 2.29644L1.10966 2.16816ZM0.504127 2.47757L0.370562 2.53378C0.387959 2.57138 0.421893 2.59975 0.463271 2.61125C0.504649 2.62275 0.549243 2.61623 0.585105 2.59343L0.504127 2.47757ZM0.395995 2.24379L0.30594 2.13421C0.253401 2.17348 0.235486 2.24175 0.262431 2.30001L0.395995 2.24379ZM1.04478 1.90001L0.991871 1.77024L0.991008 1.77056L1.04478 1.90001ZM2.63792 1.88627L2.58004 2.0141L2.58114 2.01453L2.63792 1.88627ZM3.17858 2.25755L3.06773 2.34817C3.06824 2.34874 3.06877 2.34931 3.0693 2.34987L3.17858 2.25755ZM3.50297 4.41652L3.36398 4.37391C3.36375 4.37463 3.36352 4.37534 3.36328 4.37607L3.50297 4.41652ZM3.14975 5.07659L3.03575 4.9896C3.03528 4.99016 3.03481 4.99073 3.03435 4.99129L3.14975 5.07659ZM2.61629 5.50975L2.68279 5.63371C2.68357 5.63332 2.68436 5.63293 2.68515 5.63253L2.61629 5.50975ZM1.74912 5.62891L1.3238 3.91687L1.0397 3.98107L1.46501 5.69313L1.74912 5.62891ZM1.3237 3.91648C1.30397 3.83804 1.26472 3.76461 1.1959 3.71167C1.12664 3.65839 1.04298 3.63784 0.958278 3.63784V3.91632C0.993721 3.91632 1.00738 3.92441 1.01261 3.92844C1.01828 3.93279 1.0307 3.9453 1.0398 3.98146L1.3237 3.91648ZM0.958278 3.63784H0.677137V3.91632H0.958278V3.63784ZM0.823122 3.77708V3.50892H0.531151V3.77708H0.823122ZM0.677137 3.64816H0.965487V3.36968H0.677137V3.64816ZM0.965487 3.64816C1.13743 3.64816 1.21454 3.68211 1.24432 3.71053L1.45078 3.5136C1.33639 3.4045 1.15879 3.36968 0.965487 3.36968V3.64816ZM1.24794 3.71385C1.29323 3.75416 1.33245 3.8182 1.35669 3.9184L1.64118 3.85578C1.60775 3.71761 1.54605 3.5983 1.44716 3.51027L1.24794 3.71385ZM1.3569 3.91926L1.73175 5.42503L2.01582 5.36069L1.64097 3.85492L1.3569 3.91926ZM1.87379 5.53211H1.99635V5.25363H1.87379V5.53211ZM1.99635 5.53211C2.18518 5.53211 2.36716 5.48683 2.54061 5.39894L2.40363 5.15301C2.2695 5.22098 2.13429 5.25363 1.99635 5.25363V5.53211ZM2.54061 5.39894C2.71562 5.31026 2.86826 5.18136 2.99938 5.01628L2.76665 4.84812C2.65749 4.98555 2.53619 5.08584 2.40363 5.15301L2.54061 5.39894ZM2.99769 5.01837C3.13598 4.85095 3.24192 4.64672 3.31817 4.40915L3.03899 4.32763C2.97106 4.53927 2.87995 4.71091 2.76835 4.84602L2.99769 5.01837ZM3.31735 4.4116C3.40008 4.16995 3.43991 3.89353 3.43991 3.58455H3.14794C3.14794 3.87147 3.11086 4.11761 3.03981 4.32516L3.31735 4.4116ZM3.43991 3.58455C3.43991 3.0697 3.31502 2.65208 3.04406 2.35228L2.8229 2.53411C3.03252 2.76603 3.14794 3.10931 3.14794 3.58455H3.43991ZM3.04578 2.35423C2.77636 2.04482 2.38705 1.89828 1.90262 1.89828V2.17676C2.3217 2.17676 2.61962 2.30069 2.82118 2.53215L3.04578 2.35423ZM1.90262 1.89828C1.57685 1.89828 1.29199 1.94359 1.05288 2.03989L1.16645 2.29644C1.35986 2.21855 1.60365 2.17676 1.90262 2.17676V1.89828ZM1.05288 2.03989C0.828515 2.13024 0.618528 2.23749 0.423148 2.36172L0.585105 2.59343C0.764582 2.47931 0.958286 2.38026 1.16645 2.29644L1.05288 2.03989ZM0.637692 2.42137L0.52956 2.1876L0.262431 2.30001L0.370562 2.53378L0.637692 2.42137ZM0.486051 2.35339C0.650786 2.23023 0.854214 2.12181 1.09856 2.02946L0.991008 1.77056C0.725934 1.87074 0.496838 1.9915 0.30594 2.13421L0.486051 2.35339ZM1.0977 2.02978C1.33816 1.9406 1.60826 1.89486 1.90984 1.89486V1.61638C1.57704 1.61638 1.27043 1.66692 0.991873 1.77024L1.0977 2.02978ZM1.90984 1.89486C2.16757 1.89486 2.38998 1.93581 2.58004 2.01409L2.69579 1.75843C2.46295 1.66252 2.19997 1.61638 1.90984 1.61638V1.89486ZM2.58114 2.01453C2.77784 2.09375 2.93915 2.20509 3.06773 2.34817L3.28941 2.16693C3.12965 1.98915 2.93052 1.85296 2.6947 1.75798L2.58114 2.01453ZM3.0693 2.34987C3.20372 2.49464 3.30728 2.66997 3.37861 2.87833L3.65616 2.79189C3.5737 2.55103 3.4514 2.34133 3.28787 2.16523L3.0693 2.34987ZM3.37861 2.87833C3.4501 3.08713 3.48674 3.31983 3.48674 3.57768H3.77871C3.77871 3.29464 3.73846 3.0323 3.65616 2.79189L3.37861 2.87833ZM3.48674 3.57768C3.48674 3.86749 3.44533 4.13255 3.36398 4.37391L3.64195 4.45912C3.73363 4.1871 3.77871 3.89293 3.77871 3.57768H3.48674ZM3.36328 4.37607C3.2862 4.61822 3.17642 4.82189 3.03575 4.9896L3.26373 5.16357C3.43064 4.96458 3.55633 4.72819 3.64267 4.45697L3.36328 4.37607ZM3.03435 4.99129C2.89746 5.15977 2.7353 5.29113 2.54744 5.38697L2.68515 5.63253C2.9106 5.51752 3.10406 5.36011 3.26514 5.16188L3.03435 4.99129ZM2.54981 5.3858C2.36489 5.47602 2.16198 5.52178 1.93867 5.52178V5.80026C2.20556 5.80026 2.45441 5.74516 2.68279 5.63371L2.54981 5.3858ZM1.93867 5.52178H1.60707V5.80026H1.93867V5.52178ZM2.22162 1.12306L2.13235 1.23324C2.13347 1.23406 2.13461 1.23487 2.13575 1.23567L2.22162 1.12306ZM2.06302 0.511128V0.371887C1.98239 0.371887 1.91703 0.434225 1.91703 0.511128H2.06302ZM2.38741 0.511128H2.5334C2.5334 0.434225 2.46804 0.371887 2.38741 0.371887V0.511128ZM2.45229 0.909912L2.34906 1.00837C2.35109 1.0103 2.35316 1.01217 2.35531 1.01398L2.45229 0.909912ZM4.47795 0.964912H4.62394C4.62394 0.888024 4.55858 0.825672 4.47795 0.825672V0.964912ZM4.47795 1.23308V1.37232C4.55858 1.37232 4.62394 1.30998 4.62394 1.23308H4.47795ZM2.63972 1.09383C2.48766 1.09383 2.3813 1.06166 2.30747 1.01046L2.13575 1.23567C2.2734 1.33114 2.44576 1.37232 2.63972 1.37232V1.09383ZM2.31087 1.01288C2.25103 0.968769 2.209 0.894401 2.209 0.758641H1.91703C1.91703 0.952924 1.98074 1.1215 2.13235 1.23324L2.31087 1.01288ZM2.209 0.758641V0.511128H1.91703V0.758641H2.209ZM2.06302 0.650368H2.38741V0.371887H2.06302V0.650368ZM2.24143 0.511128V0.71052H2.5334V0.511128H2.24143ZM2.24143 0.71052C2.24143 0.818668 2.2663 0.92942 2.34906 1.00837L2.55551 0.811455C2.55179 0.807891 2.5334 0.785724 2.5334 0.71052H2.24143ZM2.35531 1.01398C2.4408 1.08646 2.56511 1.10415 2.68297 1.10415V0.825672C2.63534 0.825672 2.60114 0.821648 2.57781 0.816078C2.55419 0.810453 2.54801 0.804772 2.54928 0.805844L2.35531 1.01398ZM2.68297 1.10415H4.47795V0.825672H2.68297V1.10415ZM4.33197 0.964912V1.23308H4.62394V0.964912H4.33197ZM4.47795 1.09383H2.63972V1.37232H4.47795V1.09383ZM5.40068 5.66102L5.26134 5.70255C5.28038 5.76067 5.33683 5.80026 5.40068 5.80026V5.66102ZM4.13915 1.81063V1.67139C4.0927 1.67139 4.04903 1.69246 4.02153 1.72816C3.99401 1.76385 3.98595 1.80988 3.99981 1.85217L4.13915 1.81063ZM4.46354 1.81063L4.60267 1.76844C4.5834 1.71064 4.52712 1.67139 4.46354 1.67139V1.81063ZM5.65299 5.37911L5.51387 5.4213C5.53312 5.4791 5.5894 5.51835 5.65299 5.51835V5.37911ZM6.28014 5.25536L6.34543 5.37989C6.34639 5.37943 6.34734 5.37897 6.34829 5.3785L6.28014 5.25536ZM6.7343 4.89094L6.6203 4.80395L6.61997 4.80434L6.7343 4.89094ZM7.05149 4.31338L6.91325 4.26856L6.91271 4.27016L7.05149 4.31338ZM7.08753 2.87636L6.9463 2.91163C6.94665 2.91293 6.94703 2.91419 6.94741 2.91548L7.08753 2.87636ZM6.85684 2.40194L6.73954 2.48482C6.74022 2.4857 6.74092 2.48656 6.74162 2.48742L6.85684 2.40194ZM6.51804 2.12692L6.45274 2.25145C6.4534 2.25176 6.45406 2.25206 6.4547 2.25237L6.51804 2.12692ZM5.85483 2.06502L5.88346 2.20156C5.88648 2.20099 5.88947 2.20032 5.89245 2.19957L5.85483 2.06502ZM5.65299 2.12004L5.50941 2.14525C5.51728 2.186 5.54375 2.22126 5.58162 2.24151C5.6195 2.26176 5.66486 2.26486 5.70538 2.24999L5.65299 2.12004ZM5.60252 1.85875L5.54134 1.73234C5.48079 1.759 5.44687 1.82142 5.45895 1.88398L5.60252 1.85875ZM5.84041 1.79L5.86905 1.92653C5.87077 1.92621 5.87251 1.92585 5.87423 1.92546L5.84041 1.79ZM6.68384 1.87251L6.62006 1.99776C6.62154 1.99845 6.62303 1.99911 6.62455 1.99975L6.68384 1.87251ZM7.12357 2.20942L7.00721 2.2935C7.0082 2.29476 7.00922 2.296 7.01027 2.29722L7.12357 2.20942ZM7.41192 2.76635L7.55229 2.7281L7.41192 2.76635ZM7.37588 4.45089L7.51438 4.49492L7.37588 4.45089ZM6.99381 5.11096L6.88378 5.01947C6.8833 5.01998 6.88283 5.0205 6.88238 5.02101L6.99381 5.11096ZM6.42432 5.52351L6.48362 5.65074L6.48495 5.65017L6.42432 5.52351ZM5.54001 5.61948L4.27848 1.7691L3.99981 1.85217L5.26134 5.70255L5.54001 5.61948ZM4.13915 1.94987H4.46354V1.67139H4.13915V1.94987ZM4.32442 1.85282L5.51387 5.4213L5.79211 5.33692L4.60267 1.76844L4.32442 1.85282ZM5.65299 5.51835H5.73949V5.23987H5.65299V5.51835ZM5.73949 5.51835C5.95032 5.51835 6.15283 5.47175 6.34543 5.37989L6.21486 5.13081C6.06144 5.20398 5.90352 5.23987 5.73949 5.23987V5.51835ZM6.34829 5.3785C6.54035 5.28181 6.70714 5.14746 6.84862 4.97753L6.61997 4.80434C6.50194 4.94612 6.36597 5.05471 6.21201 5.13221L6.34829 5.3785ZM6.84829 4.97792C6.99531 4.80264 7.10873 4.59474 7.19026 4.3566L6.91271 4.27016C6.84045 4.48124 6.74241 4.65838 6.6203 4.80395L6.84829 4.97792ZM7.1897 4.3582C7.27727 4.11254 7.32001 3.84272 7.32001 3.55018H7.02804C7.02804 3.81686 6.98909 4.05584 6.91327 4.26856L7.1897 4.3582ZM7.32001 3.55018C7.32001 3.27978 7.29026 3.04132 7.22763 2.83725L6.94741 2.91548C7.00014 3.08727 7.02804 3.29801 7.02804 3.55018H7.32001ZM7.22876 2.84108C7.17217 2.63505 7.08794 2.45853 6.97208 2.31645L6.74162 2.48742C6.8276 2.59287 6.89715 2.73263 6.9463 2.91163L7.22876 2.84108ZM6.97416 2.31905C6.86566 2.17937 6.73495 2.07199 6.58137 2.00146L6.4547 2.25237C6.56064 2.30101 6.65579 2.37698 6.73954 2.48482L6.97416 2.31905ZM6.58333 2.00236C6.43744 1.9328 6.28043 1.89828 6.11435 1.89828V2.17676C6.23661 2.17676 6.34873 2.20184 6.45274 2.25145L6.58333 2.00236ZM6.11435 1.89828C6.00487 1.89828 5.90502 1.90815 5.81721 1.93049L5.89245 2.19957C5.94881 2.18523 6.02198 2.17676 6.11435 2.17676V1.89828ZM5.8262 1.9285C5.74679 1.94365 5.67149 1.96406 5.60058 1.99007L5.70538 2.24999C5.75944 2.23016 5.8187 2.21393 5.88346 2.20156L5.8262 1.9285ZM5.79655 2.09481L5.7461 1.83354L5.45895 1.88398L5.50941 2.14525L5.79655 2.09481ZM5.6637 1.98518C5.71242 1.96374 5.77984 1.94355 5.86905 1.92653L5.81178 1.65347C5.70876 1.67312 5.61757 1.69878 5.54134 1.73234L5.6637 1.98518ZM5.87423 1.92546C5.96554 1.90472 6.05026 1.89486 6.12876 1.89486V1.61638C6.02464 1.61638 5.91712 1.62945 5.8066 1.65454L5.87423 1.92546ZM6.12876 1.89486C6.3103 1.89486 6.47327 1.92976 6.62006 1.99776L6.74762 1.74726C6.55798 1.65942 6.35092 1.61638 6.12876 1.61638V1.89486ZM6.62455 1.99975C6.77385 2.06305 6.90117 2.16 7.00721 2.2935L7.23994 2.12534C7.10568 1.9563 6.93984 1.82866 6.74312 1.74527L6.62455 1.99975ZM7.01027 2.29722C7.12022 2.4263 7.20845 2.59394 7.27156 2.8046L7.55229 2.7281C7.48083 2.48954 7.37683 2.28591 7.23687 2.12161L7.01027 2.29722ZM7.27156 2.8046C7.33425 3.01389 7.36686 3.26179 7.36686 3.55018H7.65883C7.65883 3.24266 7.62416 2.96801 7.55229 2.7281L7.27156 2.8046ZM7.36686 3.55018C7.36686 3.87775 7.32274 4.16264 7.23738 4.40687L7.51438 4.49492C7.61165 4.21661 7.65883 3.90102 7.65883 3.55018H7.36686ZM7.23738 4.40687C7.15121 4.65346 7.03261 4.85663 6.88378 5.01947L7.10385 5.20246C7.28181 5.00777 7.41792 4.77088 7.51438 4.49492L7.23738 4.40687ZM6.88238 5.02101C6.73753 5.18429 6.56499 5.30919 6.36369 5.39684L6.48495 5.65017C6.72579 5.5453 6.93292 5.39517 7.10525 5.2009L6.88238 5.02101ZM6.36503 5.39627C6.16846 5.47959 5.95572 5.52178 5.72508 5.52178V5.80026C5.99423 5.80026 6.24765 5.75077 6.48362 5.65074L6.36503 5.39627ZM5.72508 5.52178H5.40068V5.80026H5.72508V5.52178ZM11.3839 5.66102L11.2433 5.69836C11.2608 5.75859 11.3183 5.80026 11.3839 5.80026V5.66102ZM10.8721 3.90772L11.0127 3.87037C11.0123 3.86911 11.012 3.86785 11.0115 3.8666L10.8721 3.90772ZM10.5333 3.3439L10.4338 3.44582C10.4344 3.44636 10.435 3.44689 10.4356 3.4474L10.5333 3.3439ZM9.91331 3.13763L9.92098 2.99859C9.88426 2.99675 9.84819 3.00818 9.81992 3.03061L9.91331 3.13763ZM8.88245 3.95584L8.78908 3.84882C8.75573 3.87527 8.73646 3.91448 8.73646 3.95584H8.88245ZM8.88245 5.66102V5.80026C8.96308 5.80026 9.02844 5.73792 9.02844 5.66102H8.88245ZM8.54365 5.66102H8.39766C8.39766 5.73792 8.46302 5.80026 8.54365 5.80026V5.66102ZM8.54365 1.81063V1.67139C8.46302 1.67139 8.39766 1.73373 8.39766 1.81063H8.54365ZM8.88245 1.81063H9.02844C9.02844 1.73373 8.96308 1.67139 8.88245 1.67139V1.81063ZM8.88245 3.59143H8.73646C8.73646 3.64553 8.76933 3.69474 8.82073 3.71761C8.87211 3.74049 8.93276 3.7329 8.97623 3.69815L8.88245 3.59143ZM11.11 1.81063V1.67139C11.0757 1.67139 11.0425 1.68291 11.0162 1.70392L11.11 1.81063ZM11.5929 1.81063L11.6862 1.91778C11.7335 1.88031 11.7512 1.81855 11.7303 1.76336C11.7094 1.70816 11.6545 1.67139 11.5929 1.67139V1.81063ZM10.1945 2.91762L10.1012 2.81046C10.0574 2.84513 10.0387 2.9009 10.0534 2.95335C10.068 3.0058 10.1132 3.04539 10.1692 3.05476L10.1945 2.91762ZM10.8432 3.22015L10.7385 3.31713C10.739 3.31762 10.7395 3.31812 10.74 3.31861L10.8432 3.22015ZM11.2037 3.87334L11.0629 3.91015L11.0631 3.91098L11.2037 3.87334ZM11.7299 5.66102V5.80026C11.7756 5.80026 11.8187 5.77985 11.8463 5.74512C11.8739 5.71039 11.8828 5.66534 11.8705 5.62338L11.7299 5.66102ZM11.5245 5.62368L11.0127 3.87037L10.7314 3.94506L11.2433 5.69836L11.5245 5.62368ZM11.0115 3.8666C10.9252 3.60016 10.8013 3.38668 10.6309 3.24041L10.4356 3.4474C10.5536 3.54867 10.6555 3.71105 10.7326 3.94884L11.0115 3.8666ZM10.6327 3.24199C10.4593 3.08795 10.2144 3.01332 9.92098 2.99859L9.90563 3.27668C10.1601 3.28946 10.3285 3.35234 10.4338 3.44582L10.6327 3.24199ZM9.81992 3.03061L8.78908 3.84882L8.97584 4.06287L10.0067 3.24467L9.81992 3.03061ZM8.73646 3.95584V5.66102H9.02844V3.95584H8.73646ZM8.88245 5.52178H8.54365V5.80026H8.88245V5.52178ZM8.68963 5.66102V1.81063H8.39766V5.66102H8.68963ZM8.54365 1.94987H8.88245V1.67139H8.54365V1.94987ZM8.73646 1.81063V3.59143H9.02844V1.81063H8.73646ZM8.97623 3.69815L11.2037 1.91734L11.0162 1.70392L8.78867 3.48472L8.97623 3.69815ZM11.11 1.94987H11.5929V1.67139H11.11V1.94987ZM11.4997 1.70349L10.1012 2.81046L10.2877 3.02477L11.6862 1.91778L11.4997 1.70349ZM10.1692 3.05476C10.4197 3.09667 10.6057 3.18662 10.7385 3.31713L10.948 3.12317C10.7636 2.94199 10.5171 2.83023 10.2197 2.78047L10.1692 3.05476ZM10.74 3.31861C10.8752 3.44753 10.9855 3.64086 11.0629 3.91015L11.3445 3.83652C11.2585 3.53742 11.1285 3.2953 10.9465 3.12169L10.74 3.31861ZM11.0631 3.91098L11.5894 5.69866L11.8705 5.62338L11.3442 3.8357L11.0631 3.91098ZM11.7299 5.52178H11.3839V5.80026H11.7299V5.52178ZM12.4168 5.15222L12.4926 5.0332C12.4541 5.01092 12.407 5.00681 12.3649 5.02206C12.3229 5.03732 12.2905 5.07024 12.2773 5.11127L12.4168 5.15222ZM12.9142 5.35161L12.8732 5.48524L12.9142 5.35161ZM14.5722 5.03533L14.6838 5.12519L14.6846 5.12429L14.5722 5.03533ZM12.8998 2.14066L12.946 2.27277L12.9479 2.27213L12.8998 2.14066ZM12.388 2.36069L12.2481 2.40037C12.261 2.44197 12.2936 2.47542 12.3361 2.49085C12.3787 2.50626 12.4263 2.50188 12.465 2.47898L12.388 2.36069ZM12.3087 2.10628L12.2317 1.98798C12.1758 2.02109 12.15 2.08578 12.1688 2.14596L12.3087 2.10628ZM12.8566 1.87251L12.9036 2.00433C12.9045 2.00404 12.9054 2.00374 12.9062 2.00345L12.8566 1.87251ZM14.2911 1.89313L14.2295 2.01939L14.2307 2.0199L14.2911 1.89313ZM14.8245 2.28505L14.938 2.19736L14.8245 2.28505ZM15.1489 2.90386L15.0085 2.94178C15.0088 2.94256 15.0089 2.94334 15.0092 2.9441L15.1489 2.90386ZM14.8318 5.22098L14.7196 5.13184L14.7188 5.13271L14.8318 5.22098ZM12.8494 5.62664L12.8071 5.75992L12.808 5.76017L12.8494 5.62664ZM12.3303 5.42037L12.1908 5.37942C12.1709 5.44114 12.1981 5.50783 12.2565 5.54049L12.3303 5.42037ZM12.3411 5.27124C12.4892 5.35703 12.6675 5.42781 12.8732 5.48524L12.9552 5.21798C12.7669 5.16541 12.6136 5.10325 12.4926 5.0332L12.3411 5.27124ZM12.8732 5.48524C13.0854 5.54448 13.3156 5.57335 13.563 5.57335V5.29487C13.3394 5.29487 13.1372 5.26876 12.9552 5.21798L12.8732 5.48524ZM13.563 5.57335C14.0339 5.57335 14.415 5.42861 14.6838 5.12519L14.4607 4.94548C14.2585 5.17376 13.9668 5.29487 13.563 5.29487V5.57335ZM14.6846 5.12429C14.9527 4.8163 15.0715 4.33833 15.0715 3.72207H14.7796C14.7796 4.31593 14.6627 4.71347 14.4599 4.94637L14.6846 5.12429ZM15.0715 3.72207C15.0715 3.16168 14.9584 2.71078 14.7118 2.38859L14.476 2.55281C14.6715 2.80818 14.7796 3.19152 14.7796 3.72207H15.0715ZM14.7118 2.38859C14.4568 2.05554 14.0662 1.89828 13.5702 1.89828V2.17676C13.997 2.17676 14.2888 2.30829 14.476 2.55281L14.7118 2.38859ZM13.5702 1.89828C13.3152 1.89828 13.0753 1.93482 12.8517 2.00919L12.9479 2.27213C13.1376 2.209 13.3447 2.17676 13.5702 2.17676V1.89828ZM12.8536 2.00856C12.644 2.07522 12.4624 2.15274 12.311 2.24237L12.465 2.47898C12.5923 2.40361 12.7519 2.33445 12.946 2.27276L12.8536 2.00856ZM12.5279 2.321L12.4486 2.06661L12.1688 2.14596L12.2481 2.40037L12.5279 2.321ZM12.3857 2.22459C12.5125 2.14954 12.6839 2.07565 12.9036 2.00433L12.8095 1.7407C12.5774 1.81605 12.3837 1.898 12.2317 1.98798L12.3857 2.22459ZM12.9062 2.00345C13.1152 1.93134 13.3386 1.89486 13.5774 1.89486V1.61638C13.3068 1.61638 13.0496 1.65783 12.8069 1.74157L12.9062 2.00345ZM13.5774 1.89486C13.8291 1.89486 14.0454 1.93767 14.2295 2.01939L14.3527 1.76688C14.1236 1.66525 13.864 1.61638 13.5774 1.61638V1.89486ZM14.2307 2.0199C14.4219 2.10279 14.5814 2.22016 14.7112 2.37274L14.938 2.19736C14.7793 2.01075 14.5833 1.86684 14.3515 1.76638L14.2307 2.0199ZM14.7112 2.37274C14.841 2.52556 14.941 2.71419 15.0085 2.94178L15.2895 2.86595C15.2128 2.60766 15.0963 2.38374 14.938 2.19736L14.7112 2.37274ZM15.0092 2.9441C15.0813 3.17178 15.1182 3.43064 15.1182 3.72207H15.4102C15.4102 3.40844 15.3704 3.12184 15.2888 2.86362L15.0092 2.9441ZM15.1182 3.72207C15.1182 4.37597 14.9768 4.83747 14.7196 5.13184L14.9439 5.31012C15.2634 4.94442 15.4102 4.40664 15.4102 3.72207H15.1182ZM14.7188 5.13271C14.4687 5.42386 14.1034 5.57678 13.5991 5.57678V5.85526C14.1712 5.85526 14.6277 5.67815 14.9447 5.30923L14.7188 5.13271ZM13.5991 5.57678C13.3207 5.57678 13.0854 5.54796 12.8907 5.49311L12.808 5.76017C13.0363 5.8245 13.3008 5.85526 13.5991 5.85526V5.57678ZM12.8916 5.49336C12.6925 5.43595 12.5309 5.37111 12.4041 5.30025L12.2565 5.54049C12.4085 5.62547 12.5929 5.69814 12.8071 5.75992L12.8916 5.49336ZM12.4699 5.46132L12.5564 5.19317L12.2773 5.11127L12.1908 5.37942L12.4699 5.46132ZM13.8514 1.12306L13.7621 1.23324C13.7632 1.23406 13.7644 1.23487 13.7655 1.23567L13.8514 1.12306ZM13.6928 0.511128V0.371887C13.6122 0.371887 13.5468 0.434225 13.5468 0.511128H13.6928ZM14.0172 0.511128H14.1632C14.1632 0.434225 14.0978 0.371887 14.0172 0.371887V0.511128ZM14.0821 0.909912L13.9788 1.00837C13.9808 1.0103 13.9829 1.01217 13.9851 1.01398L14.0821 0.909912ZM16.1077 0.964912H16.2537C16.2537 0.888024 16.1883 0.825672 16.1077 0.825672V0.964912ZM16.1077 1.23308V1.37232C16.1883 1.37232 16.2537 1.30998 16.2537 1.23308H16.1077ZM14.2695 1.09383C14.1174 1.09383 14.011 1.06166 13.9372 1.01046L13.7655 1.23567C13.9032 1.33114 14.0755 1.37232 14.2695 1.37232V1.09383ZM13.9406 1.01288C13.8808 0.968769 13.8388 0.894401 13.8388 0.758641H13.5468C13.5468 0.952924 13.6105 1.1215 13.7621 1.23324L13.9406 1.01288ZM13.8388 0.758641V0.511128H13.5468V0.758641H13.8388ZM13.6928 0.650368H14.0172V0.371887H13.6928V0.650368ZM13.8712 0.511128V0.71052H14.1632V0.511128H13.8712ZM13.8712 0.71052C13.8712 0.818668 13.8961 0.92942 13.9788 1.00837L14.1853 0.811455C14.1815 0.807891 14.1632 0.785724 14.1632 0.71052H13.8712ZM13.9851 1.01398C14.0706 1.08646 14.1949 1.10415 14.3127 1.10415V0.825672C14.2651 0.825672 14.2309 0.821648 14.2076 0.816078C14.1839 0.810453 14.1778 0.804772 14.179 0.805844L13.9851 1.01398ZM14.3127 1.10415H16.1077V0.825672H14.3127V1.10415ZM15.9618 0.964912V1.23308H16.2537V0.964912H15.9618ZM16.1077 1.09383H14.2695V1.37232H16.1077V1.09383ZM19.1066 5.66102H18.9606C18.9606 5.73792 19.026 5.80026 19.1066 5.80026V5.66102ZM18.8038 2.38819L18.6911 2.4767L18.692 2.47775L18.8038 2.38819ZM17.2107 2.18192L17.2772 2.30583L17.2785 2.3052L17.2107 2.18192ZM16.742 2.56696L16.6238 2.48543L16.6234 2.48602L16.742 2.56696ZM16.4682 3.13076L16.3274 3.09365C16.3273 3.0943 16.327 3.09496 16.3269 3.09561L16.4682 3.13076ZM16.4826 4.54027L16.3432 4.58164C16.3435 4.58284 16.3439 4.58402 16.3444 4.58521L16.4826 4.54027ZM16.7636 5.04221L16.8762 4.95343L16.7636 5.04221ZM17.1601 5.33786L17.1001 5.46477L17.1017 5.46543L17.1601 5.33786ZM17.8739 5.41349L17.8453 5.27694L17.8432 5.27734L17.8739 5.41349ZM18.0829 5.35849L18.225 5.32659C18.2155 5.28801 18.1892 5.25513 18.1527 5.23618C18.1162 5.21723 18.073 5.21403 18.0339 5.22736L18.0829 5.35849ZM18.1406 5.59226L18.2076 5.71599C18.267 5.6867 18.298 5.62255 18.2826 5.56036L18.1406 5.59226ZM17.0304 5.59226L16.9737 5.7206L16.975 5.72109L17.0304 5.59226ZM16.533 5.25536L16.4235 5.34748C16.4245 5.34856 16.4255 5.34964 16.4266 5.35068L16.533 5.25536ZM16.1799 4.66404L16.0423 4.71104L16.0426 4.71183L16.1799 4.66404ZM16.1582 3.01388L16.019 2.97206C16.0187 2.97282 16.0184 2.97357 16.0182 2.97432L16.1582 3.01388ZM16.5114 2.36756L16.6254 2.45455L16.6264 2.45323L16.5114 2.36756ZM17.0809 1.92064L17.0156 1.79609L17.0145 1.79664L17.0809 1.92064ZM19.0561 2.21629L18.946 2.30775C18.9466 2.30832 18.947 2.30888 18.9476 2.30945L19.0561 2.21629ZM19.3444 2.71135L19.205 2.75252C19.2054 2.75379 19.2058 2.75507 19.2063 2.75634L19.3444 2.71135ZM19.4454 5.66102V5.80026C19.526 5.80026 19.5914 5.73792 19.5914 5.66102H19.4454ZM19.2526 5.66102V3.30265H18.9606V5.66102H19.2526ZM19.2526 3.30265C19.2526 2.89853 19.145 2.55909 18.9156 2.29863L18.692 2.47775C18.8663 2.67568 18.9606 2.94587 18.9606 3.30265H19.2526ZM18.9165 2.29967C18.679 2.02464 18.3238 1.89828 17.881 1.89828V2.17676C18.265 2.17676 18.5248 2.28419 18.6911 2.4767L18.9165 2.29967ZM17.881 1.89828C17.6069 1.89828 17.3593 1.95022 17.1428 2.05863L17.2785 2.3052C17.4464 2.2211 17.6458 2.17676 17.881 2.17676V1.89828ZM17.1441 2.05802C16.9358 2.15986 16.762 2.30283 16.6238 2.48543L16.8604 2.64848C16.9721 2.50104 17.1107 2.38732 17.2772 2.30581L17.1441 2.05802ZM16.6234 2.48602C16.492 2.66138 16.3939 2.86457 16.3274 3.09365L16.6089 3.16788C16.6674 2.96608 16.752 2.7934 16.8609 2.64788L16.6234 2.48602ZM16.3269 3.09561C16.2658 3.31897 16.2356 3.55547 16.2356 3.80458H16.5276C16.5276 3.57698 16.5552 3.36428 16.6093 3.16591L16.3269 3.09561ZM16.2356 3.80458C16.2356 4.09864 16.2704 4.35852 16.3432 4.58164L16.6219 4.49892C16.5601 4.3095 16.5276 4.0789 16.5276 3.80458H16.2356ZM16.3444 4.58521C16.4209 4.79925 16.5223 4.98239 16.6512 5.13099L16.8762 4.95343C16.7745 4.83616 16.6885 4.68468 16.6207 4.49535L16.3444 4.58521ZM16.6512 5.13099C16.7793 5.2785 16.9288 5.39095 17.1001 5.46476L17.2203 5.21097C17.0937 5.15641 16.9788 5.07178 16.8762 4.95343L16.6512 5.13099ZM17.1017 5.46543C17.2728 5.53684 17.4489 5.57335 17.6288 5.57335V5.29487C17.4915 5.29487 17.3552 5.26722 17.2187 5.2103L17.1017 5.46543ZM17.6288 5.57335C17.7314 5.57335 17.8241 5.56607 17.9044 5.54964L17.8432 5.27734C17.789 5.28841 17.7182 5.29487 17.6288 5.29487V5.57335ZM17.9025 5.55003C17.9813 5.53499 18.0578 5.51487 18.132 5.48961L18.0339 5.22736C17.9734 5.24793 17.9105 5.26449 17.8453 5.27695L17.9025 5.55003ZM17.9409 5.39038L17.9985 5.62415L18.2826 5.56036L18.225 5.32659L17.9409 5.39038ZM18.0736 5.46853C17.9501 5.52937 17.794 5.56304 17.6 5.56304V5.84152C17.8288 5.84152 18.0331 5.80183 18.2076 5.71599L18.0736 5.46853ZM17.6 5.56304C17.4277 5.56304 17.2566 5.53027 17.0858 5.46344L16.975 5.72109C17.1791 5.80093 17.3877 5.84152 17.6 5.84152V5.56304ZM17.0872 5.46394C16.9251 5.39886 16.7758 5.29849 16.6394 5.16002L16.4266 5.35068C16.5882 5.51475 16.7705 5.63898 16.9737 5.72059L17.0872 5.46394ZM16.6425 5.16322C16.5127 5.02291 16.4034 4.84181 16.3169 4.61626L16.0426 4.71183C16.1388 4.96298 16.265 5.1761 16.4235 5.34748L16.6425 5.16322ZM16.3172 4.61705C16.233 4.39291 16.1888 4.12081 16.1888 3.7977H15.8968C15.8968 4.14384 15.9439 4.44929 16.0423 4.71102L16.3172 4.61705ZM16.1888 3.7977C16.1888 3.53519 16.2255 3.2873 16.2981 3.05344L16.0182 2.97432C15.9371 3.23549 15.8968 3.51016 15.8968 3.7977H16.1888ZM16.2974 3.05569C16.3743 2.82285 16.4839 2.62311 16.6254 2.45455L16.3974 2.28058C16.2312 2.47871 16.1055 2.70985 16.019 2.97206L16.2974 3.05569ZM16.6264 2.45323C16.767 2.28156 16.9401 2.14556 17.1473 2.04465L17.0145 1.79664C16.7699 1.91574 16.5634 2.07769 16.3963 2.28189L16.6264 2.45323ZM17.1461 2.04518C17.3537 1.94624 17.595 1.89486 17.8739 1.89486V1.61638C17.5568 1.61638 17.2695 1.67502 17.0156 1.79609L17.1461 2.04518ZM17.8739 1.89486C18.1225 1.89486 18.3324 1.93368 18.5072 2.00688L18.6245 1.75189C18.4054 1.66008 18.1539 1.61638 17.8739 1.61638V1.89486ZM18.5072 2.00688C18.6863 2.08189 18.8317 2.18247 18.946 2.30775L19.1661 2.12484C19.021 1.96593 18.8396 1.8419 18.6245 1.75189L18.5072 2.00688ZM18.9476 2.30945C19.062 2.43067 19.1482 2.57751 19.205 2.75252L19.4839 2.67018C19.4158 2.46015 19.3098 2.27695 19.1647 2.12314L18.9476 2.30945ZM19.2063 2.75634C19.268 2.92891 19.2994 3.11303 19.2994 3.30953H19.5914C19.5914 3.08432 19.5553 2.86964 19.4826 2.66635L19.2063 2.75634ZM19.2994 3.30953V5.66102H19.5914V3.30953H19.2994ZM19.4454 5.52178H19.1066V5.80026H19.4454V5.52178Z" fill="#383838"/>
</svg>
