<svg width="24" height="24" viewBox="0 0 24 24" fill="none" xmlns="http://www.w3.org/2000/svg">
<path d="M3.37334 13.4078L3.33286 14.4737C3.30138 15.2383 3.56674 15.8995 3.90857 15.8995H8.19043C8.50528 15.8995 8.76614 15.3103 8.76614 14.5862V9.56218C8.76614 8.83805 8.50528 8.24884 8.19043 8.24884H6.0495C5.77514 8.24884 5.19493 8.87853 5.13646 9.48122L4.79013 11.3883C4.75415 11.7661 3.83211 12.1799 3.67919 12.3598C3.50378 12.5667 3.39133 12.9625 3.37334 13.4078Z" stroke="#383838" stroke-width="0.5" stroke-miterlimit="10"/>
<path d="M6.84549 17.06C7.53357 17.06 8.09136 16.5022 8.09136 15.8141C8.09136 15.126 7.53357 14.5682 6.84549 14.5682C6.15741 14.5682 5.59961 15.126 5.59961 15.8141C5.59961 16.5022 6.15741 17.06 6.84549 17.06Z" fill="#EDEDED" stroke="#383838" stroke-width="0.5" stroke-miterlimit="10"/>
<path d="M19.1831 8.24884H11.2175C10.4475 8.24884 9.82324 8.87309 9.82324 9.64314V14.4171C9.82324 15.1871 10.4475 15.8114 11.2175 15.8114H19.1831C19.9531 15.8114 20.5774 15.1871 20.5774 14.4171V9.64314C20.5774 8.87309 19.9531 8.24884 19.1831 8.24884Z" stroke="#383838" stroke-width="0.5" stroke-miterlimit="10"/>
<path d="M11.73 17.06C12.4181 17.06 12.9759 16.5022 12.9759 15.8141C12.9759 15.126 12.4181 14.5682 11.73 14.5682C11.0419 14.5682 10.4841 15.126 10.4841 15.8141C10.4841 16.5022 11.0419 17.06 11.73 17.06Z" fill="#EDEDED" stroke="#383838" stroke-width="0.5" stroke-miterlimit="10"/>
<path d="M18.5623 17.06C19.2504 17.06 19.8082 16.5022 19.8082 15.8141C19.8082 15.126 19.2504 14.5682 18.5623 14.5682C17.8742 14.5682 17.3164 15.126 17.3164 15.8141C17.3164 16.5022 17.8742 17.06 18.5623 17.06Z" fill="#EDEDED" stroke="#383838" stroke-width="0.5" stroke-miterlimit="10"/>
<path d="M8.76611 13.97H9.67916" stroke="#383838" stroke-width="0.5" stroke-miterlimit="10"/>
<path d="M8.83813 14.8156H9.75118" stroke="#383838" stroke-width="0.5" stroke-miterlimit="10"/>
</svg>
