<svg width="24" height="24" viewBox="0 0 24 24" fill="none" xmlns="http://www.w3.org/2000/svg">
<path d="M5.04208 12.4363C4.76771 13.1694 4.75422 13.6732 4.77221 13.8576C4.70025 14.4918 5.36142 15.036 6.2025 15.036H16.8622C17.6538 15.036 18.297 14.5502 18.297 13.952V9.80961C18.297 9.2114 17.6538 8.72565 16.8622 8.72565H7.56982C6.95812 8.72565 6.42289 9.018 6.22049 9.44079C6.15752 9.57122 6.09905 9.69716 6.02709 9.8186L5.98661 9.91755L5.04208 12.4363Z" stroke="#383838" stroke-width="0.5" stroke-miterlimit="10"/>
<path d="M8.28055 16.1964C8.96862 16.1964 9.52642 15.6386 9.52642 14.9505C9.52642 14.2624 8.96862 13.7047 8.28055 13.7047C7.59247 13.7047 7.03467 14.2624 7.03467 14.9505C7.03467 15.6386 7.59247 16.1964 8.28055 16.1964Z" fill="#EDEDED" stroke="#383838" stroke-width="0.5" stroke-miterlimit="10"/>
<path d="M15.6431 16.1964C16.3312 16.1964 16.889 15.6386 16.889 14.9505C16.889 14.2624 16.3312 13.7047 15.6431 13.7047C14.955 13.7047 14.3972 14.2624 14.3972 14.9505C14.3972 15.6386 14.955 16.1964 15.6431 16.1964Z" fill="#EDEDED" stroke="#383838" stroke-width="0.5" stroke-miterlimit="10"/>
<path d="M7.51126 10.0075H5.93255L5.04199 12.4363H7.51126V10.0075Z" stroke="#383838" stroke-width="0.5" stroke-miterlimit="10"/>
</svg>
