<svg width="24" height="24" viewBox="0 0 24 24" fill="none" xmlns="http://www.w3.org/2000/svg">
<circle cx="12" cy="12" r="12" fill="#212121"/>
<mask id="mask0" mask-type="alpha" maskUnits="userSpaceOnUse" x="3" y="7" width="18" height="10">
<g clip-path="url(#clip0)">
<path d="M6.01775 12.4667C5.94069 12.4163 5.87733 12.3472 5.83346 12.2657C5.78959 12.1842 5.7666 12.0928 5.7666 12C5.7666 11.9072 5.78959 11.8158 5.83346 11.7343C5.87733 11.6528 5.94069 11.5837 6.01775 11.5333L12.109 7.55333C12.1919 7.49915 12.2877 7.46859 12.3864 7.46486C12.485 7.46113 12.5828 7.48437 12.6695 7.53213C12.7561 7.57989 12.8285 7.65041 12.8789 7.73626C12.9293 7.82211 12.9559 7.92013 12.9559 8.02V15.98C12.9559 16.0799 12.9293 16.1779 12.8789 16.2637C12.8285 16.3496 12.7561 16.4201 12.6695 16.4679C12.5828 16.5156 12.485 16.5389 12.3864 16.5351C12.2877 16.5314 12.1919 16.5008 12.109 16.4467L6.01775 12.4667Z" fill="white"/>
<path d="M13.3952 12.4667C13.3181 12.4163 13.2548 12.3472 13.2109 12.2657C13.167 12.1842 13.144 12.0928 13.144 12C13.144 11.9072 13.167 11.8158 13.2109 11.7343C13.2548 11.6528 13.3181 11.5837 13.3952 11.5333L19.4864 7.55333C19.5694 7.49915 19.6652 7.46859 19.7638 7.46486C19.8624 7.46113 19.9602 7.48437 20.0469 7.53213C20.1336 7.57989 20.2059 7.65041 20.2563 7.73626C20.3068 7.82211 20.3334 7.92013 20.3334 8.02V15.98C20.3334 16.0799 20.3068 16.1779 20.2563 16.2637C20.2059 16.3496 20.1336 16.4201 20.0469 16.4679C19.9602 16.5156 19.8624 16.5389 19.7638 16.5351C19.6652 16.5314 19.5694 16.5008 19.4864 16.4467L13.3952 12.4667Z" fill="white"/>
<path d="M3.66655 15.8889C3.66655 16.3491 4.03528 16.7222 4.49013 16.7222C4.94499 16.7222 5.31372 16.3491 5.31372 15.8889L5.31372 8.11112C5.31372 7.65088 4.94499 7.27778 4.49013 7.27778C4.03528 7.27778 3.66655 7.65088 3.66655 8.11112L3.66655 15.8889Z" fill="white"/>
</g>
</mask>
<g mask="url(#mask0)">
<rect x="2" y="2" width="20" height="20" fill="#F0F0F0"/>
</g>
<defs>
<clipPath id="clip0">
<rect width="16.6667" height="10" fill="white" transform="translate(20.3333 17) rotate(-180)"/>
</clipPath>
</defs>
</svg>
