<svg width="24" height="24" viewBox="0 0 24 24" fill="none" xmlns="http://www.w3.org/2000/svg">
<circle cx="12" cy="12" r="12" fill="#212121"/>
<mask id="mask0" mask-type="alpha" maskUnits="userSpaceOnUse" x="2" y="2" width="20" height="20">
<path d="M9.7725 12.4941C9.68889 12.4408 9.62014 12.3676 9.57254 12.2813C9.52494 12.195 9.5 12.0983 9.5 12C9.5 11.9017 9.52494 11.805 9.57254 11.7187C9.62014 11.6324 9.68889 11.5592 9.7725 11.5059L16.3817 7.29175C16.4717 7.23439 16.5756 7.20203 16.6826 7.19808C16.7896 7.19413 16.8958 7.21873 16.9898 7.2693C17.0838 7.31987 17.1624 7.39454 17.2171 7.48544C17.2717 7.57635 17.3006 7.68013 17.3006 7.78587V16.2141C17.3006 16.3198 17.2717 16.4236 17.2171 16.5145C17.1624 16.6054 17.0838 16.6801 16.9898 16.7307C16.8958 16.7812 16.7896 16.8058 16.6826 16.8019C16.5756 16.7979 16.4717 16.7656 16.3817 16.7082L9.7725 12.4941Z" fill="white"/>
<path d="M4.7725 12.4941C4.68889 12.4408 4.62014 12.3676 4.57254 12.2813C4.52494 12.195 4.5 12.0983 4.5 12C4.5 11.9017 4.52494 11.805 4.57254 11.7187C4.62014 11.6324 4.68889 11.5592 4.7725 11.5059L11.3817 7.29175C11.4717 7.23439 11.5756 7.20203 11.6826 7.19808C11.7896 7.19413 11.8958 7.21873 11.9898 7.2693C12.0839 7.31987 12.1624 7.39454 12.2171 7.48544C12.2718 7.57635 12.3006 7.68013 12.3006 7.78587V16.2141C12.3006 16.3198 12.2718 16.4236 12.2171 16.5145C12.1624 16.6054 12.0839 16.6801 11.9898 16.7307C11.8958 16.7812 11.7896 16.8058 11.6826 16.8019C11.5756 16.7979 11.4717 16.7656 11.3817 16.7082L4.7725 12.4941Z" fill="white"/>
</mask>
<g mask="url(#mask0)">
<rect x="2" y="2" width="20" height="20" fill="#F0F0F0"/>
</g>
</svg>
