<svg width="200" height="200" viewBox="0 0 200 200" fill="none" xmlns="http://www.w3.org/2000/svg">
<path d="M100 200C155.228 200 200 155.228 200 100C200 44.7715 155.228 0 100 0C44.7715 0 0 44.7715 0 100C0 155.228 44.7715 200 100 200Z" fill="#383838"/>
<path d="M48.1934 97.4424C71.797 97.4424 91.9411 112.527 99.5 133.56C107.059 112.526 127.203 97.4424 150.807 97.4424C152.57 97.4424 154 98.8722 154 100.636C151.003 172.944 47.9796 172.91 45 100.635C45 98.8722 46.4298 97.4424 48.1934 97.4424ZM147.501 103.942C123.599 105.571 104.435 124.735 102.806 148.637C126.708 147.007 145.872 127.843 147.501 103.942ZM96.1942 148.637C94.565 124.735 75.401 105.571 51.4991 103.942C53.1284 127.843 72.2924 147.007 96.1942 148.637Z" fill="#F0F0F0"/>
<path d="M113.848 86.2932C115.095 87.5403 115.095 89.5621 113.848 90.8092C112.601 92.0563 110.579 92.0563 109.332 90.8092C103.902 85.3794 95.0983 85.3794 89.6685 90.8092C88.4214 92.0563 86.3995 92.0563 85.1524 90.8092C83.9053 89.5621 83.9053 87.5403 85.1524 86.2932C93.0762 78.3692 105.924 78.3692 113.848 86.2932Z" fill="#F0F0F0"/>
<path d="M73.0594 78.7162C71.8123 77.4691 71.8123 75.4473 73.0594 74.2002C87.6622 59.5973 111.338 59.5973 125.941 74.2002C127.188 75.4473 127.188 77.4691 125.941 78.7162C124.694 79.9633 122.672 79.9633 121.425 78.7162C109.316 66.6076 89.6842 66.6076 77.5756 78.7162C76.3283 79.9633 74.3063 79.9633 73.0594 78.7162Z" fill="#F0F0F0"/>
<path d="M133.518 66.6231C114.73 47.8357 84.2698 47.8357 65.4824 66.6231C64.2353 67.8702 62.2134 67.8702 60.9663 66.6231C59.7192 65.376 59.7192 63.3542 60.9663 62.1071C82.2479 40.8255 116.752 40.8255 138.034 62.1071C139.281 63.3542 139.281 65.376 138.034 66.6231C136.787 67.8702 134.765 67.8702 133.518 66.6231Z" fill="#F0F0F0"/>
</svg>
