<svg width="24" height="24" viewBox="0 0 24 24" fill="none" xmlns="http://www.w3.org/2000/svg">
<circle cx="12" cy="12" r="12" fill="#212121"/>
<mask id="mask0" mask-type="alpha" maskUnits="userSpaceOnUse" x="2" y="2" width="20" height="20">
<path d="M13.3942 11.5059C13.4779 11.5592 13.5466 11.6324 13.5942 11.7187C13.6418 11.805 13.6667 11.9017 13.6667 12C13.6667 12.0983 13.6418 12.195 13.5942 12.2813C13.5466 12.3676 13.4779 12.4408 13.3942 12.4941L6.78506 16.7082C6.6951 16.7656 6.59114 16.798 6.48412 16.8019C6.37711 16.8059 6.271 16.7813 6.17695 16.7307C6.0829 16.6801 6.0044 16.6055 5.9497 16.5146C5.895 16.4237 5.86613 16.3199 5.86612 16.2141L5.86612 7.7859C5.86613 7.68016 5.895 7.57637 5.9497 7.48547C6.0044 7.39456 6.0829 7.3199 6.17695 7.26933C6.271 7.21876 6.37711 7.19415 6.48412 7.1981C6.59114 7.20205 6.6951 7.23441 6.78506 7.29178L13.3942 11.5059Z" fill="white"/>
<path d="M18.3942 11.5059C18.4779 11.5592 18.5466 11.6324 18.5942 11.7187C18.6418 11.805 18.6667 11.9017 18.6667 12C18.6667 12.0983 18.6418 12.195 18.5942 12.2813C18.5466 12.3676 18.4779 12.4408 18.3942 12.4941L11.7851 16.7082C11.6951 16.7656 11.5911 16.798 11.4841 16.8019C11.3771 16.8059 11.271 16.7813 11.1769 16.7307C11.0829 16.6801 11.0044 16.6055 10.9497 16.5146C10.895 16.4237 10.8661 16.3199 10.8661 16.2141L10.8661 7.7859C10.8661 7.68016 10.895 7.57637 10.9497 7.48547C11.0044 7.39456 11.0829 7.3199 11.1769 7.26933C11.271 7.21876 11.3771 7.19415 11.4841 7.1981C11.5911 7.20205 11.6951 7.23441 11.7851 7.29178L18.3942 11.5059Z" fill="white"/>
</mask>
<g mask="url(#mask0)">
<rect x="2" y="2" width="20" height="20" fill="#F0F0F0"/>
</g>
</svg>
