<svg width="24" height="24" viewBox="0 0 24 24" fill="none" xmlns="http://www.w3.org/2000/svg">
<circle cx="12" cy="12" r="12" fill="#212121"/>
<mask id="mask0" mask-type="alpha" maskUnits="userSpaceOnUse" x="3" y="7" width="18" height="10">
<g clip-path="url(#clip0)">
<path d="M17.9823 11.5333C18.0593 11.5837 18.1227 11.6528 18.1665 11.7343C18.2104 11.8158 18.2334 11.9072 18.2334 12C18.2334 12.0928 18.2104 12.1842 18.1665 12.2657C18.1227 12.3472 18.0593 12.4163 17.9823 12.4667L11.891 16.4467C11.8081 16.5008 11.7123 16.5314 11.6136 16.5351C11.515 16.5389 11.4172 16.5156 11.3305 16.4679C11.2439 16.4201 11.1715 16.3496 11.1211 16.2637C11.0707 16.1779 11.0441 16.0799 11.0441 15.98V8.02C11.0441 7.92014 11.0707 7.82212 11.1211 7.73627C11.1715 7.65041 11.2439 7.57989 11.3305 7.53213C11.4172 7.48437 11.515 7.46113 11.6136 7.46487C11.7123 7.4686 11.8081 7.49916 11.891 7.55334L17.9823 11.5333Z" fill="white"/>
<path d="M10.6048 11.5333C10.6819 11.5837 10.7452 11.6528 10.7891 11.7343C10.833 11.8158 10.856 11.9072 10.856 12C10.856 12.0928 10.833 12.1842 10.7891 12.2657C10.7452 12.3472 10.6819 12.4163 10.6048 12.4667L4.51356 16.4467C4.43065 16.5008 4.33484 16.5314 4.23621 16.5351C4.13758 16.5389 4.03978 16.5156 3.9531 16.4679C3.86643 16.4201 3.79407 16.3496 3.74366 16.2637C3.69325 16.1779 3.66664 16.0799 3.66663 15.98L3.66663 8.02C3.66664 7.92014 3.69325 7.82212 3.74366 7.73627C3.79407 7.65041 3.86643 7.57989 3.9531 7.53213C4.03978 7.48437 4.13758 7.46113 4.23621 7.46487C4.33484 7.4686 4.43065 7.49916 4.51356 7.55334L10.6048 11.5333Z" fill="white"/>
<path d="M20.3335 8.1111C20.3335 7.65087 19.9647 7.27777 19.5099 7.27777C19.055 7.27777 18.6863 7.65087 18.6863 8.1111V15.8889C18.6863 16.3491 19.055 16.7222 19.5099 16.7222C19.9647 16.7222 20.3335 16.3491 20.3335 15.8889V8.1111Z" fill="white"/>
</g>
</mask>
<g mask="url(#mask0)">
<rect x="2" y="2" width="20" height="20" fill="#F0F0F0"/>
</g>
<defs>
<clipPath id="clip0">
<rect width="16.6667" height="10" fill="white" transform="translate(3.66675 7)"/>
</clipPath>
</defs>
</svg>
