<svg width="200" height="200" viewBox="0 0 200 200" fill="none" xmlns="http://www.w3.org/2000/svg">
<path d="M100 200C155.228 200 200 155.228 200 100C200 44.7715 155.228 0 100 0C44.7715 0 0 44.7715 0 100C0 155.228 44.7715 200 100 200Z" fill="#383838"/>
<g clip-path="url(#clip0)">
<path d="M54.3394 50.5978C54.0607 50.0404 53.782 49.7617 53.5033 49.2043C50.7164 46.9748 45.6999 46.1387 41.7982 45.86C41.5195 45.86 41.5195 45.86 41.2408 45.86H40.9622H40.4048C40.1261 45.86 40.1261 45.86 39.8474 45.86C35.9457 46.1387 30.9292 46.6961 28.1423 49.2043C27.8636 49.483 27.3062 50.0404 27.3062 50.5978L18.1093 80.6966C17.8306 81.5327 18.1093 82.3688 18.6667 83.2049C19.2241 84.041 20.0602 84.3196 20.8963 84.3196H26.7488V90.7296C25.0767 91.5657 23.9619 93.5165 23.9619 95.4674C23.9619 98.533 26.4701 101.041 29.5357 101.041C32.6014 101.041 35.1096 98.533 35.1096 95.4674C35.1096 93.5165 33.9948 91.5657 32.3227 90.7296V84.3196H37.8965V142.566H27.0275C25.3553 142.566 24.2406 143.681 24.2406 145.353C24.2406 147.026 25.3553 148.14 27.0275 148.14H54.0607C55.7329 148.14 56.8476 147.026 56.8476 145.353C56.8476 143.681 55.7329 142.566 54.0607 142.566H43.1917V84.3196H60.4707V84.041C61.3067 84.041 62.1428 83.7623 62.7002 82.9262C63.2576 82.0901 63.2576 81.254 63.2576 80.4179L54.3394 50.5978ZM24.5193 78.4668L32.044 53.3844C33.4374 52.5483 36.7818 51.9909 40.1261 51.9909H40.4048H40.6835H40.9622C44.5852 51.9909 47.6508 52.827 49.0442 53.3844L56.569 78.4668H24.5193Z" fill="#E4E4E4"/>
<path d="M176.128 111.91H174.735V97.1392C174.735 88.221 169.44 82.6471 160.243 82.6471H135.439C130.144 82.6471 126.242 84.598 123.734 87.6636C121.226 84.3193 117.324 82.6471 112.029 82.6471H87.2252C78.3071 82.6471 72.7332 87.9423 72.7332 97.1392V111.91H71.3397C67.9954 111.91 65.2085 114.697 65.2085 118.041V133.369C65.2085 136.714 67.9954 139.501 71.3397 139.501H72.7332V145.074C72.7332 146.747 73.848 147.861 75.5201 147.861C77.1923 147.861 78.3071 146.747 78.3071 145.074V139.501H168.882V145.074C168.882 146.747 169.997 147.861 171.669 147.861C173.341 147.861 174.456 146.747 174.456 145.074V139.501H175.85C179.194 139.501 181.981 136.714 181.981 133.369V118.041C182.26 114.697 179.473 111.91 176.128 111.91ZM126.521 97.1395C126.521 91.0083 129.587 88.2213 135.439 88.2213H160.243C166.095 88.2213 169.161 91.0083 169.161 97.1395V111.91H126.521V97.1395ZM78.3071 97.1395C78.3071 91.287 81.094 88.2213 87.2252 88.2213H112.029C117.881 88.2213 120.947 91.0083 120.947 97.1395V111.91H78.3071V97.1395ZM176.686 133.37C176.686 133.648 176.407 133.927 176.128 133.927H71.6184C71.3397 133.927 71.061 133.648 71.061 133.37V118.041C71.061 117.763 71.3397 117.484 71.6184 117.484H176.128C176.407 117.484 176.686 117.763 176.686 118.041V133.37Z" fill="#E4E4E4"/>
<path d="M88.8975 103.271C90.4367 103.271 91.6845 102.023 91.6845 100.484C91.6845 98.9447 90.4367 97.6969 88.8975 97.6969C87.3583 97.6969 86.1106 98.9447 86.1106 100.484C86.1106 102.023 87.3583 103.271 88.8975 103.271Z" fill="#E4E4E4"/>
<path d="M110.635 103.271C112.175 103.271 113.422 102.023 113.422 100.484C113.422 98.9447 112.175 97.6969 110.635 97.6969C109.096 97.6969 107.848 98.9447 107.848 100.484C107.848 102.023 109.096 103.271 110.635 103.271Z" fill="#E4E4E4"/>
<path d="M136.833 103.271C138.372 103.271 139.62 102.023 139.62 100.484C139.62 98.9447 138.372 97.6969 136.833 97.6969C135.293 97.6969 134.046 98.9447 134.046 100.484C134.046 102.023 135.293 103.271 136.833 103.271Z" fill="#E4E4E4"/>
<path d="M158.849 103.271C160.389 103.271 161.636 102.023 161.636 100.484C161.636 98.9447 160.389 97.6969 158.849 97.6969C157.31 97.6969 156.062 98.9447 156.062 100.484C156.062 102.023 157.31 103.271 158.849 103.271Z" fill="#E4E4E4"/>
</g>
<defs>
<clipPath id="clip0">
<rect width="164" height="164" fill="white" transform="translate(18 15)"/>
</clipPath>
</defs>
</svg>
