<svg width="200" height="200" viewBox="0 0 200 200" fill="none" xmlns="http://www.w3.org/2000/svg">
<path d="M100 200C155.228 200 200 155.228 200 100C200 44.7715 155.228 0 100 0C44.7715 0 0 44.7715 0 100C0 155.228 44.7715 200 100 200Z" fill="#383838"/>
<path d="M144.66 154.679H56.3398C49.7511 154.679 44.3906 149.318 44.3906 142.729V79.861C44.3906 77.5657 46.2513 75.7047 48.5469 75.7047C50.8424 75.7047 52.7031 77.5657 52.7031 79.861V142.729C52.7031 144.735 54.3345 146.366 56.3398 146.366H144.66C146.666 146.366 148.297 144.735 148.297 142.729V79.861C148.297 77.5657 150.158 75.7047 152.453 75.7047C154.749 75.7047 156.609 77.5657 156.609 79.861V142.729C156.609 149.318 151.249 154.679 144.66 154.679Z" fill="#E4E4E4"/>
<path d="M162.844 94.4066C161.78 94.4066 160.716 94.0008 159.905 93.189L108.214 41.499C103.961 37.2451 97.0393 37.2451 92.7854 41.499L41.0952 93.1893C39.4722 94.8126 36.8405 94.8126 35.2175 93.1893C33.5942 91.5663 33.5942 88.9346 35.2175 87.3116L86.9077 35.6211C94.4025 28.1263 106.598 28.1263 114.092 35.6211L165.782 87.3113C167.406 88.9346 167.406 91.566 165.782 93.189C164.971 94.0008 163.907 94.4066 162.844 94.4066V94.4066Z" fill="#E4E4E4"/>
<path d="M117.125 154.679H83.875C81.5795 154.679 79.7188 152.818 79.7188 150.522V113.636C79.7188 106.474 85.5453 100.647 92.707 100.647H108.293C115.455 100.647 121.281 106.474 121.281 113.636V150.522C121.281 152.818 119.421 154.679 117.125 154.679ZM88.0312 146.366H112.969V113.636C112.969 111.058 110.871 108.96 108.293 108.96H92.707C90.1289 108.96 88.0312 111.058 88.0312 113.636V146.366Z" fill="#E4E4E4"/>
</svg>
