<?xml version="1.0" encoding="utf-8"?>
<!-- Generator: Adobe Illustrator 23.0.0, SVG Export Plug-In . SVG Version: 6.00 Build 0)  -->
<svg version="1.1" id="Layer_1" xmlns="http://www.w3.org/2000/svg" xmlns:xlink="http://www.w3.org/1999/xlink" x="0px" y="0px"
	 viewBox="0 0 674.7 674.7" style="enable-background:new 0 0 674.7 674.7;" xml:space="preserve">
<style type="text/css">
	.st0{fill:#383838;}
	.st1{fill:#FFFFFF;}
</style>
<title>Asset 58</title>
<g>
	<g id="Layer_1-2">
		<circle class="st0" cx="337.4" cy="337.4" r="337.4"/>
		<g>
			<path class="st0" d="M485.4,346.4c0,17.6-4.6,34.9-13.2,50.3c-5.8,10.5,21,61.6,21,61.6c-4.5,4.4-52.7-24.2-57.9-20.3
				c-8.1,5.9-16.8,11-25.9,15.3c-23.8,11-49.8,16.6-76,16.5c-83.9,0-151.9-55.3-151.9-123.4s68-123.5,151.9-123.5
				S485.4,278.2,485.4,346.4z"/>
			<path class="st1" d="M334.4,479.8c-0.3,0-0.7,0-1,0c-42.8,0-83.2-13.6-113.7-38.4c-31.1-25.2-48.2-59-48.2-95
				c0-73.6,72.6-133.5,161.9-133.5c42.9,0,83.3,13.6,113.8,38.4c31.1,25.3,48.2,59,48.2,95.1v0c0,19-4.9,37.8-14,54.4
				c-0.4,6.5,9.1,30.7,20.7,52.8l3.5,6.6l-5.3,5.2c-7.2,7-17.5,2.3-40.1-8.2c-6.9-3.2-16.9-7.8-21.6-9.2
				c-7.8,5.5-16.1,10.3-24.8,14.3C388.9,473.8,361.6,479.8,334.4,479.8z M333.4,232.9c-78.2,0-141.9,50.9-141.9,113.5
				c0,62.5,63.7,113.4,141.9,113.4c24.7,0.2,49.5-5.2,71.8-15.6c8.4-4,16.6-8.8,24.2-14.3c7-5.2,15.5-1.7,39.1,9.2
				c1.7,0.8,3.7,1.7,5.7,2.6c-0.9-2.1-1.9-4.2-2.8-6.4c-12.2-28.7-11-37.9-7.9-43.5c7.8-13.9,11.9-29.6,12-45.5
				C475.4,283.8,411.7,232.9,333.4,232.9z"/>
		</g>
	</g>
</g>
</svg>
