<svg width="40" height="40" viewBox="0 0 40 40" fill="none" xmlns="http://www.w3.org/2000/svg">
<circle cx="20" cy="20" r="20" fill="#383838"/>
<mask id="mask0" mask-type="alpha" maskUnits="userSpaceOnUse" x="0" y="0" width="40" height="40">
<path d="M17.8125 21.25C17.8125 22.1125 17.1125 22.8125 16.25 22.8125C15.3875 22.8125 14.6875 22.1125 14.6875 21.25C14.6875 20.3875 15.3875 19.6875 16.25 19.6875C17.1125 19.6875 17.8125 20.3875 17.8125 21.25ZM23.75 19.6875C22.8875 19.6875 22.1875 20.3875 22.1875 21.25C22.1875 22.1125 22.8875 22.8125 23.75 22.8125C24.6125 22.8125 25.3125 22.1125 25.3125 21.25C25.3125 20.3875 24.6125 19.6875 23.75 19.6875ZM32.5 20C32.5 26.9 26.9 32.5 20 32.5C13.1 32.5 7.5 26.9 7.5 20C7.5 13.1 13.1 7.5 20 7.5C26.9 7.5 32.5 13.1 32.5 20ZM18.325 10.15C20.075 13.05 23.25 15 26.875 15C27.45 15 28.0125 14.9375 28.55 14.85C26.8 11.95 23.625 10 20 10C19.425 10 18.8625 10.0625 18.325 10.15ZM10.525 16.8375C12.6625 15.625 14.3125 13.65 15.1 11.2875C12.9625 12.5 11.3125 14.475 10.525 16.8375ZM30 20C30 19.025 29.85 18.0875 29.5875 17.2C28.7125 17.3875 27.8125 17.5 26.875 17.5C22.9625 17.5 19.475 15.7 17.175 12.8875C15.8625 16.0875 13.25 18.6 10 19.825C10.0125 19.875 10 19.9375 10 20C10 25.5125 14.4875 30 20 30C25.5125 30 30 25.5125 30 20Z" fill="black"/>
</mask>
<g mask="url(#mask0)">
<rect width="40" height="40" fill="#F0F0F0"/>
</g>
</svg>
