<svg width="40" height="40" viewBox="0 0 40 40" fill="none" xmlns="http://www.w3.org/2000/svg">
<circle cx="20" cy="20" r="20" fill="#383838"/>
<mask id="mask0" mask-type="alpha" maskUnits="userSpaceOnUse" x="5" y="5" width="30" height="30">
<path d="M18.75 27.5H21.25V25H18.75V27.5ZM20 7.5C13.1 7.5 7.5 13.1 7.5 20C7.5 26.9 13.1 32.5 20 32.5C26.9 32.5 32.5 26.9 32.5 20C32.5 13.1 26.9 7.5 20 7.5ZM20 30C14.4875 30 10 25.5125 10 20C10 14.4875 14.4875 10 20 10C25.5125 10 30 14.4875 30 20C30 25.5125 25.5125 30 20 30ZM20 12.5C17.2375 12.5 15 14.7375 15 17.5H17.5C17.5 16.125 18.625 15 20 15C21.375 15 22.5 16.125 22.5 17.5C22.5 20 18.75 19.6875 18.75 23.75H21.25C21.25 20.9375 25 20.625 25 17.5C25 14.7375 22.7625 12.5 20 12.5Z" fill="black"/>
</mask>
<g mask="url(#mask0)">
<rect width="40" height="40" fill="white"/>
</g>
</svg>
