<svg width="40" height="40" viewBox="0 0 40 40" fill="none" xmlns="http://www.w3.org/2000/svg">
<circle cx="20" cy="20" r="20" fill="#383838"/>
<mask id="mask0" mask-type="alpha" maskUnits="userSpaceOnUse" x="1" y="1" width="38" height="38">
<path d="M29.4597 21.2477C29.5106 20.8403 29.5488 20.4328 29.5488 20C29.5488 19.5671 29.5106 19.1597 29.4597 18.7523L32.146 16.6516C32.3879 16.4606 32.4515 16.1169 32.2988 15.8368L29.7525 11.4317C29.6379 11.228 29.4215 11.1134 29.1923 11.1134C29.1159 11.1134 29.0395 11.1261 28.9759 11.1516L25.8057 12.4247C25.1437 11.9155 24.4307 11.4953 23.6541 11.1771L23.1703 7.80322C23.1321 7.49766 22.8647 7.26849 22.5465 7.26849H17.4539C17.1356 7.26849 16.8682 7.49766 16.83 7.80322L16.3462 11.1771C15.5696 11.4953 14.8566 11.9282 14.1946 12.4247L11.0245 11.1516C10.9481 11.1261 10.8717 11.1134 10.7953 11.1134C10.5789 11.1134 10.3624 11.228 10.2478 11.4317L7.70155 15.8368C7.53604 16.1169 7.61243 16.4606 7.85433 16.6516L10.5407 18.7523C10.4897 19.1597 10.4516 19.5798 10.4516 20C10.4516 20.4201 10.4897 20.8403 10.5407 21.2477L7.85433 23.3484C7.61243 23.5393 7.54877 23.8831 7.70155 24.1632L10.2478 28.5683C10.3624 28.772 10.5789 28.8866 10.808 28.8866C10.8844 28.8866 10.9608 28.8738 11.0245 28.8484L14.1946 27.5752C14.8566 28.0845 15.5696 28.5046 16.3462 28.8229L16.83 32.1967C16.8682 32.5023 17.1356 32.7315 17.4539 32.7315H22.5465C22.8647 32.7315 23.1321 32.5023 23.1703 32.1967L23.6541 28.8229C24.4307 28.5046 25.1437 28.0717 25.8057 27.5752L28.9759 28.8484C29.0522 28.8738 29.1286 28.8866 29.205 28.8866C29.4215 28.8866 29.6379 28.772 29.7525 28.5683L32.2988 24.1632C32.4515 23.8831 32.3879 23.5393 32.146 23.3484L29.4597 21.2477ZM26.9388 19.0706C26.9897 19.4653 27.0025 19.7326 27.0025 20C27.0025 20.2673 26.977 20.5474 26.9388 20.9294L26.7606 22.368L27.8937 23.2592L29.2687 24.3287L28.3775 25.8692L26.7606 25.2199L25.4365 24.6852L24.2907 25.5509C23.7432 25.9583 23.2212 26.2639 22.6992 26.4803L21.3497 27.0278L21.146 28.4664L20.8914 30.1852H19.109L18.8671 28.4664L18.6634 27.0278L17.3138 26.4803C16.7664 26.2511 16.2571 25.9583 15.7478 25.5764L14.5893 24.6852L13.2397 25.2326L11.6228 25.8819L10.7316 24.3414L12.1066 23.272L13.2397 22.3808L13.0615 20.9421C13.0233 20.5474 12.9978 20.2546 12.9978 20C12.9978 19.7453 13.0233 19.4525 13.0615 19.0706L13.2397 17.6319L12.1066 16.7407L10.7316 15.6713L11.6228 14.1308L13.2397 14.7801L14.5638 15.3148L15.7097 14.449C16.2571 14.0416 16.7791 13.7361 17.3011 13.5197L18.6506 12.9722L18.8543 11.5335L19.109 9.81479H20.8786L21.1205 11.5335L21.3242 12.9722L22.6738 13.5197C23.2212 13.7488 23.7305 14.0416 24.2397 14.4236L25.3983 15.3148L26.7478 14.7673L28.3647 14.118L29.2559 15.6585L27.8937 16.7407L26.7606 17.6319L26.9388 19.0706ZM20.0002 14.9074C17.1865 14.9074 14.9076 17.1863 14.9076 20C14.9076 22.8136 17.1865 25.0926 20.0002 25.0926C22.8138 25.0926 25.0928 22.8136 25.0928 20C25.0928 17.1863 22.8138 14.9074 20.0002 14.9074ZM20.0002 22.5463C18.5997 22.5463 17.4539 21.4004 17.4539 20C17.4539 18.5995 18.5997 17.4537 20.0002 17.4537C21.4006 17.4537 22.5465 18.5995 22.5465 20C22.5465 21.4004 21.4006 22.5463 20.0002 22.5463Z" fill="black"/>
</mask>
<g mask="url(#mask0)">
<rect x="-4" y="-4" width="48" height="48" fill="white"/>
</g>
</svg>
