<svg width="40" height="40" viewBox="0 0 40 40" fill="none" xmlns="http://www.w3.org/2000/svg">
<circle cx="20" cy="20" r="20" fill="#383838"/>
<mask id="mask0" mask-type="alpha" maskUnits="userSpaceOnUse" x="5" y="5" width="30" height="30">
<path d="M31.25 14.1V11.25C31.25 9.875 30.125 8.75 28.75 8.75H11.25C9.8625 8.75 8.75 9.875 8.75 11.25V28.75C8.75 30.125 9.8625 31.25 11.25 31.25H28.75C30.125 31.25 31.25 30.125 31.25 28.75V25.9C31.9875 25.4625 32.5 24.675 32.5 23.75V16.25C32.5 15.325 31.9875 14.5375 31.25 14.1ZM30 16.25V23.75H21.25V16.25H30ZM11.25 28.75V11.25H28.75V13.75H21.25C19.875 13.75 18.75 14.875 18.75 16.25V23.75C18.75 25.125 19.875 26.25 21.25 26.25H28.75V28.75H11.25Z" fill="black"/>
<path d="M25 21.875C26.0355 21.875 26.875 21.0355 26.875 20C26.875 18.9645 26.0355 18.125 25 18.125C23.9645 18.125 23.125 18.9645 23.125 20C23.125 21.0355 23.9645 21.875 25 21.875Z" fill="black"/>
</mask>
<g mask="url(#mask0)">
<rect width="40" height="40" fill="white"/>
</g>
</svg>
