<svg width="40" height="40" viewBox="0 0 40 40" fill="none" xmlns="http://www.w3.org/2000/svg">
<circle cx="20" cy="20" r="20" fill="#212121"/>
<mask id="mask0" mask-type="alpha" maskUnits="userSpaceOnUse" x="4" y="4" width="32" height="32">
<path d="M26.7562 19.2533C26.8905 19.3339 27.0009 19.4445 27.0774 19.5749C27.1538 19.7053 27.1938 19.8515 27.1938 20C27.1938 20.1485 27.1538 20.2947 27.0774 20.4251C27.0009 20.5555 26.8905 20.6661 26.7562 20.7467L16.1424 27.1147C15.9979 27.2014 15.831 27.2503 15.6591 27.2562C15.4872 27.2622 15.3168 27.225 15.1658 27.1486C15.0148 27.0722 14.8887 26.9594 14.8009 26.822C14.713 26.6846 14.6666 26.5278 14.6666 26.368L14.6666 13.632C14.6666 13.4722 14.713 13.3154 14.8009 13.178C14.8887 13.0407 15.0148 12.9278 15.1658 12.8514C15.3168 12.775 15.4872 12.7378 15.6591 12.7438C15.831 12.7498 15.9979 12.7987 16.1424 12.8853L26.7562 19.2533Z" fill="white"/>
</mask>
<g mask="url(#mask0)">
<rect x="4" y="4" width="32" height="32" fill="#F0F0F0"/>
</g>
</svg>
