<svg width="200" height="200" viewBox="0 0 200 200" fill="none" xmlns="http://www.w3.org/2000/svg">
<path d="M100 200C155.228 200 200 155.228 200 100C200 44.7715 155.228 0 100 0C44.7715 0 0 44.7715 0 100C0 155.228 44.7715 200 100 200Z" fill="#383838"/>
<path d="M83.8081 118.959C85.2601 118.609 86.9321 118.435 88.8241 118.435C93.3561 118.435 97.206 119.985 100.374 123.086C103.586 126.187 105.192 129.987 105.192 134.486C105.192 138.853 103.806 142.522 101.034 145.492C98.306 148.462 94.7641 150.144 90.4081 150.537C89.2201 150.843 87.9881 150.996 86.712 150.996C81.3001 150.996 76.79 148.965 73.182 144.903C69.882 141.234 68.232 136.779 68.232 131.538V101.139C68.232 97.339 69.09 94.3253 70.806 92.0978C72.874 89.5645 74.942 88.1451 77.01 87.8394C77.802 87.752 78.286 87.4026 78.462 86.7911L59.52 84.5636L60.51 74.5399C62.446 73.7536 64.756 71.8974 67.44 68.9711C71.0481 65.0402 75.6241 61.5898 81.1681 58.6198C86.7561 55.6498 93.334 54.1648 100.902 54.1648C110.098 54.1648 117.49 55.3441 123.078 57.7026C126.378 59.1002 129.348 61.0438 131.988 63.5334C134.408 65.7608 136.454 68.447 138.126 71.5917C139.314 73.8629 140.084 76.0248 140.436 78.0777C140.832 80.4799 141.03 83.2097 141.03 86.267V149.554H125.388V86.7911C125.388 80.196 123.936 75.0422 121.032 71.3297C117.292 66.7873 110.582 64.5161 100.902 64.5161C97.294 64.5161 94.06 64.8874 91.2 65.6299C88.78 66.2413 86.184 67.3332 83.4121 68.9057C80.244 70.6527 78 72.1376 76.68 73.3605C75.0521 74.9329 73.71 76.2214 72.654 77.226L96.7441 80.8948L95.622 88.3635C92.322 88.3635 89.858 89.1933 88.23 90.853C85.282 93.2552 83.8081 96.6839 83.8081 101.139V118.959ZM95.754 134.486C95.754 132.52 95.0721 130.839 93.7081 129.441C92.3881 128.043 90.7601 127.345 88.8241 127.345C86.8001 127.345 85.106 128.043 83.742 129.441C82.378 130.795 81.6961 132.477 81.6961 134.486C81.6961 139.29 84.0721 141.692 88.8241 141.692C90.7601 141.692 92.3881 140.972 93.7081 139.53C95.0721 138.089 95.754 136.408 95.754 134.486Z" fill="#E4E4E4"/>
</svg>
