<svg width="40" height="40" viewBox="0 0 40 40" fill="none" xmlns="http://www.w3.org/2000/svg">
<circle cx="20" cy="20" r="20" fill="#212121"/>
<mask id="mask0" mask-type="alpha" maskUnits="userSpaceOnUse" x="4" y="4" width="32" height="32">
<path d="M19.3015 13.4118C19.3015 12.6321 18.676 12 17.9044 12C17.1328 12 16.5073 12.6321 16.5073 13.4118V26.5882C16.5073 27.3679 17.1328 28 17.9044 28C18.676 28 19.3015 27.3679 19.3015 26.5882V13.4118Z" fill="white"/>
<path d="M23.4928 13.4118C23.4928 12.6321 22.8673 12 22.0957 12C21.3241 12 20.6986 12.6321 20.6986 13.4118V26.5882C20.6986 27.3679 21.3241 28 22.0957 28C22.8673 28 23.4928 27.3679 23.4928 26.5882V13.4118Z" fill="white"/>
</mask>
<g mask="url(#mask0)">
<rect x="4.06665" y="4" width="31.9334" height="32" fill="white"/>
</g>
</svg>
