<svg width="40" height="40" viewBox="0 0 40 40" fill="none" xmlns="http://www.w3.org/2000/svg">
<circle cx="20" cy="20" r="20" fill="white"/>
<mask id="mask0" mask-type="alpha" maskUnits="userSpaceOnUse" x="2" y="2" width="36" height="36">
<path d="M27.5609 28.5981H7.65773C6.16016 28.5981 4.94181 27.3799 4.94181 25.8823V14.1178C4.94181 12.6202 6.16016 11.4019 7.65773 11.4019H10.6922C10.9638 11.4019 11.184 11.1817 11.184 10.9101C11.184 10.6384 10.9638 10.4183 10.6922 10.4183H7.65773C5.61781 10.4183 3.95825 12.0779 3.95825 14.1178V25.8823C3.95825 27.9222 5.61781 29.5817 7.65773 29.5817H27.5609C27.8324 29.5817 28.0526 29.3616 28.0526 29.0899C28.0526 28.8183 27.8324 28.5981 27.5609 28.5981Z" fill="black"/>
<path d="M32.3423 10.4183H12.6595C12.3879 10.4183 12.1677 10.6384 12.1677 10.9101C12.1677 11.1817 12.3879 11.4019 12.6595 11.4019H32.3423C33.8399 11.4019 35.0582 12.6202 35.0582 14.1178V25.8823C35.0582 27.3799 33.8399 28.5981 32.3423 28.5981H29.5282C29.2566 28.5981 29.0364 28.8183 29.0364 29.0899C29.0364 29.3616 29.2566 29.5817 29.5282 29.5817H32.3423C34.3822 29.5817 36.0418 27.9221 36.0418 25.8823V14.1178C36.0418 12.0779 34.3822 10.4183 32.3423 10.4183Z" fill="black"/>
<path d="M32.3424 12.7133H7.65794C6.88349 12.7133 6.25342 13.3434 6.25342 14.1178V25.8822C6.25342 26.6567 6.88349 27.2867 7.65794 27.2867H32.3424C33.1168 27.2867 33.7468 26.6567 33.7468 25.8822V14.1178C33.7468 13.3433 33.1168 12.7133 32.3424 12.7133ZM32.7632 25.8822C32.7632 26.1143 32.5744 26.3032 32.3423 26.3032H7.65794C7.42584 26.3032 7.23697 26.1143 7.23697 25.8822V24.0082H32.7632V25.8822ZM32.7632 23.0247H7.23697V16.9753H32.7632V23.0247ZM32.7632 15.9918H7.23697V14.1178C7.23697 13.8857 7.42584 13.6968 7.65794 13.6968H32.3424C32.5744 13.6968 32.7632 13.8857 32.7632 14.1178V15.9918Z" fill="black"/>
<path d="M10.2447 17.5756H9.08348L8.27563 22.6245H9.00415L9.1412 21.7085H10.1149L10.252 22.6245H11.0526L10.2447 17.5756ZM9.24214 21.0232L9.62445 18.4699L10.0068 21.0232H9.24214Z" fill="black"/>
<path d="M13.5555 19.934C13.9089 19.7681 14.0676 19.4363 14.0676 18.917V18.7366C14.0676 17.9577 13.7141 17.5754 12.8919 17.5754H11.6946V22.6243H12.9424C13.7358 22.6244 14.1469 22.206 14.1469 21.4271V21.0159C14.1469 20.4822 13.9811 20.0999 13.5555 19.934ZM12.488 18.2968H12.8703C13.1516 18.2968 13.2742 18.4554 13.2742 18.8161V19.0973C13.2742 19.5013 13.0939 19.6312 12.7982 19.6312H12.488V18.2968ZM13.3536 21.4055C13.3536 21.7805 13.2093 21.9032 12.9424 21.9032H12.488V20.3524H12.8414C13.2021 20.3524 13.3535 20.4967 13.3535 20.9655V21.4055H13.3536Z" fill="black"/>
<path d="M17.1978 19.2777V18.7872C17.1978 17.9794 16.7939 17.5178 16.0149 17.5178C15.236 17.5178 14.832 17.9794 14.832 18.7872V21.4126C14.832 22.2205 15.2359 22.6821 16.0149 22.6821C16.7939 22.6821 17.1978 22.2204 17.1978 21.4126V20.7419H16.4477V21.4632C16.4477 21.8238 16.289 21.9536 16.0365 21.9536C15.7841 21.9536 15.6254 21.8238 15.6254 21.4632V18.7367C15.6254 18.3761 15.7841 18.239 16.0365 18.239C16.289 18.239 16.4477 18.3761 16.4477 18.7367V19.2777H17.1978Z" fill="black"/>
<path d="M20.7536 19.7392H19.311V20.4604H20.7536V19.7392Z" fill="black"/>
<path d="M24.3238 17.5755C24.2011 17.9145 24.0641 18.2102 23.4509 18.2102V18.7728H24.0641V22.6245H24.8575V17.5755H24.3238Z" fill="black"/>
<path d="M26.8841 21.9031C26.8769 21.867 26.8769 21.831 26.8769 21.7949C26.8769 20.9654 28.4566 20.374 28.4566 18.7872C28.4566 17.9794 28.0527 17.5178 27.2737 17.5178C26.4947 17.5178 26.0908 17.9794 26.0908 18.7872V19.2777H26.8409V18.7367C26.8409 18.3761 26.9996 18.239 27.2521 18.239C27.5046 18.239 27.6632 18.3617 27.6632 18.816C27.6632 20.273 26.0909 20.5183 26.0909 22.0041V22.6244H28.3845V21.9031H28.3844H26.8841Z" fill="black"/>
<path d="M31.5437 18.917V18.7872C31.5437 17.9794 31.1398 17.5178 30.3609 17.5178C29.5819 17.5178 29.178 17.9794 29.178 18.7872V19.0613H29.9281V18.7367C29.9281 18.3761 30.0868 18.239 30.3392 18.239C30.5917 18.239 30.7504 18.3617 30.7504 18.816V19.0973C30.7504 19.5012 30.57 19.6311 30.2743 19.6311H29.9643V20.3523H30.2311C30.5917 20.3523 30.7504 20.5255 30.7504 20.9943V21.391C30.7504 21.8381 30.5918 21.9608 30.3393 21.9608C30.0868 21.9608 29.9281 21.8237 29.9281 21.4631V20.9943H29.178V21.4126C29.178 22.2204 29.582 22.682 30.3609 22.682C31.1399 22.682 31.5438 22.2204 31.5438 21.4126V21.0159C31.5438 20.5038 31.3851 20.1287 30.9884 19.9556C31.3706 19.797 31.5437 19.458 31.5437 18.917Z" fill="black"/>
<path d="M12.038 15.3916C12.3356 15.3916 12.5768 15.1504 12.5768 14.8529C12.5768 14.5553 12.3356 14.3141 12.038 14.3141C11.7405 14.3141 11.4993 14.5553 11.4993 14.8529C11.4993 15.1504 11.7405 15.3916 12.038 15.3916Z" fill="black"/>
<path d="M12.038 25.6967C12.3356 25.6967 12.5768 25.4555 12.5768 25.1579C12.5768 24.8604 12.3356 24.6192 12.038 24.6192C11.7405 24.6192 11.4993 24.8604 11.4993 25.1579C11.4993 25.4555 11.7405 25.6967 12.038 25.6967Z" fill="black"/>
<path d="M27.9624 15.3916C28.2599 15.3916 28.5011 15.1504 28.5011 14.8529C28.5011 14.5553 28.2599 14.3141 27.9624 14.3141C27.6648 14.3141 27.4236 14.5553 27.4236 14.8529C27.4236 15.1504 27.6648 15.3916 27.9624 15.3916Z" fill="black"/>
<path d="M27.9624 25.6967C28.2599 25.6967 28.5011 25.4555 28.5011 25.1579C28.5011 24.8604 28.2599 24.6192 27.9624 24.6192C27.6648 24.6192 27.4236 24.8604 27.4236 25.1579C27.4236 25.4555 27.6648 25.6967 27.9624 25.6967Z" fill="black"/>
</mask>
<g mask="url(#mask0)">
<rect x="2.5" y="2.5" width="35" height="35" fill="#212121"/>
</g>
</svg>
