<svg width="194" height="63" viewBox="0 0 194 63" fill="none" xmlns="http://www.w3.org/2000/svg">
<mask id="mask0" mask-type="alpha" maskUnits="userSpaceOnUse" x="0" y="0" width="194" height="63">
<g clip-path="url(#clip0)">
<path d="M25.8428 7.9223L17.3661 28.6504H13.4354L0.00201416 0H6.30594L15.4045 24.5654L21.7785 7.9223H25.8428Z" fill="white"/>
<path d="M42.5431 26.0114C41.801 26.9574 40.8576 27.7283 39.7806 28.2689C38.7035 28.8095 37.5196 29.1063 36.3136 29.1381C31.6102 29.1381 29.2588 26.5845 29.2595 21.4773V7.91156H32.9735V21.3208C32.8622 22.6047 33.18 23.8891 33.8778 24.9749C34.2571 25.3749 34.7234 25.6833 35.2411 25.8764C35.7588 26.0694 36.3141 26.142 36.8643 26.0886C38.9344 26.0886 40.8273 24.981 42.5431 22.7657V7.91156H46.2377V28.6461H42.5431V26.0114Z" fill="white"/>
<path d="M55.0551 0H51.3411V28.6504H55.0551V0Z" fill="white"/>
<path d="M68.8733 29.1392C67.5537 29.1975 66.2368 28.9738 65.0115 28.4833C63.7861 27.9927 62.6807 27.2467 61.7697 26.2955C59.9942 24.3997 59.1068 21.7321 59.1075 18.2928C59.1075 14.8399 59.9949 12.1688 61.7697 10.2794C63.4599 8.67278 65.6501 7.68698 67.9793 7.48453C70.3085 7.28208 72.6375 7.87505 74.5823 9.16569C75.3537 9.76194 75.9922 10.511 76.4573 11.3655C76.9224 12.22 77.204 13.1612 77.2843 14.1296H73.4722C73.4776 13.5813 73.3537 13.0394 73.1104 12.5474C72.867 12.0554 72.5111 11.627 72.071 11.2966C71.1432 10.6311 70.0211 10.2876 68.8776 10.319C68.053 10.2968 67.2345 10.4663 66.4874 10.8141C65.7403 11.1619 65.0851 11.6784 64.574 12.3224C63.4935 14.125 62.9231 16.1845 62.9231 18.2831C62.9231 20.3817 63.4935 22.4413 64.574 24.2439C65.085 24.888 65.7402 25.4045 66.4873 25.7523C67.2345 26.1001 68.053 26.2696 68.8776 26.2472C70.0211 26.2789 71.1433 25.9354 72.071 25.2697C72.5096 24.9424 72.8648 24.5173 73.1082 24.0286C73.3515 23.5399 73.4762 23.0013 73.4722 22.456H77.2799C77.1997 23.4244 76.9181 24.3656 76.453 25.2201C75.9879 26.0746 75.3494 26.8236 74.578 27.4199C72.9209 28.6067 70.914 29.2115 68.8733 29.1392Z" fill="white"/>
<path d="M95.0503 9.02955C93.1813 7.87167 90.9974 7.31855 88.7992 7.44637C83.074 7.44637 80.0742 9.57657 79.7997 13.837H83.4944C83.5993 11.4917 85.3021 10.319 88.603 10.319C89.7879 10.2365 90.9737 10.4657 92.0411 10.9836C92.3636 11.1582 92.6467 11.3965 92.8732 11.6839C93.0997 11.9712 93.2647 12.3016 93.3582 12.6547C93.5483 13.7221 93.6273 14.8061 93.5942 15.8896H91.7846C83.3873 15.8896 79.1886 18.3131 79.1886 23.1602C79.1675 23.9833 79.3373 24.8002 79.685 25.5475C80.0327 26.2948 80.5488 26.9524 81.1933 27.4692C82.6381 28.6202 84.4523 29.2137 86.302 29.1403C88.9826 29.2478 91.5991 28.3079 93.5921 26.5216V28.6515H97.2867V15.2443C97.2867 12.1545 96.5412 10.0829 95.0503 9.02955ZM93.5964 23.1988C92.9096 24.1629 91.9805 24.9309 90.9019 25.4262C89.8011 25.9643 88.5913 26.2451 87.3647 26.2472C86.2397 26.3062 85.1249 26.0086 84.1809 25.3972C83.7957 25.1219 83.4859 24.7549 83.2799 24.3299C83.074 23.9049 82.9784 23.4353 83.0018 22.964C83.0018 20.0585 85.6873 18.6058 91.0582 18.6058H93.5931L93.5964 23.1988Z" fill="white"/>
<path d="M106.301 10.528C107.05 9.59261 107.996 8.83187 109.072 8.29943C110.148 7.76698 111.329 7.47578 112.531 7.44638C117.234 7.44638 119.586 9.97246 119.586 15.0246V62.5091H115.872V15.18C115.984 13.904 115.662 12.6275 114.958 11.5549C114.575 11.1575 114.106 10.8518 113.586 10.6605C113.067 10.4693 112.511 10.3976 111.96 10.4509C110.073 10.4509 108.187 11.5492 106.3 13.7459V28.4768H102.583V7.91158H106.297L106.301 10.528Z" fill="white"/>
<path d="M55.1369 63.0011C53.3163 63.0808 51.5001 62.7644 49.8151 62.074C48.13 61.3837 46.6168 60.336 45.3809 59.004C42.9465 56.34 41.7294 52.7331 41.7294 48.1833C41.7294 43.6335 42.9444 40.0277 45.3744 37.3659C46.6103 36.0339 48.1236 34.9862 49.8086 34.2959C51.4936 33.6055 53.3098 33.2891 55.1305 33.3688C58.0062 33.2874 60.8251 34.1759 63.1286 35.8899C64.1883 36.6703 65.068 37.667 65.7085 38.8132C66.3491 39.9594 66.7358 41.2285 66.8427 42.5356H62.9185C62.8657 41.6869 62.6259 40.8601 62.2161 40.1139C61.8064 39.3676 61.2367 38.72 60.5474 38.217C58.6604 36.9656 56.3888 36.419 54.1354 36.674C51.8819 36.9291 49.7919 37.9693 48.2359 39.6104C46.533 41.6113 45.6816 44.4696 45.6816 48.1855C45.6816 51.8856 46.5266 54.739 48.2165 56.7456C49.7718 58.3992 51.87 59.4458 54.1327 59.6966C56.3955 59.9474 58.6739 59.3858 60.5571 58.1133C61.26 57.5406 61.8334 56.8268 62.2398 56.0184C62.6462 55.2101 62.8764 54.3256 62.9152 53.4227H66.8448C66.781 54.7895 66.4256 56.1271 65.8022 57.3469C65.1788 58.5666 64.3016 59.6404 63.2289 60.4972C60.899 62.2279 58.0428 63.1117 55.1369 63.0011Z" fill="white"/>
<path d="M86.9983 44.1413C85.0817 42.3223 82.5342 41.3074 79.8849 41.3074C77.2357 41.3074 74.6882 42.3223 72.7716 44.1413C70.9969 46.0299 70.1095 48.7007 70.1095 52.1536C70.1095 55.5936 70.9969 58.2612 72.7716 60.1563C74.6853 61.9809 77.2339 62.9996 79.8849 62.9996C82.536 62.9996 85.0846 61.9809 86.9983 60.1563C88.7737 58.2612 89.6615 55.5936 89.6615 52.1536C89.6608 48.7014 88.773 46.0306 86.9983 44.1413ZM84.1788 58.1047C83.6528 58.7318 82.9947 59.2362 82.2511 59.5824C81.5074 59.9286 80.6963 60.108 79.8752 60.108C79.0542 60.108 78.2431 59.9286 77.4994 59.5824C76.7558 59.2362 76.0976 58.7318 75.5717 58.1047C74.4913 56.3021 73.9209 54.2425 73.9209 52.1439C73.9209 50.0454 74.4913 47.9858 75.5717 46.1832C76.0976 45.5561 76.7558 45.0517 77.4994 44.7055C78.2431 44.3593 79.0542 44.1799 79.8752 44.1799C80.6963 44.1799 81.5074 44.3593 82.2511 44.7055C82.9947 45.0517 83.6528 45.5561 84.1788 46.1832C85.259 47.9859 85.8292 50.0454 85.8292 52.1439C85.8292 54.2425 85.259 56.302 84.1788 58.1047Z" fill="white"/>
<path d="M108.293 42.8904C106.424 41.7325 104.24 41.1794 102.042 41.3072C96.3168 41.3072 93.317 43.4374 93.0425 47.6978H96.7371C96.842 45.3525 98.5449 44.1798 101.846 44.1798C103.031 44.0973 104.217 44.3265 105.285 44.8444C105.607 45.0194 105.89 45.2578 106.116 45.5451C106.343 45.8324 106.508 46.1626 106.602 46.5155C106.792 47.5829 106.871 48.6669 106.838 49.7504H105.031C96.6326 49.7504 92.4339 52.1736 92.4346 57.0199C92.4135 57.8431 92.5834 58.66 92.931 59.4072C93.2787 60.1545 93.7948 60.8121 94.4393 61.3289C95.8844 62.4802 97.6989 63.0737 99.549 63C102.23 63.107 104.846 62.1672 106.839 60.3814V62.5112H110.534V49.1051C110.533 46.0174 109.786 43.9458 108.293 42.8904ZM106.839 57.0596C106.152 58.0241 105.223 58.7925 104.145 59.288C103.044 59.8264 101.834 60.1072 100.607 60.1091C99.4824 60.1684 98.3675 59.8707 97.4236 59.2591C97.0384 58.9837 96.7287 58.6168 96.5227 58.1918C96.3167 57.7668 96.2211 57.2972 96.2446 56.8259C96.2446 53.9204 98.93 52.4676 104.301 52.4676H106.836L106.839 57.0596Z" fill="white"/>
<path d="M125.008 34.0548H128.725V38.0412H125.011" fill="white"/>
<path d="M128.722 41.7767H125.008V62.5123H128.722V41.7767Z" fill="white"/>
<path d="M142.75 62.5509C141.875 62.7128 140.986 62.7914 140.096 62.7856C138.924 62.8775 137.753 62.5932 136.755 61.9742C136.07 61.4685 135.6 60.7258 135.438 59.8926C135.244 58.7501 135.159 57.592 135.183 56.4336V44.6686H132.61V41.7745H135.184V36.6145H138.883V41.7745H142.262V44.6686H138.883V56.6287C138.766 57.565 138.955 58.5138 139.421 59.3352C139.613 59.5308 139.845 59.6834 140.1 59.7828C140.356 59.8823 140.63 59.9263 140.904 59.9119C141.524 59.9139 142.142 59.8615 142.752 59.7554L142.75 62.5509Z" fill="white"/>
<path d="M150.041 38.0412H146.327V34.0548H150.041" fill="white"/>
<path d="M150.041 41.7767H146.327V62.5123H150.041V41.7767Z" fill="white"/>
<path d="M170.752 44.1413C168.836 42.3223 166.288 41.3074 163.639 41.3074C160.99 41.3074 158.442 42.3223 156.526 44.1413C154.751 46.0299 153.863 48.7007 153.863 52.1536C153.863 55.5936 154.75 58.2612 156.526 60.1563C158.439 61.9809 160.988 62.9996 163.639 62.9996C166.29 62.9996 168.839 61.9809 170.752 60.1563C172.527 58.2612 173.415 55.5936 173.416 52.1536C173.414 48.7014 172.526 46.0306 170.752 44.1413ZM167.932 58.1047C167.406 58.7318 166.748 59.2362 166.004 59.5824C165.26 59.9286 164.449 60.108 163.628 60.108C162.807 60.108 161.996 59.9286 161.252 59.5824C160.509 59.2362 159.851 58.7318 159.325 58.1047C158.245 56.302 157.674 54.2425 157.674 52.1439C157.674 50.0454 158.245 47.9859 159.325 46.1832C159.851 45.5561 160.509 45.0517 161.252 44.7055C161.996 44.3593 162.807 44.1799 163.628 44.1799C164.449 44.1799 165.26 44.3593 166.004 44.7055C166.748 45.0517 167.406 45.5561 167.932 46.1832C169.012 47.9858 169.583 50.0454 169.583 52.1439C169.583 54.2425 169.012 56.3021 167.932 58.1047Z" fill="white"/>
<path d="M180.716 44.4146C181.461 43.4727 182.405 42.7058 183.482 42.1685C184.559 41.6312 185.742 41.3368 186.946 41.3061C191.649 41.3061 194 43.8533 194.001 48.9476V62.5101H190.287V49.1051C190.399 47.8196 190.078 46.5336 189.373 45.45C188.991 45.0506 188.523 44.7427 188.004 44.5498C187.485 44.3568 186.929 44.2838 186.377 44.3363C184.49 44.3363 182.604 45.444 180.717 47.6592V62.5123H177V41.7767H180.714L180.716 44.4146Z" fill="white"/>
</g>
</mask>
<g mask="url(#mask0)">
<rect width="194" height="63" fill="white"/>
</g>
<defs>
<clipPath id="clip0">
<rect width="194" height="63" fill="white"/>
</clipPath>
</defs>
</svg>
