<svg width="45" height="45" viewBox="0 0 45 45" fill="none" xmlns="http://www.w3.org/2000/svg">
<circle cx="23" cy="23" r="20" fill="white"/>
<g clip-path="url(#clip0)">
<path d="M28.5417 12.4583C27.6618 12.4593 26.7876 12.5991 25.9513 12.8725C25.5054 12.3635 24.8681 12.0625 24.1917 12.0417C22.9369 12.1097 21.6957 12.335 20.4971 12.7121C20.2174 12.7939 19.9581 12.9339 19.7363 13.1229C18.6994 12.6832 17.5845 12.4572 16.4583 12.4583C12.8371 12.4583 10 15.9583 10 20.425C10 25.115 13.0325 31.5462 21.495 34.6358C21.5029 34.6396 21.5112 34.6421 21.5192 34.645C21.7969 34.7467 22.0811 34.8439 22.3717 34.9367C22.4131 34.9505 22.4564 34.9578 22.5 34.9583C22.5437 34.9584 22.5872 34.9515 22.6287 34.9379C23.4155 34.6828 24.1885 34.3871 24.9446 34.0521C24.955 34.0483 24.9658 34.05 24.9762 34.0454C24.9867 34.0408 24.9933 34.0321 25.0033 34.0271C32.3283 30.75 35 24.82 35 20.425C35 15.9583 32.1629 12.4583 28.5417 12.4583V12.4583ZM34.1667 20.425C34.1177 22.9537 33.3136 25.41 31.8579 27.4783C30.7783 25.0817 29.3996 22.9079 28.6529 22.1637C28.1094 21.5596 27.4175 21.1079 26.6458 20.8533L26.4742 19.6496C27.1862 19.1555 27.5855 18.3229 27.525 17.4583C27.5377 16.0944 27.1802 14.7526 26.4904 13.5758C27.1579 13.3875 27.8481 13.2918 28.5417 13.2917C31.6958 13.2917 34.1667 16.425 34.1667 20.425V20.425ZM10.8333 20.425C10.8333 16.425 13.3042 13.2917 16.4583 13.2917C17.3903 13.2933 18.3138 13.4678 19.1821 13.8062L18.3692 15.0242C18.1965 15.283 17.9341 15.4687 17.6325 15.5454L15.2129 16.1462C14.855 16.2368 14.6002 16.5531 14.5879 16.9221C14.5612 17.6304 14.6558 19.995 16.9762 20.77C17.0188 20.7843 17.0634 20.7916 17.1083 20.7917C18.3372 20.8058 19.5563 21.013 20.7208 21.4058L20.6192 21.625C19.9492 22.9124 19.5942 24.3404 19.5833 25.7917C19.6111 27.3863 20.2014 28.9199 21.25 30.1217V33.6487C13.5967 30.6371 10.8333 24.7433 10.8333 20.425V20.425ZM15.4167 16.9546L16.25 16.7462V17.4583H15.43C15.4158 17.2908 15.4114 17.1226 15.4167 16.9546ZM25.065 33.0796C25.0213 32.8754 24.9995 32.6671 25 32.4583C24.9783 31.4235 25.4449 30.4388 26.2596 29.8004C26.9499 29.3195 27.8346 29.2145 28.6183 29.5204C28.7597 29.5674 28.9155 29.5355 29.027 29.4365C29.1384 29.3376 29.1886 29.1867 29.1586 29.0407C29.1287 28.8947 29.0231 28.7758 28.8817 28.7287C27.8433 28.3404 26.6803 28.4886 25.7725 29.125C24.742 29.9211 24.1469 31.1563 24.1667 32.4583C24.165 32.7845 24.2071 33.1095 24.2917 33.4246C23.7217 33.6671 23.125 33.8954 22.4979 34.1033C22.3563 34.0567 22.2204 34.0067 22.0813 33.9579V29.9583C22.0813 29.8481 22.0377 29.7423 21.96 29.6642C20.9998 28.5989 20.4524 27.2253 20.4167 25.7917C20.4272 24.4619 20.7558 23.1539 21.375 21.9771L21.4767 21.7567C21.5723 21.5529 21.5798 21.3187 21.4975 21.1092C21.4123 20.8958 21.2431 20.7269 21.0296 20.6421C19.7919 20.2071 18.4918 19.9762 17.18 19.9583C16.4106 19.6947 15.8177 19.0728 15.5912 18.2917H16.25C16.7102 18.2917 17.0833 17.9186 17.0833 17.4583V16.5417L17.8371 16.3546C18.3392 16.227 18.7761 15.9178 19.0633 15.4867L20.0371 14.0283C20.0698 13.9798 20.1059 13.9335 20.145 13.89C20.2994 13.7116 20.5019 13.5814 20.7283 13.515C21.8527 13.1628 23.0156 12.9479 24.1917 12.875C24.7153 12.9182 25.1936 13.189 25.5 13.6158C26.302 14.7342 26.7201 16.0824 26.6917 17.4583C26.6917 18.2558 26.4075 18.7917 25.8462 19.0467C25.2534 19.273 24.5957 19.2592 24.0129 19.0083C23.8541 18.9453 23.7499 18.7917 23.75 18.6208V15.7917C23.75 15.5615 23.5635 15.375 23.3333 15.375C23.1032 15.375 22.9167 15.5615 22.9167 15.7917V18.6208C22.9186 19.1327 23.2305 19.5924 23.7054 19.7833C24.3302 20.038 25.0161 20.1038 25.6779 19.9725L25.8212 20.9725C25.8682 21.3012 26.1073 21.5698 26.4283 21.6546C27.0584 21.8747 27.6215 22.2526 28.0642 22.7521C28.7112 23.3954 30.1683 25.6412 31.2879 28.2521C29.6186 30.324 27.4876 31.9767 25.0654 33.0779L25.065 33.0796Z" fill="black"/>
</g>
<defs>
<clipPath id="clip0">
<rect width="25" height="25" fill="white" transform="translate(10 11)"/>
</clipPath>
</defs>
</svg>
