<svg width="45" height="45" viewBox="0 0 45 45" fill="none" xmlns="http://www.w3.org/2000/svg">
<circle cx="23" cy="23" r="20" fill="white"/>
<path d="M30.8678 19.3831V15.2316C30.8678 12.8452 29.2023 12 27.6362 12H18.339C16.7729 12 15.1074 12.8452 15.1074 15.2316V19.3831C13.9639 19.6814 13.1187 20.7006 13.1187 21.9435V28.6057C13.1187 30.5695 14.4362 31.3401 15.7288 31.4147V33.1051C15.7288 33.6023 16.1266 34 16.6237 34H17.5435C18.0407 34 18.4384 33.6023 18.4384 33.1051V31.4147H27.5616V33.1051C27.5616 33.6023 27.9593 34 28.4565 34H29.3763C29.8735 34 30.2712 33.6023 30.2712 33.1051V31.4147C32.1853 31.3153 32.8814 29.9232 32.8814 28.6057V21.9186C32.8316 20.7006 31.9864 19.6565 30.8678 19.3831ZM16.0023 15.2316C16.0023 13.1932 17.4689 12.8701 18.339 12.8701H27.6362C28.5062 12.8701 29.9729 13.1684 29.9729 15.2068V19.2836C28.6305 19.4079 27.5616 20.5266 27.5616 21.9186V22.5401H18.4136V21.9186C18.4136 20.5266 17.3446 19.4079 16.0023 19.2836V15.2316ZM27.5367 23.435V26.5175H18.4136V23.435H27.5367ZM17.5435 33.1051H16.6237V31.4147H17.5435V33.1051ZM29.3514 33.1051H28.4316V31.4147H29.3514V33.1051ZM31.9864 28.6057H31.9616C31.9616 29.4757 31.6384 30.5446 30.0226 30.5446H29.3514H28.4316H17.5435H16.6237H15.9526C15.0825 30.5446 14.0136 30.2215 14.0136 28.6057V21.9186C14.0136 20.9492 14.809 20.1537 15.7785 20.1537C16.748 20.1537 17.5435 20.9492 17.5435 21.9186V26.965C17.5435 27.2136 17.7424 27.4124 17.991 27.4124H28.009C28.2576 27.4124 28.4565 27.2136 28.4565 26.965V21.9186C28.4565 20.9492 29.252 20.1537 30.2215 20.1537C31.191 20.1537 31.9864 20.9492 31.9864 21.9186V28.6057V28.6057Z" fill="black"/>
</svg>
