<svg width="45" height="45" viewBox="0 0 45 45" fill="none" xmlns="http://www.w3.org/2000/svg">
<circle cx="23" cy="23" r="20" fill="white"/>
<g clip-path="url(#clip0)">
<path d="M33.4695 21.0257V20.9979V16.7989C33.4695 14.908 32.1348 14.2128 30.8834 14.2128H15.0332C13.7818 14.2128 12.4471 14.8802 12.4471 16.7989V20.9979V21.0257C11.1957 21.1647 10 21.9989 10 23.9176V27.1989C10 27.7551 10.4449 28.2 11.0011 28.2H11.3348V30.7861C11.3348 31.3422 11.7797 31.7872 12.3358 31.7872H13.2813C13.8374 31.7872 14.2824 31.3422 14.2824 30.7861V28.1722H31.7176V30.7861C31.7176 31.3422 32.1626 31.7872 32.7187 31.7872H33.6642C34.2203 31.7872 34.6652 31.3422 34.6652 30.7861V28.1722H34.9989C35.5551 28.1722 36 27.7273 36 27.1711V23.9176C35.9166 21.9989 34.7209 21.1647 33.4695 21.0257ZM13.3925 16.7989H13.4481C13.4481 15.492 14.3102 15.2139 15.0332 15.2139H30.8834C31.6064 15.2139 32.4684 15.492 32.4684 16.7989V20.9979H31.7176V18.6064C31.7176 18.0503 31.2727 17.6053 30.7166 17.6053H24.5989C24.0428 17.6053 23.5979 18.0503 23.5979 18.6064V20.9979H22.4299V18.6064C22.4299 18.0503 21.985 17.6053 21.4289 17.6053H15.3112C14.7551 17.6053 14.3102 18.0503 14.3102 18.6064V20.9979H13.3925V16.7989ZM30.7166 18.6064V20.9979H24.5989V18.6064H30.7166V18.6064ZM21.4845 18.6064V20.9979H15.3668V18.6064H21.4845V18.6064ZM13.2535 30.7861H12.308V28.1722H13.2535V30.7861V30.7861ZM33.6086 30.7861H32.6631V28.1722H33.6086V30.7861ZM34.9155 27.1989H33.6086H32.6631H13.2535H12.308H10.9733V25.7251H34.9155V27.1989ZM34.9155 24.7241H10.9733V23.9176C10.9733 22.2492 12.1968 21.9989 12.892 21.9989H13.4203H15.339H21.4567H24.5989H30.7166H32.4684H32.9968C33.7198 21.9989 34.9155 22.2492 34.9155 23.9176V24.7241V24.7241Z" fill="black"/>
</g>
<defs>
<clipPath id="clip0">
<rect width="26" height="26" fill="white" transform="translate(10 10)"/>
</clipPath>
</defs>
</svg>
