<svg width="45" height="45" viewBox="0 0 45 45" fill="none" xmlns="http://www.w3.org/2000/svg">
<circle cx="23" cy="23" r="20" fill="white"/>
<path d="M35.496 15.2252C35.4943 15.2252 35.4926 15.2252 35.491 15.2252H33.7825V14.6406C33.7917 14.4092 33.642 14.2012 33.4197 14.1366C32.2336 13.8258 31.0122 13.6699 29.786 13.673C27.7701 13.673 25.0235 14.1265 22.9924 16.1928C20.9765 14.1064 18.2097 13.673 16.1989 13.673C14.9727 13.6699 13.7513 13.8258 12.5652 14.1366C12.3428 14.2012 12.1932 14.4092 12.2024 14.6406V15.2202H10.504C10.2257 15.2202 10 15.4458 10 15.7241V31.821C10 32.0994 10.2257 32.325 10.504 32.325C10.5905 32.3248 10.6756 32.3022 10.7509 32.2595C10.8013 32.2343 15.8411 29.4776 22.8765 31.2516H22.9521H22.9975C23.0377 31.2564 23.0782 31.2564 23.1184 31.2516C30.1741 29.4624 35.2138 32.2141 35.244 32.2595C35.4 32.3495 35.5921 32.3495 35.748 32.2595C35.903 32.17 35.9989 32.0051 36 31.8261V15.7292C36 15.4508 35.7744 15.2252 35.496 15.2252ZM11.0079 31.0197V16.2331H12.2124V28.8728C12.2093 29.1511 12.4324 29.3793 12.7107 29.3824C12.7379 29.3828 12.7651 29.3809 12.792 29.3768C13.8346 29.2176 14.8872 29.1334 15.9418 29.1248C17.4027 29.0995 18.8575 29.3192 20.2458 29.7749C17.1108 29.3958 13.9308 29.8243 11.0079 31.0197ZM15.9418 28.1219C15.0252 28.124 14.1096 28.1829 13.2002 28.2983V15.0387C14.1815 14.8201 15.1835 14.7086 16.1888 14.7061C18.0737 14.7061 20.6742 15.1395 22.4784 17.1756L22.4935 29.7296C21.4452 29.0442 19.3991 28.1219 15.9418 28.1219ZM23.5015 17.1756C25.3057 15.1597 27.9062 14.7061 29.791 14.7061C30.7963 14.7091 31.7983 14.8206 32.7796 15.0387V28.2983C31.8754 28.1818 30.9648 28.1212 30.0531 28.1168C26.616 28.1168 24.5648 29.0391 23.5015 29.7245V17.1756V17.1756ZM34.987 31.0197C32.0579 29.821 28.8707 29.3925 25.729 29.7749C27.1238 29.3176 28.5855 29.0978 30.0531 29.1248C31.1144 29.1307 32.1738 29.2132 33.2231 29.3717C33.4983 29.4135 33.7552 29.2243 33.797 28.9491C33.8011 28.9222 33.803 28.895 33.8027 28.8678V16.2331H35.0072L34.987 31.0197Z" fill="black"/>
</svg>
