<svg width="40" height="40" viewBox="0 0 40 40" fill="none" xmlns="http://www.w3.org/2000/svg">
<circle cx="20" cy="20" r="20" fill="white"/>
<mask id="mask0" mask-type="alpha" maskUnits="userSpaceOnUse" x="6" y="12" width="28" height="16">
<path d="M12.4404 22.5142C11.6283 22.5142 10.9676 23.1749 10.9676 23.987C10.9676 24.799 11.6283 25.4597 12.4404 25.4597C13.2526 25.4597 13.9132 24.799 13.9132 23.987C13.9132 23.1749 13.2526 22.5142 12.4404 22.5142ZM12.4404 24.6761C12.0604 24.6761 11.7513 24.3669 11.7513 23.987C11.7513 23.6071 12.0604 23.2979 12.4404 23.2979C12.8204 23.2979 13.1295 23.6071 13.1295 23.987C13.1295 24.3669 12.8204 24.6761 12.4404 24.6761Z" fill="black"/>
<path d="M28.6129 22.5142C27.8008 22.5142 27.1401 23.1749 27.1401 23.987C27.1401 24.799 27.8008 25.4597 28.6129 25.4597C29.4251 25.4597 30.0857 24.799 30.0857 23.987C30.0857 23.1749 29.4251 22.5142 28.6129 22.5142ZM28.6129 24.6761C28.2329 24.6761 27.9238 24.3669 27.9238 23.987C27.9238 23.6071 28.2329 23.2979 28.6129 23.2979C28.9928 23.2979 29.302 23.6071 29.302 23.987C29.302 24.3669 28.9929 24.6761 28.6129 24.6761Z" fill="black"/>
<path d="M32.9405 22.7417V19.3663C32.9405 18.3535 32.1164 17.5294 31.1035 17.5294H30.0592L29.4382 16.2912C29.3413 16.0977 29.1058 16.0196 28.9122 16.1166C28.7188 16.2136 28.6407 16.4491 28.7377 16.6425L29.1825 17.5294H28.3057L27.0073 14.9409C26.8834 14.6937 26.6346 14.5401 26.358 14.5401H18.0883C17.8599 14.5401 17.6422 14.6495 17.5059 14.8326L15.4965 17.5294H14.5191L17.0687 14.1075C17.2325 13.8877 17.4941 13.7563 17.7683 13.7563H26.7516C27.0837 13.7563 27.3825 13.9407 27.5314 14.2377L27.9889 15.1497C28.0859 15.3431 28.3214 15.4212 28.5148 15.3242C28.7083 15.2272 28.7865 14.9917 28.6894 14.7982L28.232 13.8862C27.9494 13.3227 27.3821 12.9726 26.7516 12.9726H17.7682C17.2477 12.9726 16.7512 13.2218 16.4401 13.6392L13.5417 17.5294H10.3162C8.44639 17.5294 6.9252 19.0507 6.9252 20.9204V22.7903C6.74812 22.9143 6.63187 23.1195 6.63187 23.3516V24.4177C6.63187 24.7955 6.93925 25.1028 7.31702 25.1028H9.61156C9.78173 25.5354 10.0504 25.9262 10.406 26.2463C10.969 26.7533 11.6847 27.0274 12.4367 27.0274C12.4907 27.0274 12.5451 27.026 12.5994 27.0232C13.824 26.959 14.8426 26.1745 15.2675 25.1028H25.7856C26.2316 26.2287 27.3303 27.0273 28.6129 27.0273C29.8955 27.0273 30.9942 26.2287 31.4402 25.1028H32.6142C33.0298 25.1028 33.368 24.7647 33.368 24.3491V23.4202C33.368 23.1215 33.193 22.8636 32.9405 22.7417ZM32.1567 20.7523H31.6068C31.5748 20.7523 31.5488 20.7262 31.5488 20.6942V19.6349C31.5488 19.6029 31.5748 19.5768 31.6068 19.5768H32.1567V20.7523ZM31.9858 18.7931H31.6068C31.1426 18.7931 30.765 19.1707 30.765 19.6349V20.6942C30.765 21.1584 31.1427 21.536 31.6068 21.536H32.1567V22.6663H31.3511C30.8587 21.6496 29.8163 20.9467 28.6129 20.9467C28.2885 20.9467 27.9761 20.9982 27.6827 21.0927V18.3131H31.1035C31.4728 18.3132 31.7977 18.5047 31.9858 18.7931ZM27.4288 17.5294H26.1347V15.3239H26.3227L27.4288 17.5294ZM21.3777 17.5294V15.3239H25.3509V17.5294H21.3777ZM18.1171 15.3239H20.5939V17.5294H16.4737L18.1171 15.3239ZM15.1797 22.6664C14.9822 22.2558 14.6952 21.8959 14.3412 21.6126V19.6867C14.3412 19.6803 14.3429 19.6741 14.3462 19.6686L15.1452 18.3132H20.5939V22.6664H15.1797ZM9.14643 18.5914V19.725C9.14643 20.045 8.88617 20.3052 8.56625 20.3052H7.78287C7.96507 19.5552 8.4722 18.9314 9.14643 18.5914ZM7.41561 24.3192V23.4502H9.44749C9.40721 23.6764 9.39185 23.9096 9.40423 24.1461C9.40726 24.2042 9.41238 24.2618 9.4186 24.3192H7.41561ZM12.5585 26.2405C11.9576 26.2722 11.3784 26.0673 10.9305 25.6639C10.4826 25.2606 10.2185 24.707 10.187 24.1051C10.1393 23.1956 10.6384 22.3516 11.4583 21.9547C11.6531 21.8605 11.7346 21.6262 11.6402 21.4313C11.546 21.2366 11.3118 21.155 11.1168 21.2493C10.4831 21.556 9.99219 22.0612 9.70048 22.6673C9.69468 22.6671 9.68899 22.6664 9.68313 22.6664H7.70889V21.089H8.5662C9.31833 21.089 9.93012 20.4772 9.93012 19.725V18.3419C10.0561 18.3232 10.185 18.3132 10.3162 18.3132H14.2353L13.6709 19.2707C13.5967 19.3967 13.5574 19.5406 13.5574 19.6868V21.159C13.3864 21.0917 13.2076 21.0387 13.0218 21.0027C12.809 20.9615 12.6037 21.1002 12.5624 21.3127C12.5212 21.5252 12.6599 21.7308 12.8724 21.7721C13.8905 21.9697 14.6396 22.8321 14.6939 23.8691C14.759 25.1116 13.801 26.1754 12.5585 26.2405ZM15.4622 24.3192C15.4798 24.1585 15.4853 23.9944 15.4766 23.8279C15.4699 23.6998 15.4551 23.5737 15.4331 23.4502H22.8749C23.0913 23.4502 23.2667 23.2747 23.2667 23.0583C23.2667 22.8419 23.0913 22.6664 22.8749 22.6664H21.3777V18.3132H26.899V21.4775C26.4623 21.7767 26.1072 22.1865 25.8747 22.6665H24.5449C24.3285 22.6665 24.1531 22.8419 24.1531 23.0583C24.1531 23.2747 24.3285 23.4502 24.5449 23.4502H25.621C25.5897 23.6247 25.5726 23.8038 25.5726 23.9871C25.5726 24.0993 25.5792 24.2101 25.5911 24.3192H15.4622ZM28.6129 26.2436C27.3687 26.2436 26.3563 25.2313 26.3563 23.987C26.3563 22.7427 27.3687 21.7305 28.6129 21.7305C29.8572 21.7305 30.8694 22.7427 30.8694 23.987C30.8694 25.2313 29.8572 26.2436 28.6129 26.2436ZM32.5842 24.3192H31.6347C31.6467 24.21 31.6532 24.0992 31.6532 23.987C31.6532 23.8038 31.6361 23.6246 31.6048 23.4502H32.5842V24.3192Z" fill="black"/>
<path d="M19.2537 19.2648H18.9722C18.7557 19.2648 18.5803 19.4402 18.5803 19.6567C18.5803 19.8731 18.7557 20.0486 18.9722 20.0486H19.2537C19.4702 20.0486 19.6455 19.8731 19.6455 19.6567C19.6455 19.4402 19.4702 19.2648 19.2537 19.2648Z" fill="black"/>
</mask>
<g mask="url(#mask0)">
<path d="M34.5833 5.41667H5.41666V34.5833H34.5833V5.41667Z" fill="#212121"/>
</g>
</svg>
