<svg width="45" height="45" viewBox="0 0 45 45" fill="none" xmlns="http://www.w3.org/2000/svg">
<circle cx="23" cy="23" r="20" fill="white"/>
<path d="M34.4766 11.2695H11.5234C10.6834 11.2695 10 11.9529 10 12.793V27.9258C10 28.7658 10.6834 29.4492 11.5234 29.4492H18.9883V33.207H14.875C14.4543 33.207 14.1133 33.5481 14.1133 33.9688C14.1133 34.3894 14.4543 34.7305 14.875 34.7305H31.125C31.5457 34.7305 31.8867 34.3894 31.8867 33.9688C31.8867 33.5481 31.5457 33.207 31.125 33.207H27.0117V29.4492H34.4766C35.3166 29.4492 36 28.7658 36 27.9258V12.793C36 11.9529 35.3166 11.2695 34.4766 11.2695ZM25.4883 33.207H20.5117V29.4492H25.4883V33.207ZM34.4766 27.9258C33.8084 27.9258 12.0589 27.9258 11.5234 27.9258V12.793H34.4766C34.4775 28.2544 34.4816 27.9258 34.4766 27.9258Z" fill="black"/>
</svg>
