<svg width="45" height="45" viewBox="0 0 45 45" fill="none" xmlns="http://www.w3.org/2000/svg">
<circle cx="23" cy="23" r="20" fill="white"/>
<path d="M35.5486 15.4844H10.4514C10.1806 15.4844 10 15.6649 10 15.9357V18.6892C10 18.9601 10.1806 19.1406 10.4514 19.1406H11.7153V30.0642C11.7153 30.3351 11.8958 30.5156 12.1667 30.5156H14.1076C14.3785 30.5156 14.559 30.3351 14.559 30.0642V19.1406H22.2326V21.6232V24.5573C22.2326 24.8281 22.4132 25.0087 22.684 25.0087H31.3958V30.0642C31.3958 30.3351 31.5764 30.5156 31.8472 30.5156H33.8333C34.1042 30.5156 34.2847 30.3351 34.2847 30.0642V19.1406H35.5486C35.8194 19.1406 36 18.9601 36 18.6892V15.9357C36 15.6649 35.7743 15.4844 35.5486 15.4844ZM13.6563 29.5677H12.6181V19.1406H13.6563V29.5677ZM31.3958 24.1059H23.1354V22.0746H26.25V22.526H28.2813V22.0746H31.3958V24.1059ZM31.3958 21.1719H23.1354V19.1406H26.25V19.6371H28.2813V19.592V19.0955H31.3958V21.1719ZM33.3819 29.5677H32.3438V24.5573V21.6232V19.1406H33.3819V29.5677ZM33.8333 18.2378H31.8924H22.684H14.1076H12.1667H10.9028V16.3871H35.0521V18.2378H33.8333Z" fill="black"/>
</svg>
