<svg width="45" height="45" viewBox="0 0 45 45" fill="none" xmlns="http://www.w3.org/2000/svg">
<circle cx="23" cy="23" r="20" fill="white"/>
<path d="M34.9501 21.4501H22.4642C22.4642 21.4217 22.4642 21.4217 22.4642 21.3933V20.2299C22.4642 20.2015 22.4642 20.2015 22.4642 20.1731H26.5505C27.1464 20.1731 27.6005 19.6907 27.6005 19.1232V12.3127C27.6005 11.7168 27.118 11.2628 26.5505 11.2628H14.7174C14.1215 11.2628 13.6674 11.7452 13.6674 12.3127V19.1232C13.6674 19.7191 14.1498 20.1731 14.7174 20.1731H18.7753C18.7753 20.2015 18.7753 20.2015 18.7753 20.2299V21.4217C18.7753 21.4501 18.7753 21.4501 18.7753 21.4784H12.0499C11.454 21.4784 11 21.9608 11 22.5284V23.2094C11 23.777 11.4824 24.2594 12.0499 24.2594H13.4404V33.2265C13.4404 33.5102 13.6674 33.7372 13.9512 33.7372C14.235 33.7372 14.462 33.5102 14.462 33.2265V24.2594H24.5074C24.5074 24.2877 24.5074 24.2877 24.5074 24.3161V32.6873C24.5074 33.2832 24.9898 33.7372 25.5573 33.7372H32.9069C33.5028 33.7372 33.9569 33.2548 33.9569 32.6873V24.3161C33.9569 24.2877 33.9569 24.2877 33.9569 24.2594H34.9501C35.546 24.2594 36 23.777 36 23.2094V22.5C36 21.9041 35.5176 21.4501 34.9501 21.4501ZM14.7174 19.1799C14.689 19.1515 14.6606 19.1515 14.6606 19.1232V12.3127C14.6606 12.2843 14.689 12.256 14.7174 12.256H26.5505C26.5789 12.256 26.6073 12.2843 26.6073 12.3127V19.1232C26.6073 19.1515 26.5789 19.1799 26.5505 19.1799H21.4143H19.8252H14.7174ZM21.4711 20.2299V21.4217C21.4711 21.4501 21.4427 21.4784 21.4143 21.4784H19.8252C19.7968 21.4501 19.7684 21.4217 19.7684 21.3933V20.2299C19.7684 20.2015 19.7968 20.1731 19.8252 20.1731H21.4143C21.4427 20.1731 21.4711 20.2015 21.4711 20.2299ZM32.9921 32.6873C32.9921 32.7157 32.9637 32.744 32.9353 32.744H25.5857C25.5573 32.744 25.5289 32.7157 25.5289 32.6873V30.5307H32.9921V32.6873ZM32.9921 29.5375H25.5289V27.2106H32.9921V29.5375ZM32.9921 26.189H25.5289V24.3161C25.5289 24.2877 25.5573 24.2594 25.5857 24.2594H32.9353C32.9637 24.2594 32.9921 24.2877 32.9921 24.3161V26.189V26.189ZM35.0068 23.181C35.0068 23.2094 34.9784 23.2378 34.9501 23.2378H32.9069H25.5857H12.0499C12.0216 23.2378 11.9932 23.2094 11.9932 23.181V22.5H12.0216C12.0216 22.4716 12.0499 22.4432 12.0783 22.4432H19.8252H21.4143H34.9501C34.9784 22.4432 35.0068 22.4716 35.0068 22.5V23.181V23.181Z" fill="black"/>
<path d="M29.9841 24.6566H28.5085C28.2248 24.6566 27.9977 24.8837 27.9977 25.1674C27.9977 25.4512 28.2248 25.6782 28.5085 25.6782H29.9841C30.2679 25.6782 30.4949 25.4512 30.4949 25.1674C30.4949 24.8837 30.2679 24.6566 29.9841 24.6566Z" fill="black"/>
<path d="M29.9841 27.8632H28.5085C28.2248 27.8632 27.9977 28.0902 27.9977 28.374C27.9977 28.6578 28.2248 28.8848 28.5085 28.8848H29.9841C30.2679 28.8848 30.4949 28.6578 30.4949 28.374C30.4949 28.0902 30.2679 27.8632 29.9841 27.8632Z" fill="black"/>
<path d="M29.9841 31.1549H28.5085C28.2248 31.1549 27.9977 31.382 27.9977 31.6657C27.9977 31.9495 28.2248 32.1765 28.5085 32.1765H29.9841C30.2679 32.1765 30.4949 31.9495 30.4949 31.6657C30.4949 31.382 30.2679 31.1549 29.9841 31.1549Z" fill="black"/>
</svg>
