<svg width="45" height="45" viewBox="0 0 45 45" fill="none" xmlns="http://www.w3.org/2000/svg">
<circle cx="23" cy="23" r="20" fill="white"/>
<g clip-path="url(#clip0)">
<path d="M15.7611 14.6436C15.7169 14.5552 15.6728 14.511 15.6286 14.4226C15.1867 14.0692 14.3915 13.9366 13.7729 13.8924C13.7287 13.8924 13.7287 13.8924 13.6845 13.8924H13.6403H13.552C13.5078 13.8924 13.5078 13.8924 13.4636 13.8924C12.845 13.9366 12.0498 14.025 11.6079 14.4226C11.5637 14.4668 11.4754 14.5552 11.4754 14.6436L10.0173 19.4153C9.97315 19.5479 10.0173 19.6804 10.1057 19.813C10.1941 19.9455 10.3266 19.9897 10.4592 19.9897H11.387V21.0059C11.1219 21.1385 10.9452 21.4477 10.9452 21.757C10.9452 22.243 11.3428 22.6407 11.8288 22.6407C12.3149 22.6407 12.7125 22.243 12.7125 21.757C12.7125 21.4477 12.5358 21.1385 12.2707 21.0059V19.9897H13.1543V29.2239H11.4312C11.1661 29.2239 10.9894 29.4007 10.9894 29.6658C10.9894 29.9309 11.1661 30.1076 11.4312 30.1076H15.7169C15.982 30.1076 16.1588 29.9309 16.1588 29.6658C16.1588 29.4007 15.982 29.2239 15.7169 29.2239H13.9938V19.9897H16.7332V19.9455C16.8657 19.9455 16.9983 19.9013 17.0866 19.7688C17.175 19.6362 17.175 19.5037 17.175 19.3711L15.7611 14.6436ZM11.0335 19.0618L12.2265 15.0853C12.4474 14.9528 12.9776 14.8644 13.5078 14.8644H13.552H13.5962H13.6403C14.2147 14.8644 14.7007 14.997 14.9216 15.0853L16.1146 19.0618H11.0335Z" fill="black"/>
<path d="M35.0691 24.3638H34.8482V22.0221C34.8482 20.6082 34.0087 19.7245 32.5507 19.7245H28.6184C27.7789 19.7245 27.1603 20.0338 26.7627 20.5198C26.365 19.9896 25.7465 19.7245 24.907 19.7245H20.9747C19.5609 19.7245 18.6772 20.564 18.6772 22.0221V24.3638H18.4563C17.9261 24.3638 17.4843 24.8056 17.4843 25.3358V27.7659C17.4843 28.2961 17.9261 28.7379 18.4563 28.7379H18.6772V29.6216C18.6772 29.8867 18.8539 30.0634 19.119 30.0634C19.3841 30.0634 19.5609 29.8867 19.5609 29.6216V28.7379H33.9203V29.6216C33.9203 29.8867 34.0971 30.0634 34.3622 30.0634C34.6273 30.0634 34.804 29.8867 34.804 29.6216V28.7379H35.0249C35.5551 28.7379 35.9969 28.2961 35.9969 27.7659V25.3358C36.0411 24.8056 35.5993 24.3638 35.0691 24.3638ZM27.2045 22.0221C27.2045 21.0501 27.6905 20.6083 28.6184 20.6083H32.5507C33.4785 20.6083 33.9645 21.0501 33.9645 22.0221V24.3638H27.2045V22.0221ZM19.5609 22.0221C19.5609 21.0943 20.0027 20.6083 20.9747 20.6083H24.907C25.8348 20.6083 26.3209 21.0501 26.3209 22.0221V24.3638H19.5609V22.0221ZM35.1575 27.7659C35.1575 27.8101 35.1133 27.8543 35.0691 27.8543H18.5005C18.4563 27.8543 18.4121 27.8101 18.4121 27.7659V25.3359C18.4121 25.2917 18.4563 25.2475 18.5005 25.2475H35.0691C35.1133 25.2475 35.1575 25.2917 35.1575 25.3359V27.7659Z" fill="black"/>
<path d="M21.2398 22.9942C21.4838 22.9942 21.6817 22.7963 21.6817 22.5523C21.6817 22.3083 21.4838 22.1105 21.2398 22.1105C20.9958 22.1105 20.798 22.3083 20.798 22.5523C20.798 22.7963 20.9958 22.9942 21.2398 22.9942Z" fill="black"/>
<path d="M24.6861 22.9942C24.9301 22.9942 25.1279 22.7963 25.1279 22.5523C25.1279 22.3083 24.9301 22.1105 24.6861 22.1105C24.4421 22.1105 24.2443 22.3083 24.2443 22.5523C24.2443 22.7963 24.4421 22.9942 24.6861 22.9942Z" fill="black"/>
<path d="M28.8393 22.9942C29.0833 22.9942 29.2811 22.7963 29.2811 22.5523C29.2811 22.3083 29.0833 22.1105 28.8393 22.1105C28.5953 22.1105 28.3975 22.3083 28.3975 22.5523C28.3975 22.7963 28.5953 22.9942 28.8393 22.9942Z" fill="black"/>
<path d="M32.3298 22.9942C32.5738 22.9942 32.7716 22.7963 32.7716 22.5523C32.7716 22.3083 32.5738 22.1105 32.3298 22.1105C32.0858 22.1105 31.8879 22.3083 31.8879 22.5523C31.8879 22.7963 32.0858 22.9942 32.3298 22.9942Z" fill="black"/>
</g>
<defs>
<clipPath id="clip0">
<rect width="26" height="26" fill="white" transform="translate(10 9)"/>
</clipPath>
</defs>
</svg>
