<svg width="45" height="45" viewBox="0 0 45 45" fill="none" xmlns="http://www.w3.org/2000/svg">
<circle cx="23" cy="23" r="20" fill="white"/>
<path d="M33.2212 11.1694C33.1365 11.0847 32.9953 11 32.8259 11H13.1741C13.0329 11 12.8918 11.0565 12.7788 11.1694C12.6941 11.2824 12.6376 11.4235 12.6659 11.5929L15.9412 34.5482C15.9694 34.8024 16.1953 35 16.4494 35H29.5506C29.8047 35 30.0306 34.8024 30.0588 34.5482L33.3341 11.5929C33.3624 11.4518 33.3059 11.2824 33.2212 11.1694ZM29.0988 33.9553H16.9012L14.7271 18.7647C16.2235 18.1718 17.0424 18.5106 18.0588 18.9341C18.7647 19.2165 19.5271 19.5553 20.5435 19.5553C21.2776 19.5553 22.1247 19.3859 23.1976 18.9341C24.92 18.1435 25.7953 18.5106 26.8965 18.9624C27.6024 19.2447 28.3647 19.5835 29.3812 19.5835C29.9176 19.5835 30.5106 19.4988 31.2165 19.2729L29.0988 33.9553ZM31.3859 18.0588C29.4094 18.8494 28.3929 18.4259 27.32 17.9741C26.1906 17.4941 24.9482 16.9859 22.8024 17.9741C20.6565 18.9059 19.6118 18.4541 18.4824 17.9741C17.4659 17.5506 16.3647 17.0988 14.5859 17.72L13.7671 12.0447H32.2329L31.3859 18.0588Z" fill="black"/>
</svg>
