<svg width="45" height="45" viewBox="0 0 45 45" fill="none" xmlns="http://www.w3.org/2000/svg">
<circle cx="23" cy="23" r="20" fill="white"/>
<path d="M25.1667 11.3H20.8334C20.5942 11.3 20.4001 11.4941 20.4001 11.7333C20.4001 11.9725 20.5942 12.1666 20.8334 12.1666H25.1667C25.4059 12.1666 25.6 11.9725 25.6 11.7333C25.6 11.4941 25.4059 11.3 25.1667 11.3Z" fill="black"/>
<path d="M28.2 11.3H27.7667C27.5275 11.3 27.3334 11.4941 27.3334 11.7333C27.3334 11.9725 27.5275 12.1666 27.7667 12.1666H28.2C28.4392 12.1666 28.6333 11.9725 28.6333 11.7333C28.6333 11.4941 28.4392 11.3 28.2 11.3Z" fill="black"/>
<path d="M23.5382 32.1H22.4622C21.8031 32.1 21.2667 32.6365 21.2667 33.2955V33.5049C21.2667 34.164 21.8031 34.7 22.4618 34.7H23.5378C24.1969 34.7 24.7333 34.164 24.7333 33.5049V33.2955C24.7333 32.6365 24.1969 32.1 23.5382 32.1ZM23.8667 33.5049C23.8667 33.686 23.7194 33.8333 23.5382 33.8333H22.4622C22.2807 33.8333 22.1333 33.686 22.1333 33.5049V33.2955C22.1333 33.114 22.2806 32.9666 22.4622 32.9666H23.5378C23.7194 32.9666 23.8667 33.114 23.8667 33.2955V33.5049V33.5049Z" fill="black"/>
<path d="M28.8006 10H17.1998C16.3362 10 15.6333 10.7029 15.6333 11.5665V34.4335C15.6333 35.2971 16.3362 36 17.1998 36H28.8001C29.6638 36 30.3666 35.2971 30.3666 34.434V11.5665C30.3667 10.7029 29.6638 10 28.8006 10ZM29.5 34.4335C29.5 34.8192 29.1863 35.1333 28.8006 35.1333H17.1998C16.8137 35.1333 16.5 34.8191 16.5 34.4339V11.5665C16.5 11.1808 16.8137 10.8667 17.1998 10.8667H28.8001C29.1862 10.8667 29.5 11.1809 29.5 11.5665V34.4335H29.5Z" fill="black"/>
<path d="M29.9333 12.6H16.0667C15.8275 12.6 15.6334 12.7941 15.6334 13.0333V31.2333C15.6334 31.4725 15.8275 31.6666 16.0667 31.6666H29.9334C30.1725 31.6666 30.3667 31.4725 30.3667 31.2333V13.0333C30.3667 12.7941 30.1725 12.6 29.9333 12.6ZM29.5 30.8H16.5V13.4667H29.5V30.8Z" fill="black"/>
</svg>
