<svg width="45" height="45" viewBox="0 0 45 45" fill="none" xmlns="http://www.w3.org/2000/svg">
<circle cx="23" cy="23" r="20" fill="white"/>
<path d="M34.9081 21.9081H21.9228C21.9228 21.8786 21.9228 21.8786 21.9228 21.849V20.6391C21.9228 20.6095 21.9228 20.6095 21.9228 20.58H26.1725C26.7923 20.58 27.2645 20.0783 27.2645 19.4881V12.4052C27.2645 11.7855 26.7628 11.3133 26.1725 11.3133H13.8661C13.2463 11.3133 12.7741 11.815 12.7741 12.4052V19.4881C12.7741 20.1078 13.2758 20.58 13.8661 20.58H18.0863C18.0863 20.6095 18.0863 20.6095 18.0863 20.6391V21.8786C18.0863 21.9081 18.0863 21.9081 18.0863 21.9376H11.0919C10.4722 21.9376 10 22.4393 10 23.0295V23.7378C10 24.328 10.5017 24.8298 11.0919 24.8298H12.538V34.1555C12.538 34.4506 12.7741 34.6867 13.0692 34.6867C13.3644 34.6867 13.6005 34.4506 13.6005 34.1555V24.8298H24.0477C24.0477 24.8593 24.0477 24.8593 24.0477 24.8888V33.5948C24.0477 34.2145 24.5494 34.6867 25.1396 34.6867H32.7832C33.403 34.6867 33.8751 34.185 33.8751 33.5948V24.8888C33.8751 24.8593 33.8751 24.8593 33.8751 24.8298H34.9081C35.5278 24.8298 36 24.328 36 23.7378V23C36 22.3803 35.4983 21.9081 34.9081 21.9081ZM13.8661 19.5471C13.8365 19.5176 13.807 19.5176 13.807 19.4881V12.4052C13.807 12.3757 13.8365 12.3462 13.8661 12.3462H26.1725C26.202 12.3462 26.2316 12.3757 26.2316 12.4052V19.4881C26.2316 19.5176 26.202 19.5471 26.1725 19.5471H20.8309H19.1782H13.8661ZM20.8899 20.6391V21.8786C20.8899 21.9081 20.8604 21.9376 20.8309 21.9376H19.1782C19.1487 21.9081 19.1192 21.8786 19.1192 21.849V20.6391C19.1192 20.6095 19.1487 20.58 19.1782 20.58H20.8309C20.8604 20.58 20.8899 20.6095 20.8899 20.6391ZM32.8717 33.5948C32.8717 33.6243 32.8422 33.6538 32.8127 33.6538H25.1691C25.1396 33.6538 25.1101 33.6243 25.1101 33.5948V31.3519H32.8717V33.5948ZM32.8717 30.319H25.1101V27.899H32.8717V30.319ZM32.8717 26.8366H25.1101V24.8888C25.1101 24.8593 25.1396 24.8298 25.1691 24.8298H32.8127C32.8422 24.8298 32.8717 24.8593 32.8717 24.8888V26.8366V26.8366ZM34.9671 23.7083C34.9671 23.7378 34.9376 23.7673 34.9081 23.7673H32.7832H25.1691H11.0919C11.0624 23.7673 11.0329 23.7378 11.0329 23.7083V23H11.0624C11.0624 22.9705 11.0919 22.941 11.1215 22.941H19.1782H20.8309H34.9081C34.9376 22.941 34.9671 22.9705 34.9671 23V23.7083V23.7083Z" fill="black"/>
<path d="M29.7435 25.2429H28.2089C27.9137 25.2429 27.6776 25.479 27.6776 25.7741C27.6776 26.0692 27.9137 26.3053 28.2089 26.3053H29.7435C30.0386 26.3053 30.2747 26.0692 30.2747 25.7741C30.2747 25.479 30.0386 25.2429 29.7435 25.2429Z" fill="black"/>
<path d="M29.7435 28.5778H28.2089C27.9137 28.5778 27.6776 28.8139 27.6776 29.109C27.6776 29.4041 27.9137 29.6402 28.2089 29.6402H29.7435C30.0386 29.6402 30.2747 29.4041 30.2747 29.109C30.2747 28.8139 30.0386 28.5778 29.7435 28.5778Z" fill="black"/>
<path d="M29.7435 32.0011H28.2089C27.9137 32.0011 27.6776 32.2372 27.6776 32.5323C27.6776 32.8275 27.9137 33.0636 28.2089 33.0636H29.7435C30.0386 33.0636 30.2747 32.8275 30.2747 32.5323C30.2747 32.2372 30.0386 32.0011 29.7435 32.0011Z" fill="black"/>
</svg>
