<svg width="45" height="45" viewBox="0 0 45 45" fill="none" xmlns="http://www.w3.org/2000/svg">
<path d="M9.7489 24.9119L9.673 26.4721C9.61397 27.5937 10.1115 28.5635 10.744 28.5635H19.852V19.27C19.852 18.2074 19.3713 17.3473 18.7725 17.3473H14.7583C14.2523 17.3473 13.1644 18.258 13.0548 19.1435L12.4054 21.9434C12.3379 22.5084 10.6007 23.1072 10.3224 23.3686C9.99347 23.6806 9.7742 24.2541 9.7489 24.9119Z" stroke="black" stroke-width="1.3" stroke-miterlimit="10"/>
<path d="M14.3872 30.7393C15.6773 30.7393 16.7232 29.6934 16.7232 28.4033C16.7232 27.1131 15.6773 26.0673 14.3872 26.0673C13.097 26.0673 12.0511 27.1131 12.0511 28.4033C12.0511 29.6934 13.097 30.7393 14.3872 30.7393Z" fill="white" stroke="black" stroke-width="1.3" stroke-miterlimit="10"/>
<path d="M33.2693 28.5635H19.852V16.8413C19.8542 16.1471 20.1315 15.4822 20.6231 14.9921C21.1147 14.5021 21.7806 14.2269 22.4747 14.2269H33.2693C33.962 14.2292 34.6257 14.5053 35.1155 14.9951C35.6053 15.4849 35.8814 16.1486 35.8836 16.8413V25.789C35.8836 27.2226 34.703 28.4033 33.2693 28.5635Z" stroke="black" stroke-width="1.3" stroke-miterlimit="10"/>
<path d="M29.8032 30.7393C31.0934 30.7393 32.1393 29.6934 32.1393 28.4033C32.1393 27.1131 31.0934 26.0673 29.8032 26.0673C28.5131 26.0673 27.4672 27.1131 27.4672 28.4033C27.4672 29.6934 28.5131 30.7393 29.8032 30.7393Z" fill="white" stroke="black" stroke-width="1.3" stroke-miterlimit="10"/>
<path d="M19.852 23.765H35.8836" stroke="black" stroke-width="1.3" stroke-miterlimit="10"/>
</svg>
