<svg width="45" height="45" viewBox="0 0 45 45" fill="none" xmlns="http://www.w3.org/2000/svg">
<circle cx="23" cy="23" r="20" fill="white"/>
<path d="M32.6544 10H13.3456C13.0588 10 12.8676 10.1912 12.8676 10.4779V28.2574V31.8897V35.5221C12.8676 35.8088 13.0588 36 13.3456 36H32.6544C32.9412 36 33.1324 35.8088 33.1324 35.5221V31.8897V28.2574V10.4779C33.1324 10.1912 32.8934 10 32.6544 10ZM23.4301 10.9559H32.1287V27.7794H23.4301V10.9559ZM23.4301 28.7353H26.7279V29.5H28.7353V28.7353H32.1287V31.4118H23.4301V28.7353ZM22.4743 35.0441H13.8235V32.3676H17.2169V33.1324H19.2243V32.3676H22.4743V35.0441ZM22.4743 31.4118H13.8235V28.7353H17.2169V29.5H19.2243V28.7353H22.4743V31.4118ZM22.4743 27.7794H13.8235V10.9559H22.4743V27.7794ZM23.4301 35.0441V32.3676H26.7279V33.1324H28.7353V32.3676H32.1287V35.0441H23.4301Z" fill="black"/>
<path d="M20.9927 18.2206C20.7059 18.2206 20.5147 18.4118 20.5147 18.6985V21.614C20.5147 21.9007 20.7059 22.0919 20.9927 22.0919C21.2794 22.0919 21.4706 21.9007 21.4706 21.614V18.6985C21.4706 18.4596 21.2316 18.2206 20.9927 18.2206Z" fill="black"/>
<path d="M24.9596 18.2206C24.6728 18.2206 24.4816 18.4118 24.4816 18.6985V21.614C24.4816 21.9007 24.7206 22.0919 24.9596 22.0919C25.2463 22.0919 25.4375 21.9007 25.4375 21.614V18.6985C25.4375 18.4118 25.2463 18.2206 24.9596 18.2206Z" fill="black"/>
</svg>
