<svg width="200" height="200" viewBox="0 0 200 200" fill="none" xmlns="http://www.w3.org/2000/svg">
<path d="M100 200C155.228 200 200 155.228 200 100C200 44.7715 155.228 0 100 0C44.7715 0 0 44.7715 0 100C0 155.228 44.7715 200 100 200Z" fill="#383838"/>
<path d="M120.5 73H80.5C58.6848 73 41 90.6848 41 112.5C41 134.315 58.6848 152 80.5 152H120.5C142.315 152 160 134.315 160 112.5C160 90.6848 142.315 73 120.5 73Z" stroke="white" stroke-width="6"/>
<path d="M124.5 123C127.538 123 130 120.538 130 117.5C130 114.462 127.538 112 124.5 112C121.462 112 119 114.462 119 117.5C119 120.538 121.462 123 124.5 123Z" fill="white"/>
<path d="M156 52C156 46.4772 151.523 42 146 42C140.477 42 136 46.4772 136 52C136 57.5228 140.477 62 146 62C151.523 62 156 57.5228 156 52Z" fill="white"/>
<path d="M146 58V83" stroke="white" stroke-width="6"/>
<path d="M77.5 123C80.5376 123 83 120.538 83 117.5C83 114.462 80.5376 112 77.5 112C74.4624 112 72 114.462 72 117.5C72 120.538 74.4624 123 77.5 123Z" fill="white"/>
</svg>
