<svg width="65" height="78" viewBox="0 0 65 78" fill="none" xmlns="http://www.w3.org/2000/svg">
<g filter="url(#filter0_d)">
<g clip-path="url(#clip0)">
<path d="M30.83 0.0479854C24.3688 0.420478 18.3135 2.95088 13.4941 7.29375C13.1037 7.64555 13.8345 9.12758 13.4608 9.5031C13.0437 9.92211 11.5277 9.23359 11.1398 9.67341C6.89056 14.4919 4.41518 20.5209 4.04779 26.95C4.01607 27.5063 5.11332 28.0656 5.11332 28.6275C5.11332 29.1893 4.01607 29.7486 4.04779 30.305C4.41685 36.7646 6.91416 42.8204 11.2005 47.6502C11.5697 48.0661 12.7022 48.5883 12.7022 48.5883C12.7022 48.5883 13.1482 49.6516 13.5625 50.0225C18.3707 54.3278 24.3994 56.836 30.83 57.2067C31.3839 57.2387 32.5 56.5549 32.5 56.5549L33.6134 29.7055L32.5192 0.510721C32.5192 0.510721 31.3839 0.016115 30.83 0.0479854Z" fill="#FDCB02"/>
<path d="M32.5002 1.09531V50.2929C32.5002 50.2929 33.6163 57.2389 34.1702 57.2069C40.6242 56.8349 46.6733 54.3096 51.4901 49.9756C51.8861 49.6193 51.1605 48.1325 51.5395 47.7519C51.9516 47.3379 53.4628 48.0319 53.8462 47.5977C58.104 42.7766 60.5845 36.7413 60.9524 30.305C60.9841 29.7486 58.7736 29.1892 58.7736 28.6274C58.7736 28.0656 60.9841 27.5063 60.9524 26.9499C60.5833 20.4903 58.086 14.4345 53.7996 9.60471C53.4306 9.18883 52.1216 8.89015 52.1216 8.89015C52.1216 8.89015 51.8521 7.60325 51.4378 7.23233C46.6294 2.92725 40.6007 0.420221 34.1701 0.0496301C33.6758 0.0211145 32.5002 1.09531 32.5002 1.09531Z" fill="#FDAE02"/>
<path d="M20.2459 13.9463L13.4952 7.29492C13.1047 7.64673 12.7215 8.00938 12.3476 8.38489C11.9304 8.80401 11.5295 9.23499 11.1416 9.67491L17.8844 16.3185L20.2459 13.9463Z" fill="#FDAE02"/>
<path d="M30.8301 47.7124V57.205C31.384 57.237 31.9406 57.255 32.5 57.255H32.5001L33.6134 53.4826L32.5001 47.7124H30.8301Z" fill="#FDAE02"/>
<path d="M34.1698 47.7124H32.5V57.2548C33.0593 57.2548 33.6158 57.2368 34.1698 57.2049V47.7124Z" fill="#FD8C02"/>
<path d="M30.8301 0.0499862V9.54256H32.5001L33.6134 4.13219L32.5001 0C32.5001 0 31.384 0.018004 30.8301 0.0499862Z" fill="#FDAE02"/>
<path d="M34.1698 0.0499862C33.6158 0.018004 33.0593 0 32.5 0V9.54256H34.1698V0.0499862Z" fill="#FD8C02"/>
<path d="M44.7544 43.3086L51.4891 49.9743C51.8852 49.6179 52.2738 49.2507 52.6528 48.87C53.0649 48.456 53.4611 48.0304 53.8447 47.5961L47.1161 40.9364L44.7544 43.3086Z" fill="#FD8C02"/>
<path d="M51.5002 30.3049H60.9504C60.9823 29.7484 61.0002 29.1894 61.0002 28.6275C61.0002 28.0655 60.9823 27.5065 60.9504 26.9501H51.5002V30.3049Z" fill="#FD8C02"/>
<path d="M13.5001 26.9501H4.04976C4.01792 27.5065 4 28.0655 4 28.6275C4 29.1894 4.01792 29.7484 4.04976 30.3049H13.5001V26.9501Z" fill="#FDAE02"/>
<path d="M47.1159 16.3184L53.7981 9.60616C53.4289 9.19017 53.0481 8.78212 52.6524 8.38469C52.2569 7.98737 51.8506 7.60481 51.4364 7.23389L44.7542 13.946L47.1159 16.3184Z" fill="#FD8C02"/>
<path d="M17.8843 40.9364L11.2019 47.6486C11.5711 48.0646 11.9519 48.4727 12.3476 48.8701C12.7431 49.2674 13.1494 49.65 13.5636 50.0209L20.246 43.3087L17.8843 40.9364Z" fill="#FDAE02"/>
<path d="M32.4999 7.86609C21.1025 7.86609 11.8301 17.18 11.8301 28.6284C11.8301 40.0768 21.1025 49.3908 32.4999 49.3908H32.5L33.6133 29.6009L32.5 7.86609H32.4999Z" fill="#FFDF8E"/>
<path d="M53.1701 28.6275C53.1701 17.1791 43.8976 7.86522 32.5002 7.86511V49.3898C43.8976 49.3898 53.1701 40.0759 53.1701 28.6275Z" fill="#FFD664"/>
<path d="M30.8301 16.627V21.3982H32.5L33.6133 19.1647L32.5 16.627H30.8301Z" fill="#FDAE02"/>
<path d="M32.5 16.627H34.1699V21.3982H32.5V16.627Z" fill="#FD8C02"/>
<path d="M28.3175 40.628L28.8473 24.9746C27.0097 23.1152 24.1337 22.7015 21.8156 24.0683C19.1886 25.6171 18.2046 28.9707 19.5752 31.703L24.0525 40.628H28.3175Z" fill="#FDAE02"/>
<path d="M43.1845 24.0683C40.8662 22.7015 37.9902 23.1152 36.1528 24.9745L36.8035 40.6279H40.9474L45.4248 31.7029C46.7955 28.9706 45.8114 25.617 43.1845 24.0683Z" fill="#FD8C02"/>
<path d="M28.3175 40.6279H32.5359L33.6132 30.4188L32.4999 19.7208C30.5287 19.7208 28.6715 20.5908 27.4046 22.1079C26.1377 23.6248 25.6076 25.6132 25.9518 27.5717L28.3175 40.6279Z" fill="#FDCB02"/>
<path d="M36.8036 40.6279L39.0497 27.563C39.3923 25.613 38.8623 23.6247 37.5953 22.1078C36.3284 20.5908 34.4713 19.7208 32.5 19.7208V40.628H36.8036V40.6279Z" fill="#FDAE02"/>
</g>
<path d="M27.6252 58.24C28.5852 58.512 29.3372 59.008 29.8812 59.728C30.4252 60.448 30.6972 61.32 30.6972 62.344C30.6972 63.336 30.4332 64.2 29.9052 64.936C29.3772 65.672 28.6252 66.24 27.6492 66.64C26.6892 67.04 25.5532 67.24 24.2412 67.24C22.0812 67.24 19.9612 66.744 17.8812 65.752L19.3212 62.368C19.9612 62.736 20.6332 63.024 21.3372 63.232C22.0572 63.44 22.7132 63.544 23.3052 63.544C24.0732 63.544 24.6812 63.384 25.1292 63.064C25.5772 62.728 25.8012 62.28 25.8012 61.72C25.8012 60.52 24.7612 59.92 22.6812 59.92H21.1212V56.824H22.6332C24.4732 56.824 25.3932 56.232 25.3932 55.048C25.3932 54.536 25.1932 54.136 24.7932 53.848C24.4092 53.56 23.8492 53.416 23.1132 53.416C22.0412 53.416 20.8892 53.784 19.6572 54.52L18.1692 51.28C20.0732 50.24 22.0812 49.72 24.1932 49.72C26.0332 49.72 27.4892 50.144 28.5612 50.992C29.6492 51.824 30.1932 52.96 30.1932 54.4C30.1932 55.28 29.9772 56.048 29.5452 56.704C29.1132 57.36 28.4732 57.872 27.6252 58.24ZM40.1684 67.24C38.6324 67.24 37.2884 66.888 36.1364 66.184C35.0004 65.464 34.1204 64.448 33.4964 63.136C32.8884 61.824 32.5844 60.272 32.5844 58.48C32.5844 56.688 32.8884 55.136 33.4964 53.824C34.1204 52.512 35.0004 51.504 36.1364 50.8C37.2884 50.08 38.6324 49.72 40.1684 49.72C41.7204 49.72 43.0644 50.08 44.2004 50.8C45.3524 51.504 46.2324 52.512 46.8404 53.824C47.4644 55.136 47.7764 56.688 47.7764 58.48C47.7764 60.272 47.4644 61.824 46.8404 63.136C46.2324 64.448 45.3524 65.464 44.2004 66.184C43.0644 66.888 41.7204 67.24 40.1684 67.24ZM40.1684 63.496C41.0324 63.496 41.7044 63.056 42.1844 62.176C42.6804 61.28 42.9284 60.048 42.9284 58.48C42.9284 56.912 42.6804 55.688 42.1844 54.808C41.7044 53.912 41.0324 53.464 40.1684 53.464C39.3204 53.464 38.6484 53.912 38.1524 54.808C37.6724 55.688 37.4324 56.912 37.4324 58.48C37.4324 60.048 37.6724 61.28 38.1524 62.176C38.6484 63.056 39.3204 63.496 40.1684 63.496Z" fill="white"/>
</g>
<defs>
<filter id="filter0_d" x="0" y="0" width="65" height="86" filterUnits="userSpaceOnUse" color-interpolation-filters="sRGB">
<feFlood flood-opacity="0" result="BackgroundImageFix"/>
<feColorMatrix in="SourceAlpha" type="matrix" values="0 0 0 0 0 0 0 0 0 0 0 0 0 0 0 0 0 0 127 0"/>
<feOffset dy="4"/>
<feGaussianBlur stdDeviation="2"/>
<feColorMatrix type="matrix" values="0 0 0 0 0 0 0 0 0 0 0 0 0 0 0 0 0 0 0.25 0"/>
<feBlend mode="normal" in2="BackgroundImageFix" result="effect1_dropShadow"/>
<feBlend mode="normal" in="SourceGraphic" in2="effect1_dropShadow" result="shape"/>
</filter>
<clipPath id="clip0">
<rect width="57" height="57.2549" fill="white" transform="translate(4)"/>
</clipPath>
</defs>
</svg>
