<svg width="65" height="78" viewBox="0 0 65 78" fill="none" xmlns="http://www.w3.org/2000/svg">
<g filter="url(#filter0_d)">
<g clip-path="url(#clip0)">
<path d="M30.83 0.0479854C24.3688 0.420478 18.3135 2.95088 13.4941 7.29375C13.1037 7.64555 13.8345 9.12758 13.4608 9.5031C13.0437 9.92211 11.5277 9.23359 11.1398 9.67341C6.89056 14.4919 4.41518 20.5209 4.04779 26.95C4.01607 27.5063 5.11332 28.0656 5.11332 28.6275C5.11332 29.1893 4.01607 29.7486 4.04779 30.305C4.41685 36.7646 6.91416 42.8204 11.2005 47.6502C11.5697 48.0661 12.7022 48.5883 12.7022 48.5883C12.7022 48.5883 13.1482 49.6516 13.5625 50.0225C18.3707 54.3278 24.3994 56.836 30.83 57.2067C31.3839 57.2387 32.5 56.5549 32.5 56.5549L33.6134 29.7055L32.5192 0.510721C32.5192 0.510721 31.3839 0.016115 30.83 0.0479854Z" fill="#FDCB02"/>
<path d="M32.5002 1.09531V50.2929C32.5002 50.2929 33.6163 57.2389 34.1702 57.2069C40.6242 56.8349 46.6733 54.3096 51.4901 49.9756C51.8861 49.6193 51.1605 48.1325 51.5395 47.7519C51.9516 47.3379 53.4628 48.0319 53.8462 47.5977C58.104 42.7766 60.5845 36.7413 60.9524 30.305C60.9841 29.7486 58.7736 29.1892 58.7736 28.6274C58.7736 28.0656 60.9841 27.5063 60.9524 26.9499C60.5833 20.4903 58.086 14.4345 53.7996 9.60471C53.4306 9.18883 52.1216 8.89015 52.1216 8.89015C52.1216 8.89015 51.8521 7.60325 51.4378 7.23233C46.6294 2.92725 40.6007 0.420221 34.1701 0.0496301C33.6758 0.0211145 32.5002 1.09531 32.5002 1.09531Z" fill="#FDAE02"/>
<path d="M20.2459 13.9463L13.4952 7.29492C13.1047 7.64673 12.7215 8.00938 12.3476 8.38489C11.9304 8.80401 11.5295 9.23499 11.1416 9.67491L17.8844 16.3185L20.2459 13.9463Z" fill="#FDAE02"/>
<path d="M30.8301 47.7124V57.205C31.384 57.237 31.9406 57.255 32.5 57.255H32.5001L33.6134 53.4826L32.5001 47.7124H30.8301Z" fill="#FDAE02"/>
<path d="M34.1698 47.7124H32.5V57.2548C33.0593 57.2548 33.6158 57.2368 34.1698 57.2049V47.7124Z" fill="#FD8C02"/>
<path d="M30.8301 0.0499862V9.54256H32.5001L33.6134 4.13219L32.5001 0C32.5001 0 31.384 0.018004 30.8301 0.0499862Z" fill="#FDAE02"/>
<path d="M34.1698 0.0499862C33.6158 0.018004 33.0593 0 32.5 0V9.54256H34.1698V0.0499862Z" fill="#FD8C02"/>
<path d="M44.7544 43.3086L51.4891 49.9743C51.8852 49.6179 52.2738 49.2507 52.6528 48.87C53.0649 48.456 53.4611 48.0304 53.8447 47.5961L47.1161 40.9364L44.7544 43.3086Z" fill="#FD8C02"/>
<path d="M51.5002 30.3049H60.9504C60.9823 29.7484 61.0002 29.1894 61.0002 28.6275C61.0002 28.0655 60.9823 27.5065 60.9504 26.9501H51.5002V30.3049Z" fill="#FD8C02"/>
<path d="M13.5001 26.9501H4.04976C4.01792 27.5065 4 28.0655 4 28.6275C4 29.1894 4.01792 29.7484 4.04976 30.3049H13.5001V26.9501Z" fill="#FDAE02"/>
<path d="M47.1159 16.3184L53.7981 9.60616C53.4289 9.19017 53.0481 8.78212 52.6524 8.38469C52.2569 7.98737 51.8506 7.60481 51.4364 7.23389L44.7542 13.946L47.1159 16.3184Z" fill="#FD8C02"/>
<path d="M17.8843 40.9364L11.2019 47.6486C11.5711 48.0646 11.9519 48.4727 12.3476 48.8701C12.7431 49.2674 13.1494 49.65 13.5636 50.0209L20.246 43.3087L17.8843 40.9364Z" fill="#FDAE02"/>
<path d="M32.4999 7.86609C21.1025 7.86609 11.8301 17.18 11.8301 28.6284C11.8301 40.0768 21.1025 49.3908 32.4999 49.3908H32.5L33.6133 29.6009L32.5 7.86609H32.4999Z" fill="#FFDF8E"/>
<path d="M53.1701 28.6275C53.1701 17.1791 43.8976 7.86522 32.5002 7.86511V49.3898C43.8976 49.3898 53.1701 40.0759 53.1701 28.6275Z" fill="#FFD664"/>
<path d="M30.8301 16.627V21.3982H32.5L33.6133 19.1647L32.5 16.627H30.8301Z" fill="#FDAE02"/>
<path d="M32.5 16.627H34.1699V21.3982H32.5V16.627Z" fill="#FD8C02"/>
<path d="M28.3175 40.628L28.8473 24.9746C27.0097 23.1152 24.1337 22.7015 21.8156 24.0683C19.1886 25.6171 18.2046 28.9707 19.5752 31.703L24.0525 40.628H28.3175Z" fill="#FDAE02"/>
<path d="M43.1845 24.0683C40.8662 22.7015 37.9902 23.1152 36.1528 24.9745L36.8035 40.6279H40.9474L45.4248 31.7029C46.7955 28.9706 45.8114 25.617 43.1845 24.0683Z" fill="#FD8C02"/>
<path d="M28.3175 40.6279H32.5359L33.6132 30.4188L32.4999 19.7208C30.5287 19.7208 28.6715 20.5908 27.4046 22.1079C26.1377 23.6248 25.6076 25.6132 25.9518 27.5717L28.3175 40.6279Z" fill="#FDCB02"/>
<path d="M36.8036 40.6279L39.0497 27.563C39.3923 25.613 38.8623 23.6247 37.5953 22.1078C36.3284 20.5908 34.4713 19.7208 32.5 19.7208V40.628H36.8036V40.6279Z" fill="#FDAE02"/>
</g>
<path d="M34.2504 55.72C35.4024 55.72 36.4104 55.952 37.2744 56.416C38.1384 56.864 38.8024 57.504 39.2664 58.336C39.7304 59.168 39.9624 60.144 39.9624 61.264C39.9624 62.48 39.6824 63.536 39.1224 64.432C38.5784 65.328 37.7944 66.024 36.7704 66.52C35.7464 67 34.5464 67.24 33.1704 67.24C32.0664 67.24 30.9464 67.104 29.8104 66.832C28.6904 66.544 27.6744 66.152 26.7624 65.656L28.2504 62.44C29.7224 63.192 31.0344 63.568 32.1864 63.568C33.0824 63.568 33.7944 63.352 34.3224 62.92C34.8664 62.488 35.1384 61.912 35.1384 61.192C35.1384 60.52 34.9064 59.976 34.4424 59.56C33.9784 59.144 33.3624 58.936 32.5944 58.936C32.1304 58.936 31.6984 59.016 31.2984 59.176C30.8984 59.336 30.5944 59.552 30.3864 59.824L27.9624 59.32V49.96H38.7624V53.608H32.1864V56.008C32.8104 55.816 33.4984 55.72 34.2504 55.72Z" fill="white"/>
</g>
<defs>
<filter id="filter0_d" x="0" y="0" width="65" height="86" filterUnits="userSpaceOnUse" color-interpolation-filters="sRGB">
<feFlood flood-opacity="0" result="BackgroundImageFix"/>
<feColorMatrix in="SourceAlpha" type="matrix" values="0 0 0 0 0 0 0 0 0 0 0 0 0 0 0 0 0 0 127 0"/>
<feOffset dy="4"/>
<feGaussianBlur stdDeviation="2"/>
<feColorMatrix type="matrix" values="0 0 0 0 0 0 0 0 0 0 0 0 0 0 0 0 0 0 0.25 0"/>
<feBlend mode="normal" in2="BackgroundImageFix" result="effect1_dropShadow"/>
<feBlend mode="normal" in="SourceGraphic" in2="effect1_dropShadow" result="shape"/>
</filter>
<clipPath id="clip0">
<rect width="57" height="57.2549" fill="white" transform="translate(4)"/>
</clipPath>
</defs>
</svg>
